<svg width="67" height="72" viewBox="0 0 67 72" fill="none" xmlns="http://www.w3.org/2000/svg">
<path d="M22.1575 39.0365C31.3208 38.4426 40.0542 38.5719 47.7963 44.0793C50.2578 45.8303 52.6915 48.4279 53.8449 51.2695C55.5486 55.4668 52.9429 60.6391 49.1801 62.7639C44.7922 65.2417 39.2222 65.6258 34.3137 65.4644C26.7606 65.216 18.6407 63.731 11.7764 60.409C8.50583 58.8262 3.14661 56.1641 2.26197 52.1945C1.76339 49.9572 2.88737 47.8179 4.06216 45.9888C6.52968 42.1469 12.2014 40.7139 16.3073 39.221C17.8235 38.6697 19.4071 38.6098 20.9868 38.3548C21.3138 38.3021 22.6531 38.5072 22.6561 38.497C23.0321 37.2007 23.0258 35.4991 23.0572 34.166C23.1195 31.5214 23.8831 28.7681 24.5285 26.2115C26.3279 19.083 31.7768 14.7529 37.8156 11.0035C39.6858 9.84228 41.594 8.4003 43.7879 7.90856C45.3835 7.55089 43.9298 15.5945 43.7185 16.4028C41.642 24.3467 36.3941 29.267 31.0195 34.9554C30.1063 35.9219 25.7141 41.0565 23.9616 40.5481C23.4872 40.4105 28.5249 35.6902 28.9421 35.303C32.2853 32.2007 34.5608 28.9097 37.1164 25.2067C40.4395 20.3918 48.4065 17.7834 53.7439 21.0216C58.7734 24.073 52.8126 30.9961 49.4167 32.728C44.0167 35.4821 37.2649 34.099 32.2438 37.8763C30.6348 39.0867 29.1047 40.4085 27.4926 41.6104C26.1045 42.6453 25.9012 42.3877 27.9192 42.7605" stroke="#211F1F" stroke-width="2.25" stroke-linecap="round" stroke-linejoin="round"/>
<path d="M52.5534 55.7214C54.9252 57.0123 57.4309 58.6409 59.3739 60.513C60.4431 61.5433 61.2975 62.0484 62.6947 62.6928C63.2697 62.9581 65.1056 63.4684 64.4975 63.2919C63.0951 62.885 61.6927 62.4782 60.2903 62.0713" stroke="#211F1F" stroke-width="2.25" stroke-linecap="round" stroke-linejoin="round"/>
<path d="M46.1504 43.6008C42.0421 46.5121 39.0686 50.0284 37.7252 54.9548C37.0856 57.3003 38.3485 58.9281 38.34 61.0248C38.3356 62.1253 37.3236 63.1666 37.9432 64.2926C37.9851 64.3688 38.1994 60.093 38.2441 59.3245C38.3868 56.8722 38.6731 54.1888 39.3226 51.8071C39.7712 50.1619 40.0931 48.1542 41.1581 46.79C41.9876 45.7275 43.1972 45.2718 44.1364 44.385C45.4616 43.1337 41.4019 46.8152 40.2322 48.2129C38.6213 50.1376 37.2305 52.3604 36.7453 54.8605C36.5087 56.0794 36.8505 57.7304 36.9819 58.9583C37.1149 60.2011 36.8039 61.6713 37.1416 62.8628C38.055 66.0843 35.2079 64.1253 33.615 63.2271" stroke="#211F1F" stroke-width="2.25" stroke-linecap="round" stroke-linejoin="round"/>
<path d="M32.7117 40.3872C28.2601 42.4864 28.0919 48.0103 27.9103 52.2221C27.7939 54.9235 28.0993 57.5474 28.3996 60.2323C28.6865 62.7976 28.2898 62.0532 27.7131 60.1092C26.2611 55.2143 27.0921 49.0268 30.0766 44.7542C30.7363 43.8097 31.687 42.8928 32.5492 42.1265C33.1163 41.6226 32.8844 41.7898 32.4305 42.3392C30.8366 44.2685 29.2228 46.1936 27.681 48.1644C25.4402 51.0286 22.8031 56.7393 23.4237 60.6133C23.5889 61.6441 23.9515 64.0036 24.6969 64.4797C25.2173 64.8121 25.2637 61.8959 25.2956 61.4984C25.3525 60.7883 25.6551 60.1376 25.6525 59.4163C25.6522 59.3595 25.6691 58.2951 25.8547 58.3917C26.6686 58.8152 27.094 62.9629 27.3419 63.8786C27.6109 64.8718 27.8528 65.3151 26.5996 64.5375C24.6524 63.3293 22.8974 61.7303 21.1234 60.2881" stroke="#211F1F" stroke-width="2.25" stroke-linecap="round" stroke-linejoin="round"/>
<path d="M15.9028 46.4578C16.7614 47.2611 17.9887 48.118 18.4792 49.239C18.8097 49.9946 17.3386 48.8703 17.17 48.7071C16.7366 48.2875 16.094 46.2103 16.7122 47.2059C17.2451 48.0642 16.4721 48.6701 15.9032 47.6363C15.5358 46.9687 16.238 47.3673 15.4453 48.0356" stroke="#211F1F" stroke-width="2.25" stroke-linecap="round" stroke-linejoin="round"/>
</svg>
