<svg width="24" height="24" viewBox="0 0 24 24" fill="none" xmlns="http://www.w3.org/2000/svg">
<path d="M10.2995 1.1935C11.0957 1.18993 11.8817 1.0976 12.6758 1.0976L12.1962 1.1935C13.373 1.1935 14.5921 1.27633 15.7234 1.61441C16.5005 1.84666 17.383 1.72257 18.0464 2.22714C18.8402 2.83086 19.5121 3.57027 20.2149 4.2731C20.6551 4.71331 20.953 5.1629 21.3125 5.65306C21.5675 6.00077 21.8591 6.3435 22.0744 6.71866C22.2834 7.08284 22.4257 7.49847 22.6019 7.88017C22.7352 8.16902 22.8709 8.4341 22.9482 8.74331C23.0373 9.09974 22.9855 9.50306 22.9855 9.86752C22.9855 11.2917 22.9375 12.7213 22.9375 14.1406C22.9375 14.69 22.7788 15.249 22.6765 15.7896C22.5496 16.4601 22.6126 17.2095 22.2183 17.8063C21.5342 18.8416 20.7216 19.8735 19.794 20.6994C19.4858 20.9739 19.2072 21.2597 18.835 21.4533C18.4324 21.6626 18.0158 21.8003 17.5962 21.9781C17.2669 22.1177 16.951 22.271 16.6292 22.4257C16.2558 22.6052 15.7893 22.5639 15.3877 22.6281C14.5578 22.7609 13.7566 22.8441 12.9422 23.0704C12.3641 23.2309 11.6996 23.1771 11.0987 23.097C10.2968 22.9901 9.55748 22.8474 8.79697 22.5829C7.8334 22.2477 6.8705 21.9414 6.01308 21.384C5.32743 20.9384 4.75943 20.4633 4.23618 19.8256C3.34258 18.7365 2.47248 17.5708 1.89185 16.2851C1.75481 15.9817 1.70571 15.611 1.65742 15.2861C1.59995 14.8995 1.43949 14.526 1.33241 14.1513C1.16819 13.5765 1.23707 12.9795 1.12994 12.4037C1.05812 12.0176 1.16724 11.6236 1.16724 11.2395C1.16724 10.882 1.14021 10.5142 1.16991 10.1579C1.25802 9.10053 1.6941 8.15105 2.03038 7.16089C2.12004 6.8969 2.24219 6.64087 2.31543 6.37234C2.38115 6.13136 2.55003 5.96323 2.6431 5.7383C2.78906 5.38559 3.09316 5.11187 3.27714 4.78992C3.47803 4.43835 3.88972 4.18853 4.20421 3.95608C4.62523 3.6449 5.04307 3.3192 5.4936 3.05298C5.96135 2.77658 6.35792 2.48202 6.85757 2.26443C7.31393 2.0657 7.84779 1.861 8.24019 1.55581C8.61534 1.26402 9.22246 1.40188 9.62814 1.21748C9.80297 1.13801 10.1301 1.19426 10.2995 1.1935Z" fill="#FEFAF0" stroke="#211F1F" stroke-width="0.75" stroke-linecap="round" stroke-linejoin="round"/>
<path d="M18.4296 2.91968C18.9244 3.47898 19.3336 3.98657 19.703 4.62465C19.9076 4.97793 20.0978 5.34832 20.3371 5.67959C20.5794 6.01507 20.8106 6.51605 20.8992 6.92369C21.0322 7.53555 21.067 8.08455 21.067 8.7139C21.067 9.10576 21.1689 9.53795 21.2002 9.93669C21.2506 10.5769 21.0162 11.2952 20.8965 11.9187C20.8243 12.2953 20.7473 12.6758 20.6861 13.0536C20.6122 13.5092 20.5018 13.9604 20.385 14.4016C20.2785 14.804 20.0583 15.176 19.8949 15.5631C19.6446 16.1557 19.1565 16.6051 18.7893 17.1135C18.5817 17.401 18.2768 17.7013 17.9981 17.9181C17.7474 18.113 17.5533 18.3735 17.3267 18.6001C17.163 18.7638 16.9991 18.9121 16.8153 19.0529C16.4216 19.3545 15.9102 19.4546 15.4566 19.6337C15.0845 19.7806 14.7112 19.8659 14.3351 19.9987C13.9645 20.1294 13.5932 20.2647 13.2402 20.4382C12.9744 20.5689 12.6441 20.8436 12.345 20.8911C11.8466 20.9702 11.295 20.9018 10.7893 20.9018C10.3349 20.9018 9.88408 20.9497 9.43062 20.9497C8.46697 20.9497 7.53015 20.8111 6.5748 20.7206C6.02428 20.6685 5.50874 20.5181 4.95508 20.5181" stroke="#211F1F" stroke-width="0.75" stroke-linecap="round" stroke-linejoin="round"/>
<path d="M5.86523 20.9978C6.01355 20.972 6.58452 20.7642 6.58452 21.0484C6.58452 21.3047 6.60433 21.2663 6.85092 21.1896C6.87298 21.1828 7.21799 21.0475 7.24519 21.0777C7.31943 21.1602 7.21013 21.4543 7.2079 21.5573C7.19513 22.1445 8.18496 21.4355 8.44133 21.3202C8.57804 21.2586 8.13477 22.3061 8.66245 22.0581C8.89924 21.9468 9.17591 21.7034 9.42435 21.6372C9.47924 21.6225 9.46165 22.203 9.46165 22.2579C9.46165 22.5621 9.58208 22.3884 9.75469 22.2286C9.93431 22.0623 10.1166 21.892 10.2768 21.7064C10.3282 21.647 10.411 21.4421 10.4207 21.52C10.452 21.7704 9.97482 22.9322 10.5592 22.5856C11.0717 22.2816 11.5537 21.7795 11.8752 21.2802C11.9168 21.2156 11.906 21.8021 11.9072 21.9142C11.9097 22.1398 11.8871 22.398 12.1523 22.1886C12.4986 21.9153 12.9817 21.4991 13.1513 21.0751C13.253 20.8209 13.0786 21.6179 13.0314 21.8876C12.9825 22.1673 12.9644 22.4405 12.9622 22.7241C12.9616 22.7898 12.9103 23.0416 13.0474 22.9159C13.6686 22.3464 14.0807 21.4131 14.3768 20.6435C14.4935 20.34 14.5773 20.0222 14.6511 19.7058C14.698 19.505 14.5447 20.1041 14.4993 20.3052C14.3673 20.889 14.3029 21.5126 14.3634 22.1114C14.4167 22.6381 14.99 21.7184 15.0827 21.5786C15.3801 21.1299 15.6087 20.6669 15.8313 20.18C15.9209 19.9839 15.8652 20.2288 15.8553 20.2892C15.7874 20.7028 15.7218 21.1079 15.7034 21.5279C15.7029 21.5403 15.7365 22.4582 15.7434 22.4524C16.0242 22.2155 16.2419 21.7457 16.4414 21.4454C16.7858 20.9268 17.0952 20.3849 17.3791 19.831C17.4906 19.6134 17.5891 19.3995 17.6561 19.165C17.6807 19.0791 17.6862 19.057 17.7041 18.9812C17.7068 18.9696 17.6988 19.0042 17.6961 19.0158C17.5193 19.7762 17.3087 20.5585 17.3525 21.3468C17.3554 21.3991 17.3404 21.6195 17.4031 21.48C17.5922 21.0587 17.793 20.643 17.9838 20.2226C18.1583 19.838 18.3029 19.4381 18.3888 19.0238C18.4154 18.8952 18.509 18.5263 18.4314 18.6322C18.0554 19.1449 17.8353 19.9475 17.7041 20.5609C17.6417 20.8527 17.6285 21.0834 17.8799 20.7367C18.4622 19.9338 18.8847 19.0151 19.1187 18.0514C19.1501 17.922 19.3355 17.3197 19.2359 17.1536C19.2355 17.153 19.0572 17.7153 19.0521 17.7397C18.9346 18.3006 18.7841 18.9385 18.9349 19.506C19.0069 19.7772 19.2778 19.1781 19.3078 19.1223C19.7637 18.277 20.1145 17.3662 20.2322 16.4077C20.2491 16.2706 20.2543 15.8493 20.2269 16.2878C20.1993 16.729 20.1966 17.1727 20.2083 17.6145C20.2116 17.7414 20.3026 19.3558 20.6079 18.808C21.1198 17.8893 21.2473 16.688 21.2579 15.6538C21.2603 15.4211 21.2503 15.1879 21.2339 14.9558C21.2333 14.947 21.2123 14.6422 21.2019 14.6681C20.9391 15.3252 20.7927 16.0379 20.7597 16.7434C20.7555 16.8333 20.6842 17.7611 20.8903 17.3854C21.3988 16.458 21.8332 15.4451 21.9452 14.3857C21.9771 14.0843 21.9787 13.7738 21.9505 13.472C21.9497 13.4635 21.8813 13.1078 21.8786 13.1123C21.5918 13.5904 21.4735 14.3554 21.4124 14.8972C21.3805 15.1801 21.371 15.5326 21.5456 15.0517C21.9276 13.9996 22.0964 12.8306 21.9718 11.7164C21.9482 11.5048 21.9167 11.037 21.7614 10.8506C21.6697 10.7406 21.3977 11.3494 21.3778 11.3887C21.3453 11.4528 20.8307 12.4644 21.0528 12.5156C21.2793 12.5679 21.6836 11.665 21.7427 11.5352C22.0545 10.8516 22.1328 10.138 22.0464 9.40403C22.0422 9.36829 22.0196 8.97003 21.9958 8.9991C21.7601 9.28715 21.6343 9.81276 21.5483 10.1713C21.4976 10.3826 21.7376 9.74667 21.7534 9.7024C22.0227 8.94545 21.9495 7.91945 21.5882 7.20356C21.3414 6.71436 20.6065 8.9848 20.9435 7.47795C21.0491 7.00588 21.0274 6.51279 21.0181 6.03139C21.0112 5.66843 20.8927 6.0818 20.8743 6.06336C20.8428 6.03185 20.8134 5.83502 20.805 5.80761C20.7083 5.49202 20.5839 5.19228 20.4267 4.90185C20.2681 4.60875 20.1044 4.30785 19.8673 4.07068" stroke="#211F1F" stroke-width="0.75" stroke-linecap="round" stroke-linejoin="round"/>
<path d="M8.35968 4.64609C8.10771 4.76367 7.97036 4.90546 7.82688 5.15225C7.66136 5.43693 7.4068 5.85058 7.41129 6.19654C7.41454 6.44692 7.85791 6.28759 7.96008 6.21786C8.25784 6.01462 8.49451 5.65083 8.42362 5.2748C8.38601 5.07532 8.15316 4.58676 7.88016 4.59814C7.69393 4.6059 7.56582 5.14205 7.55515 5.2748C7.52232 5.68328 7.68544 6.16618 8.08262 6.36171C8.33234 6.48465 8.44029 6.29094 8.49288 6.074C8.64035 5.46567 8.35231 4.912 7.85352 4.56617C7.15218 4.0799 6.56038 4.69324 6.58545 5.44529C6.59966 5.87176 7.02915 6.04484 7.39531 6.074C7.76965 6.10381 7.94483 5.89528 8.09861 5.57849C8.36812 5.02329 7.93005 4.0558 7.23547 4.48625C6.91433 4.68526 6.7064 5.11927 6.70266 5.49324C6.69799 5.9611 7.1439 6.27065 7.55515 6.38302C7.92673 6.48456 8.59318 6.64225 8.84986 6.22318C9.05693 5.8851 9.09035 5.33499 8.84453 5.00839C8.3485 4.34939 7.52577 4.52758 7.01169 5.05635C6.83515 5.23793 6.74961 5.60002 6.90513 5.82358C7.1269 6.14237 7.71877 6.11873 8.02934 5.9781C8.45179 5.7868 8.56984 5.283 8.55149 4.86454C8.53013 4.37759 8.03908 4.27282 7.6404 4.29444C7.15274 4.32088 6.84507 4.51723 6.61742 4.94979C6.44567 5.27611 6.4369 5.67055 6.73996 5.91949C7.42281 6.4804 8.90076 5.98764 8.61543 4.96044C8.52445 4.63294 8.15838 4.4782 7.83753 4.51289C7.46367 4.55331 7.13396 4.98157 7.03833 5.32275C6.95752 5.61103 7.01024 6.10071 7.35268 6.21786C7.51191 6.27233 7.75929 6.21444 7.92811 6.22851" stroke="#211F1F" stroke-width="0.75" stroke-linecap="round" stroke-linejoin="round"/>
<path d="M12.7697 6.66005C12.4792 7.00964 12.1643 7.41071 12.3221 7.89348C12.3814 8.07466 12.4906 8.25246 12.7004 8.24247C13.2068 8.21836 13.8345 7.77025 13.8699 7.23814C13.9009 6.7732 13.4027 6.61938 13.0095 6.61209C12.6858 6.6061 12.4419 6.70641 12.2183 6.95042C11.6506 7.56964 11.4292 8.82387 12.5459 8.9511C12.9895 9.00163 13.3907 9.01637 13.6835 8.64474C14.0045 8.23729 14.0165 7.84283 14.1017 7.36335C14.1748 6.95193 13.8149 6.76441 13.4783 6.64939C12.9946 6.48405 12.3716 6.58353 11.9812 6.93178C11.5071 7.35454 11.3391 8.05861 11.816 8.53551C12.1336 8.85314 12.5957 8.86075 12.8656 8.46625C13.0598 8.18248 13.1054 7.85165 13.1054 7.51786C13.1054 7.25492 12.7948 7.66381 12.7324 7.73364C12.6462 7.83014 12.4084 8.09052 12.5299 8.24247C12.6378 8.37731 12.864 8.24145 12.9455 8.15189C13.2086 7.863 13.2301 7.5412 13.2466 7.16354C13.2507 7.06893 13.2335 6.83026 13.0787 6.98506C12.781 7.28275 12.9306 7.57327 13.2972 7.61909" stroke="#211F1F" stroke-width="0.75" stroke-linecap="round" stroke-linejoin="round"/>
<path d="M18.5242 5.94064C18.2142 5.70356 18.1155 5.71544 17.773 5.75149C17.4146 5.78922 17.042 5.82461 16.7287 6.01257C16.3433 6.24381 16.2693 6.82167 16.4037 7.22469C16.4871 7.47481 16.9132 7.73013 17.1336 7.85606C17.4661 8.04607 17.8259 8.11797 18.2099 8.02656C18.9943 7.8398 19.3451 6.9839 18.9345 6.32692C18.6944 5.94273 18.4494 5.8258 17.9754 5.90334C17.5025 5.98073 16.9239 6.32816 16.8353 6.83575C16.7321 7.42629 16.9393 8.08764 17.6771 7.98926C18.2303 7.9155 18.5231 7.05406 18.1886 6.63595C18.1147 6.54367 17.79 6.68424 17.7144 6.71054C17.4303 6.80936 17.1816 7.08712 17.1816 7.40052C17.1816 7.64457 17.4163 7.72562 17.6158 7.58433C17.8911 7.38932 18.0702 6.93161 18.0341 6.60131C18.0073 6.35691 17.8476 6.39463 17.709 6.54803C17.4861 6.7949 17.3736 7.2073 17.6025 7.49109C17.8195 7.76015 18.4017 7.74693 18.6308 7.49376C18.6796 7.43979 18.7835 7.08173 18.6681 7.13944" stroke="#211F1F" stroke-width="0.75" stroke-linecap="round" stroke-linejoin="round"/>
<path d="M18.5253 14.6201C18.0524 14.4624 17.6877 14.7014 17.4011 15.073C17.2012 15.3321 16.9447 15.5776 17.1133 15.9148C17.4992 16.6864 18.3141 16.5462 18.9036 16.1013C19.2703 15.8245 19.6704 15.3512 19.3884 14.8812C19.2144 14.5911 18.4316 14.4937 18.1443 14.6014C17.6295 14.7945 17.5114 15.5928 17.5769 16.064C17.6307 16.4512 17.8257 16.6861 18.1683 16.4609C18.5837 16.1879 19.0408 15.1409 18.6212 14.7213C18.4086 14.5088 18.2731 15.0024 18.2216 15.1422C18.1127 15.4378 18.1089 15.798 18.2748 16.0746C18.5342 16.5068 18.7461 15.7197 18.781 15.5631C18.7923 15.5125 18.8809 15.0088 18.7331 15.0383C18.5931 15.0663 18.4478 15.2893 18.3681 15.3847C18.1341 15.6646 17.8892 15.9616 17.7314 16.2931C17.655 16.4534 17.4352 17.0534 17.6834 17.1882C17.8666 17.2876 18.1203 17.0693 18.2535 16.9724C18.401 16.8652 19.1408 15.998 18.7757 15.8295C18.487 15.6963 18.2056 16.3347 18.432 16.5328C18.6838 16.7531 18.765 16.2598 18.765 16.1066" stroke="#211F1F" stroke-width="0.75" stroke-linecap="round" stroke-linejoin="round"/>
<path d="M11.5712 11.647C11.3434 11.3491 11.0588 11.0579 10.7081 11.2527C10.4613 11.3899 10.2409 11.5939 10.0847 11.8282C9.76082 12.314 9.84031 12.9893 10.2792 13.3733C10.8341 13.8589 11.7322 13.4766 12.1733 13.011C12.4019 12.7697 12.7911 12.1715 12.493 11.8495C12.2492 11.5862 11.7897 11.3069 11.422 11.2661C11.1325 11.2339 10.7964 11.1892 10.5349 11.3487C10.0714 11.6313 9.97399 12.1497 9.99147 12.6567C10.0067 13.0984 10.1828 13.6062 10.6069 13.8182C10.8781 13.9538 11.1871 13.6624 11.3688 13.4985C11.729 13.1736 12.2662 12.6004 12.1174 12.0546C12.0474 11.798 11.8151 11.6068 11.5712 11.7722C11.2032 12.0219 10.9839 12.4658 11.0517 12.9071C11.0707 13.0304 11.2881 13.4505 11.438 13.2561C11.6573 12.9718 11.8132 12.5173 11.7044 12.1638C11.656 12.0064 11.5177 11.7424 11.3208 11.8868C11.1221 12.0325 10.7513 12.4321 10.8147 12.7126C10.8448 12.8462 11.0796 12.9677 11.161 12.8165C11.4095 12.355 10.5052 11.3327 10.3058 12.1079C10.2133 12.4677 10.3195 12.8658 10.6815 13.0083C10.9375 13.1092 10.9881 13.053 11.0917 12.8458" stroke="#211F1F" stroke-width="0.75" stroke-linecap="round" stroke-linejoin="round"/>
<path d="M4.23604 11.1674C3.71407 11.2498 3.14462 11.194 2.87473 11.6922C2.77091 11.8839 2.74952 12.0351 2.74952 12.249C2.74952 12.6211 2.91368 13.1204 3.20773 13.3626C3.36134 13.4891 3.50628 13.5992 3.68725 13.6849C3.95217 13.8104 4.26245 13.738 4.54506 13.7808C5.01278 13.8517 5.2242 13.4888 5.41353 13.1388C5.5237 12.9351 5.48326 12.6724 5.52009 12.4461C5.58419 12.0524 5.33215 11.6809 4.9793 11.5297C4.0873 11.1474 3.14738 10.9663 2.69624 12.0039C2.47906 12.5034 2.66541 13.0942 3.15178 13.3439C3.53638 13.5414 3.73418 13.19 3.943 12.8884C4.12486 12.6257 4.47934 11.7227 4.11882 11.4605C3.86085 11.2728 3.57288 12.0312 3.54872 12.1718C3.52754 12.295 3.46059 13.0061 3.77783 12.931C4.14626 12.8437 4.41614 12.3657 4.42785 12.0146C4.4375 11.7249 4.19722 11.7497 4.0096 11.9373C3.69613 12.2508 2.95196 13.4511 3.68192 13.7222C4.09604 13.876 4.57802 13.302 4.64629 12.947C4.67 12.8237 4.72205 12.5103 4.61965 12.3982C4.52765 12.2974 4.18658 12.6388 4.14013 12.6966C4.00803 12.8607 3.70407 13.4477 4.0682 13.5597C4.46812 13.6828 4.70553 12.9535 4.76085 12.7046C4.81803 12.4472 4.86357 11.8956 4.44916 12.1265C4.0332 12.3582 3.80308 13.1 4.28932 13.3626C4.71866 13.5944 4.89076 12.4276 4.52109 12.2996C4.26125 12.2097 3.97158 12.4385 4.00693 12.7125C4.04433 13.0024 4.6897 13.405 4.75285 12.963C4.80007 12.6324 4.34525 12.1026 3.99628 12.2597C3.82552 12.3365 3.91654 12.5589 3.94832 12.7019" stroke="#211F1F" stroke-width="0.75" stroke-linecap="round" stroke-linejoin="round"/>
<path d="M8.07109 16.0585C7.5789 15.3378 6.42026 15.8399 6.03312 16.4421C5.6901 16.9757 5.80284 17.4744 6.10505 18.0032C6.31872 18.3772 7.07686 18.3123 7.43173 18.3123C7.88482 18.3123 8.34149 18.1006 8.57459 17.6862C8.97108 16.9813 8.73499 16.1065 7.826 16.1065C7.26313 16.1065 6.75452 16.3457 6.36613 16.7591C6.20578 16.9298 5.94058 17.3182 6.0198 17.5823C6.13232 17.9574 6.66805 17.9104 6.93622 17.7848C7.44501 17.5465 7.6329 16.7612 7.66083 16.2583C7.69639 15.6183 7.22072 16.1239 7.00549 16.3915C6.838 16.5997 6.58918 17.0419 6.80302 17.2946C7.07024 17.6104 7.62605 17.2331 7.77272 16.9803C7.83351 16.8754 8.00795 16.3924 7.74875 16.546C7.42974 16.7351 7.15189 17.0249 6.93622 17.3239C6.85287 17.4395 6.60658 17.792 6.70712 17.95C6.86015 18.1904 7.31023 17.9364 7.43173 17.7795C7.61121 17.5476 7.95877 16.7469 7.76207 16.9643C7.70302 17.0295 7.31412 17.6955 7.54628 17.7342C7.80223 17.7768 7.95866 17.5376 8.04179 17.3266C8.41325 16.3836 7.06024 17.5278 7.54362 17.6889" stroke="#211F1F" stroke-width="0.75" stroke-linecap="round" stroke-linejoin="round"/>
<path d="M12.2923 19.0798C12.0473 18.7997 11.4449 18.8141 11.1148 18.9839C10.8679 19.1109 10.6271 19.5841 10.614 19.847C10.5962 20.2029 10.5843 20.4066 10.8165 20.7102C11.1242 21.1125 11.6307 21.3335 12.1271 21.3335C12.5836 21.3335 12.9676 20.9675 13.0089 20.513C13.0365 20.2102 13.1567 19.9189 13.0116 19.6286C12.8462 19.2977 12.3548 18.8982 11.978 18.888C11.4013 18.8724 10.7517 19.4968 10.6406 20.0362C10.5838 20.3123 10.67 20.5646 10.8751 20.7581C11.2981 21.1573 11.9025 20.9789 12.3616 20.7581C12.871 20.5131 13.1997 20.0469 13.3632 19.506C13.4438 19.2397 13.3081 19.0204 13.0356 18.9626C12.4075 18.8293 11.4771 19.5584 11.4771 20.204C11.4771 20.3452 11.5779 20.3555 11.7009 20.3052C12.0004 20.1827 12.1347 19.7846 12.0899 19.4794C12.049 19.2018 11.7379 19.2755 11.5757 19.3728C11.265 19.5593 10.9888 19.9689 11.0562 20.3425C11.1608 20.9225 12.6116 20.3893 12.3616 19.6392C12.2344 19.2577 10.9643 20.6569 11.8421 20.6569C12.14 20.6569 12.458 20.4607 12.5214 20.156C12.5522 20.0084 12.4915 20.321 12.5321 20.4224" stroke="#211F1F" stroke-width="0.75" stroke-linecap="round" stroke-linejoin="round"/>
<path d="M10.8043 4.88593C10.7847 4.98668 10.6931 5.2038 10.8736 5.17097C10.9333 5.16012 10.9962 5.09146 10.9962 5.02978C10.9962 4.83101 10.6982 4.98693 10.8043 4.93388" stroke="#211F1F" stroke-width="0.75" stroke-linecap="round" stroke-linejoin="round"/>
<path d="M11.957 2.34436C12.0261 2.44803 12.1969 2.729 12.3673 2.66937C12.4531 2.63933 12.3111 2.54592 12.2927 2.53617C12.1598 2.46583 11.9731 2.48822 12.1488 2.48822" stroke="#211F1F" stroke-width="0.75" stroke-linecap="round" stroke-linejoin="round"/>
<path d="M14.5918 4.16663C14.602 4.56669 14.7423 4.16065 14.6078 4.16663C14.4915 4.1718 14.0403 4.35844 14.352 4.35844" stroke="#211F1F" stroke-width="0.75" stroke-linecap="round" stroke-linejoin="round"/>
<path d="M4.0425 6.37213C4.0533 6.80427 4.20867 6.40533 4.03451 6.42275C3.9824 6.42796 3.65769 6.51599 3.85069 6.51599" stroke="#211F1F" stroke-width="0.75" stroke-linecap="round" stroke-linejoin="round"/>
<path d="M2.3661 8.91394C2.30071 9.28757 2.43119 9.01517 2.25155 9.01517C2.15801 9.01517 2.30096 9.10575 2.3661 9.10575" stroke="#211F1F" stroke-width="0.75" stroke-linecap="round" stroke-linejoin="round"/>
<path d="M7.40234 9.72913C7.4381 9.81326 7.4954 10.0394 7.62079 9.92093C7.63993 9.90286 7.70313 9.81443 7.6794 9.78773C7.65676 9.76227 7.47262 9.82503 7.69006 9.82503" stroke="#211F1F" stroke-width="0.75" stroke-linecap="round" stroke-linejoin="round"/>
<path d="M8.50391 9.2974C8.77014 9.48296 8.85267 9.24945 8.69572 9.24945" stroke="#211F1F" stroke-width="0.75" stroke-linecap="round" stroke-linejoin="round"/>
<path d="M7.25586 8.53015C7.28663 8.56954 7.49562 8.83786 7.49562 8.62606C7.49562 8.56609 7.43828 8.588 7.49562 8.67401" stroke="#211F1F" stroke-width="0.75" stroke-linecap="round" stroke-linejoin="round"/>
<path d="M15.7915 11.0716C15.02 11.1067 15.7093 11.5581 15.8395 11.1675" stroke="#211F1F" stroke-width="0.75" stroke-linecap="round" stroke-linejoin="round"/>
<path d="M16.7988 11.1674C16.8798 11.2416 17.1876 11.5319 17.2677 11.3006C17.3091 11.1809 17.2069 11.1484 17.3743 11.2154" stroke="#211F1F" stroke-width="0.75" stroke-linecap="round" stroke-linejoin="round"/>
<path d="M14.7852 9.00977C14.7893 9.07255 14.974 9.74408 15.1102 9.58519C15.2024 9.47757 15.136 9.39219 15.0729 9.29748" stroke="#211F1F" stroke-width="0.75" stroke-linecap="round" stroke-linejoin="round"/>
<path d="M14.9761 14.812C14.4819 15.1209 15.015 15.1445 15.0614 15.0518C15.1942 14.7861 14.7855 14.8126 14.8802 14.86" stroke="#211F1F" stroke-width="0.75" stroke-linecap="round" stroke-linejoin="round"/>
<path d="M13.9216 15.7231C13.5484 16.0262 13.9782 16.1153 13.9695 15.819C13.9651 15.6696 13.8157 15.6288 13.7404 15.771C13.7147 15.8195 13.9291 15.8467 13.9695 15.8669" stroke="#211F1F" stroke-width="0.75" stroke-linecap="round" stroke-linejoin="round"/>
<path d="M15.1199 17.1615C15.3961 16.6812 14.8921 17.0513 14.9654 17.2468C15.0656 17.5141 15.3597 17.2015 15.3597 17.0177" stroke="#211F1F" stroke-width="0.75" stroke-linecap="round" stroke-linejoin="round"/>
<path d="M19.9648 10.4001C19.9828 10.4898 20.0023 10.7525 20.13 10.7758C20.2137 10.791 20.2357 10.6469 20.2259 10.5946C20.212 10.5206 20.1119 10.4513 20.1567 10.4961" stroke="#211F1F" stroke-width="0.75" stroke-linecap="round" stroke-linejoin="round"/>
<path d="M13.5851 11.7908C13.5669 11.9215 13.6742 12.3032 13.681 12.0199C13.6821 11.9737 13.6905 11.7718 13.633 11.8867" stroke="#211F1F" stroke-width="0.75" stroke-linecap="round" stroke-linejoin="round"/>
<path d="M6.82422 11.743C6.89674 11.952 7.06398 12.2434 7.06398 11.8629C7.06398 11.6923 6.95528 11.8325 7.06398 11.8868" stroke="#211F1F" stroke-width="0.75" stroke-linecap="round" stroke-linejoin="round"/>
<path d="M6.15245 13.7088C6.0938 14.0607 6.34426 14.158 6.34426 13.8047C6.34426 13.6037 6.04877 13.8527 6.24836 13.8527" stroke="#211F1F" stroke-width="0.75" stroke-linecap="round" stroke-linejoin="round"/>
<path d="M8.12012 13.805C8.12328 13.9378 8.09554 14.1365 8.27463 14.1407C8.36038 14.1427 8.52527 14.1277 8.54902 14.0208C8.57565 13.901 8.42086 13.7789 8.35988 13.9009" stroke="#211F1F" stroke-width="0.75" stroke-linecap="round" stroke-linejoin="round"/>
<path d="M3.37305 15.723C3.41856 15.9009 3.47983 16.1015 3.69806 16.1066C3.79731 16.1089 3.80898 16.0457 3.80462 15.9627C3.79565 15.7923 3.50896 15.8708 3.421 15.9148" stroke="#211F1F" stroke-width="0.75" stroke-linecap="round" stroke-linejoin="round"/>
<path d="M8.88692 18.6962C8.88082 18.7415 8.80602 19.2367 8.95885 19.1518C9.05695 19.0973 9.06195 18.9887 9.07873 18.888" stroke="#211F1F" stroke-width="0.75" stroke-linecap="round" stroke-linejoin="round"/>
<path d="M11.14 16.2985C11.173 16.3209 11.3506 16.47 11.3957 16.3838C11.4235 16.3307 11.3457 16.2957 11.3104 16.2879C11.1751 16.2578 11.0393 16.3128 10.9961 16.4424" stroke="#211F1F" stroke-width="0.75" stroke-linecap="round" stroke-linejoin="round"/>
<path d="M16.9897 12.4623C16.9908 12.5072 17.0492 12.8506 17.0377 12.6541C17.0339 12.5895 16.9456 12.5895 16.9418 12.6541C16.9317 12.8247 17.1336 12.7297 17.1336 12.6061" stroke="#211F1F" stroke-width="0.75" stroke-linecap="round" stroke-linejoin="round"/>
<path d="M15.8887 3.87872C16.3767 4.21335 16.2813 3.64231 16.2243 3.63896C16.0848 3.63075 16.1764 3.92381 16.1764 3.73487" stroke="#211F1F" stroke-width="0.75" stroke-linecap="round" stroke-linejoin="round"/>
<path d="M7.68711 20.6622C7.62735 20.9951 7.80263 20.7844 7.85228 20.6142C7.8976 20.4588 7.88124 20.4224 7.7244 20.4224C7.38562 20.4224 7.5902 20.7121 7.63916 20.6142" stroke="#211F1F" stroke-width="0.75" stroke-linecap="round" stroke-linejoin="round"/>
<path d="M7.45215 21.4769C7.55728 22.0493 7.59154 22.1713 8.04431 21.7751C8.22112 21.6204 8.3466 21.2214 8.3466 21.5556C8.3466 22.0472 8.31839 22.3394 8.86423 21.9573C9.06485 21.8169 9.25364 21.6183 9.37357 21.4024C9.42479 21.3102 9.39014 21.589 9.39014 21.6384C9.39014 21.9221 9.39014 22.6907 9.39014 21.9573C9.39014 21.8532 9.38121 21.3783 9.20793 21.361C9.01183 21.3414 8.86761 21.621 8.88079 21.7792C8.93476 22.4268 10.036 22.7436 10.5662 22.6199C10.7789 22.5702 10.9002 22.4086 10.9389 22.2058C10.9473 22.1615 10.9929 21.7823 10.914 21.9739C10.817 22.2096 10.8064 22.4375 10.8064 22.6903C10.8064 22.7337 10.8064 23.0693 10.8064 22.8435C10.8064 22.5203 10.7912 22.2109 10.6945 21.8993C10.6376 21.7159 10.5285 21.4752 10.6573 21.8165C10.7731 22.1234 11.5714 23.252 11.999 23.0257C12.2501 22.8927 12.1706 22.3018 12.0155 22.1312C11.8581 21.958 11.3497 22.5175 11.8333 22.711C12.56 23.0016 13.4655 22.0468 13.6222 21.4355C13.6898 21.172 13.532 21.2216 13.4566 21.448C13.3808 21.6752 13.3173 21.9935 13.4317 22.2223C13.5086 22.3761 13.6542 22.2156 13.7133 22.1395C14.0281 21.7349 13.8422 21.1844 13.7879 20.7316" stroke="#211F1F" stroke-width="0.75" stroke-linecap="round" stroke-linejoin="round"/>
<path d="M13.6383 20.806C13.6074 21.2509 13.5747 22.2034 14.2346 22.2222C14.4893 22.2295 14.603 21.7672 14.6487 21.5845C14.7109 21.3358 14.6818 21.0609 14.6818 20.806C14.6818 20.3835 14.6124 20.9416 14.6197 21.0834C14.6359 21.3988 14.8375 22.3521 15.2408 22.4417C15.6559 22.5339 16.0196 21.5007 16.0649 21.2449C16.1125 20.9762 16.098 20.6968 16.098 20.425C16.098 20.2508 16.0963 20.776 16.1312 20.9468C16.2197 21.3802 16.735 22.7076 16.6902 21.5431C16.667 20.9404 15.8774 19.2779 16.0111 19.866C16.0554 20.0613 17.0929 21.3712 17.1995 21.2201C17.4693 20.8379 17.16 20.2938 16.9676 19.9778C16.9526 19.9531 16.7627 19.6155 16.8351 19.6879C17.1573 20.0101 17.464 20.3919 17.7006 20.7812C17.7948 20.9362 17.8679 21.0743 17.9491 21.2367C18.004 21.3466 18.0503 21.6557 18.1271 21.5597C18.2584 21.3956 18.1956 20.8764 18.1685 20.6901C18.074 20.0403 17.5523 19.3669 17.0836 18.9177C16.601 18.4552 17.7982 20.0494 18.2017 20.5824C18.4249 20.8772 18.759 21.4893 18.8891 20.8391C18.987 20.3496 18.7382 19.8218 18.4211 19.4519C18.0683 19.0403 18.842 20.4514 19.0713 20.9427C19.1721 21.1587 19.1747 21.1128 19.2286 20.8971C19.3173 20.5422 19.3389 20.1276 19.2825 19.7666C19.2115 19.3125 18.9238 18.9008 18.682 18.5202C18.611 18.4084 18.368 18.1569 18.5412 18.4456C18.7029 18.715 19.2318 19.5839 19.5847 19.6217C19.8597 19.6511 19.5341 18.537 19.5061 18.4829C19.3214 18.1258 19.0679 17.807 18.7814 17.5263C18.5078 17.2584 18.9613 17.9207 18.9802 17.9487C19.0436 18.043 19.9549 19.4404 20.1231 19.2821C20.3408 19.0772 20.1767 18.3879 20.1065 18.1558C20.0683 18.0292 20.0292 17.9433 19.974 17.8245C19.9292 17.728 19.7466 17.5563 19.8498 17.5305C19.9652 17.5016 20.5307 18.5241 20.5993 18.6278C20.6009 18.6302 20.9073 19.1676 20.9596 19.0005C21.0629 18.6698 21.0123 18.2453 20.8933 17.928C20.7639 17.5831 20.4565 17.3626 20.1893 17.1288C20.1829 17.1232 19.8962 16.8881 20.1521 17.0915C20.4689 17.3434 20.7977 17.5785 21.1252 17.8162C21.2783 17.9273 22.155 18.8679 22.1356 18.3545C22.1059 17.5676 21.4841 16.9103 21.0341 16.3172C20.7817 15.9844 21.1097 16.5194 21.15 16.5822C21.3272 16.8581 21.5707 17.3291 21.8499 17.5098C21.9514 17.5755 21.8569 16.9378 21.8457 16.9052C21.6652 16.3786 21.2881 15.9665 20.9016 15.5801C20.7344 15.4129 20.2127 14.9325 20.3798 15.0997C20.6659 15.3858 20.9769 15.6447 21.3074 15.8782C21.7606 16.1984 21.8286 16.1553 21.8375 15.6049C21.8466 15.0384 21.6589 14.679 21.3488 14.2053C21.1151 13.8483 21.2329 14.1441 21.2329 14.0065C21.2329 13.8104 20.8267 13.3426 20.8767 13.5551C20.9996 14.0773 21.348 14.5551 21.5807 15.0334C21.7584 15.3987 22.1002 15.6192 22.2516 15.9652C22.5078 16.551 22.5976 15.4584 22.616 15.2902C22.6994 14.5272 22.5019 13.7794 22.119 13.1286C21.8473 12.6667 22.4677 14.1696 22.8147 14.5779C23.0362 14.8386 22.9032 14.4442 22.8727 14.3419C22.6848 13.711 22.2185 13.2435 21.7008 12.8553C21.3861 12.6192 20.9151 12.3937 21.1832 13.0044C21.3578 13.4021 21.6657 13.7209 21.854 14.11C21.89 14.1843 21.8757 14.4094 21.9286 14.346C22.0936 14.148 22.1239 13.8023 22.1522 13.5593C22.2308 12.8834 22.2513 12.2168 22.0031 11.5716C21.8149 11.0823 22.4104 13.5781 22.5042 13.0623C22.618 12.4364 22.3723 11.6028 22.0776 11.0664C22.0246 10.9699 21.1731 9.60606 21.4772 10.2713C21.6534 10.6569 22.0862 11.6194 22.4338 10.9628C22.7161 10.4295 22.8146 10.0718 22.6739 9.50936C22.6196 9.29189 22.5728 9.15627 22.5249 9.53421C22.4909 9.80169 22.5433 10.0981 22.6201 10.3541C22.6639 10.5001 22.7319 10.702 22.7319 10.4287C22.7319 9.80224 22.7183 9.18618 22.3965 8.62733C22.1709 8.23544 22.0286 8.30697 21.8706 8.77226C21.8254 8.90535 21.8375 9.04834 21.8375 9.18636C21.8375 9.33668 21.8784 8.88848 21.8954 8.73913C21.9371 8.37425 21.9651 7.53301 21.7588 7.22353C21.5945 6.97711 21.6452 7.80503 21.5766 8.09314C21.4771 8.51099 21.4223 7.46228 21.4068 7.32291C21.3549 6.85579 21.4166 6.68624 21.3737 7.2815C21.3371 7.78828 21.3157 8.28873 21.3157 8.79711C21.3157 9.07733 21.2102 9.8938 21.324 9.63773C21.8125 8.5385 21.9109 7.23148 21.7629 6.04749" stroke="#211F1F" stroke-width="0.75" stroke-linecap="round" stroke-linejoin="round"/>
</svg>
