<svg width="320" height="135" viewBox="0 0 320 135" fill="none" xmlns="http://www.w3.org/2000/svg">
<g filter="url(#filter0_dd)">
<path d="M272.78 97.9762C291.814 92.5718 295.157 100.703 300.434 92.334C305.643 84.0727 305.405 25.8708 297.994 17.8175C274.147 -8.09483 217.339 10.676 190.632 9.16442C145.944 6.63529 99.5325 0.818497 55.0915 12.3665C34.0501 17.8341 20.2991 8.66079 19.3687 17.8175C18.4589 26.7711 10.857 87.8225 22.0307 95.8862C31.2387 102.531 56.8193 90.0404 69.7253 95.8862C84.186 102.436 106.534 94.0165 129.596 95.8862C175.271 99.5892 227.312 110.886 272.78 97.9762Z" fill="white"/>
</g>
<defs>
<filter id="filter0_dd" x="0" y="0" width="320" height="135" filterUnits="userSpaceOnUse" color-interpolation-filters="sRGB">
<feFlood flood-opacity="0" result="BackgroundImageFix"/>
<feColorMatrix in="SourceAlpha" type="matrix" values="0 0 0 0 0 0 0 0 0 0 0 0 0 0 0 0 0 0 127 0"/>
<feOffset dy="2"/>
<feGaussianBlur stdDeviation="3"/>
<feColorMatrix type="matrix" values="0 0 0 0 0.675 0 0 0 0 0.675 0 0 0 0 0.675 0 0 0 0.1 0"/>
<feBlend mode="normal" in2="BackgroundImageFix" result="effect1_dropShadow"/>
<feColorMatrix in="SourceAlpha" type="matrix" values="0 0 0 0 0 0 0 0 0 0 0 0 0 0 0 0 0 0 127 0"/>
<feOffset dy="15"/>
<feGaussianBlur stdDeviation="8"/>
<feColorMatrix type="matrix" values="0 0 0 0 0.479167 0 0 0 0 0.479167 0 0 0 0 0.479167 0 0 0 0.05 0"/>
<feBlend mode="normal" in2="effect1_dropShadow" result="effect2_dropShadow"/>
<feBlend mode="normal" in="SourceGraphic" in2="effect2_dropShadow" result="shape"/>
</filter>
</defs>
</svg>
