<svg width="24" height="28" viewBox="0 0 24 28" fill="none" xmlns="http://www.w3.org/2000/svg">
<path d="M22.9454 17.4844C20.3947 16.2554 15.8368 14.0158 12.8554 15.0814C11.5798 15.5373 10.3943 16.4588 9.17467 17.0512C5.75939 18.7103 2.46909 23.6048 7.36769 25.7336C10.9838 27.3051 16.0353 27.6595 19.4977 25.3726C21.2332 24.2263 24.4337 20.0566 22.2803 18.3531M5.46404 22.2936C3.96787 22.7234 2.49535 23.2297 1 23.6438M17.3425 15.8417C17.4329 12.4788 20.9997 4.98759 18.5152 2.1633C15.7799 -0.946044 14.7106 2.93677 13.3094 4.98007C12.1772 6.63109 12.0259 8.42898 12.3282 10.3355M12.3282 10.3355C12.4 10.7888 12.4975 11.2482 12.6136 11.7133C12.8896 12.8194 13.587 14.3709 14.5411 15.0203C15.6813 15.7963 13.9497 12.1851 13.0754 11.1101C12.9427 10.9469 12.6819 10.6761 12.3282 10.3355ZM12.3282 10.3355C9.87238 7.97056 2.94262 2.24283 3.38463 5.84591C3.87183 9.81731 8.68595 13.8752 11.5966 16.1778M18.9799 18.4369C18.3786 18.6132 18.2456 18.6548 18.1588 19.2711C18.1248 19.5121 18.0242 19.7927 18.374 19.7928C18.9099 19.793 19.2068 19.4611 18.9253 18.9599C18.88 18.8794 18.7954 18.8719 18.705 18.9049M18.705 18.9049C18.5101 18.9758 18.2882 19.2342 18.3741 19.3536C18.5217 19.5589 18.7476 19.4177 18.8654 19.2639C18.9759 19.1196 18.8435 19.001 18.705 18.9049ZM18.705 18.9049C18.6433 18.862 18.5803 18.8237 18.5371 18.7895M9.47992 17.0721C9.51674 17.3722 9.56686 17.6689 9.61643 17.9644M9.61643 17.9644C9.64097 18.1107 9.66537 18.2567 9.68796 18.4027M9.61643 17.9644C10.0511 18.6313 10.4159 19.3326 10.3943 20.1676C10.3533 21.7538 10.1173 23.6904 9.13196 24.9774C8.7893 25.4249 8.19601 25.7482 8.75838 25.0137C9.18438 24.4573 9.46929 23.8997 9.69482 23.2262C9.81217 22.8758 9.88332 22.5182 9.91773 22.1568M9.61643 17.9644C9.41187 17.6506 9.19185 17.3444 8.98937 17.0354M9.68796 18.4027C9.76619 18.9084 9.82265 19.4142 9.78751 19.9316C9.78461 19.9744 9.78124 20.0169 9.77742 20.0593M9.68796 18.4027C9.85276 18.7718 9.99886 19.1648 10.0608 19.4743C10.2798 20.5677 10.199 21.3357 9.91773 22.1568M9.68796 18.4027C9.56238 18.1215 9.42594 17.8542 9.30759 17.6484C8.8614 16.8724 8.75437 16.5228 9.15798 17.7936C9.38806 18.518 9.62491 19.2835 9.77742 20.0593M9.77742 20.0593C9.66034 21.3583 9.12258 22.4929 8.79597 23.7354C8.65057 24.2885 8.25659 24.8947 8.1733 25.4392C8.06126 26.1717 9.00766 24.2157 9.32381 23.5477C9.56741 23.033 9.77016 22.5876 9.91773 22.1568M9.77742 20.0593C9.91472 20.7577 9.98365 21.4644 9.91773 22.1568M12.914 15.7472C13.0293 16.6045 13.2981 17.4414 13.4355 18.2876M13.4355 18.2876C13.5211 18.8147 13.5557 19.3455 13.4705 19.8872C13.3192 20.8494 13.1268 21.8061 12.9758 22.7661C12.936 23.0195 12.8967 23.2746 12.8449 23.5254M13.4355 18.2876C13.1802 17.3059 12.9066 16.3263 12.8656 15.3086C12.8574 15.1045 13.1619 15.9711 13.2084 16.0777C13.5681 16.9016 13.8636 17.7315 14.1788 18.5732C14.3488 19.0271 14.4996 19.5025 14.5972 19.9874M13.4355 18.2876C13.7175 19.3723 13.9771 20.4596 13.8755 21.6035C13.8075 22.3689 13.3511 22.9582 12.8449 23.5254M12.8449 23.5254C12.7872 23.8045 12.714 24.0782 12.6074 24.3382M12.8449 23.5254C12.3151 24.1189 11.7308 24.6882 11.4801 25.4096C11.3952 25.6538 11.242 25.8334 11.087 26.0358C10.763 26.459 11.6941 25.4052 11.7666 25.3238C12.0443 25.0121 12.3314 24.6824 12.6074 24.3382M12.6074 24.3382C12.5167 24.559 12.402 24.7699 12.2519 24.9659C11.9376 25.3764 11.4253 25.8451 11.2425 26.3345C11.1055 26.7012 11.344 26.5603 11.5164 26.3656C12.0192 25.7975 12.56 25.2408 13.0218 24.6377C13.5812 23.907 14.4285 22.8652 14.6245 21.9423C14.7625 21.2927 14.7268 20.6317 14.5972 19.9874M12.6074 24.3382C13.0936 23.7316 13.5452 23.08 13.8493 22.4028C14.1432 21.7487 14.6177 20.8124 14.5998 20.0679C14.5992 20.0411 14.5983 20.0142 14.5972 19.9874M14.5972 19.9874C14.5483 18.8157 14.0525 17.6343 13.5785 16.5852C13.3525 16.0851 13.295 14.9943 12.8785 14.6647" stroke="#211F1F" stroke-linecap="round" stroke-linejoin="round"/>
</svg>
