<svg width="24" height="24" viewBox="0 0 24 24" fill="none" xmlns="http://www.w3.org/2000/svg">
<path d="M19.3368 10.8609C17.3716 10.9503 13.8461 11.0838 12.3536 12.7035C11.7151 13.3965 11.2816 14.342 10.7214 15.0993C9.15274 17.2202 8.70126 21.2593 12.4009 20.9474C15.1319 20.7171 18.3552 19.2806 19.7511 16.7642C20.4507 15.5029 21.0799 11.9319 19.2068 11.6042" stroke="#211F1F" stroke-linecap="round" stroke-linejoin="round"/>
<path d="M10.123 19.4865C9.34029 20.2358 8.59672 21.0236 7.80944 21.7631" stroke="#211F1F" stroke-linecap="round" stroke-linejoin="round"/>
<path d="M15.3597 11.6974C14.3341 9.63153 14.1208 3.92959 11.6834 3.03143C9.00007 2.04262 9.59039 4.74326 9.38491 6.43851C9.1794 8.134 9.9713 9.47453 11.1216 10.7431C11.6472 11.3227 12.5753 12.0342 13.3713 12.1156C14.3226 12.2129 12.0957 10.5921 11.2119 10.2269C10.1463 9.78654 1.91787 7.87585 3.55448 10.2066C5.13131 12.4522 9.39924 13.3359 11.9312 13.7789" stroke="#211F1F" stroke-linecap="round" stroke-linejoin="round"/>
<path d="M17.2018 12.7336C16.8883 13.0369 16.8198 13.1056 16.9646 13.5071C17.0212 13.6642 17.0495 13.8669 17.2648 13.7527C17.5947 13.5776 17.6707 13.2796 17.3363 13.0681C17.1668 12.961 16.99 13.4219 17.1237 13.4867C17.2805 13.5627 17.3742 13.4034 17.3972 13.2718C17.4284 13.0933 17.1646 13.1132 17.0426 13.0918" stroke="#211F1F" stroke-linecap="round" stroke-linejoin="round"/>
<path d="M10.9159 15.0123C11.2984 15.557 11.7537 16.0353 12.0247 16.6433C12.4031 17.4925 12.4325 18.3836 12.6374 19.2707C12.7258 19.6532 12.6782 20.149 12.802 20.5059C12.9686 20.9861 12.9221 19.4924 12.902 18.9845C12.8567 17.8473 12.7874 17.1774 12.0459 16.2771C11.8033 15.9826 11.3166 15.6163 10.9951 15.4176C10.471 15.0936 10.2927 14.9169 10.9497 15.5544C11.8375 16.4159 12.823 17.4049 13.0269 18.6686C13.1047 19.1501 13.1086 19.5809 13.0253 20.0571C12.9153 20.6856 13.1765 20.2959 13.2436 19.9129C13.4362 18.8116 12.9588 17.5618 12.4741 16.5879C12.0988 15.8339 11.3021 15.5282 10.6022 15.1505" stroke="#211F1F" stroke-linecap="round" stroke-linejoin="round"/>
<path d="M12.6053 13.0877C13.1678 13.8691 13.9618 14.4856 14.279 15.4127C14.4952 16.0448 14.6844 16.687 14.9001 17.3177C15.0743 17.8267 15.2568 18.3438 15.1619 18.8863C15.1004 19.2376 14.9358 19.6888 14.9806 20.0449C15.0143 20.3118 15.1158 20.1485 15.1592 19.9743C15.2861 19.4659 15.44 18.9521 15.5302 18.436C15.6396 17.8107 15.8262 16.9029 15.6501 16.2799C15.4329 15.5116 14.876 14.8962 14.2925 14.3856C13.8278 13.9789 13.3791 13.5729 12.8928 13.1916C12.8299 13.1423 12.3638 12.717 12.4345 12.8379C13.1764 14.1069 14.4985 14.9368 15.0801 16.3196C15.4981 17.3135 14.6777 18.3927 14.8295 19.4072C14.8558 19.5829 14.8192 19.7417 14.7889 19.9149C14.7256 20.2771 14.9598 19.3346 14.9783 19.2617C15.1736 18.4895 15.3688 17.6107 15.321 16.8122C15.2916 16.3201 15.2826 15.598 15.0322 15.1531C14.6293 14.437 13.9272 13.8693 13.2837 13.378C12.9839 13.149 12.5977 12.5072 12.2354 12.4438" stroke="#211F1F" stroke-linecap="round" stroke-linejoin="round"/>
</svg>
