<svg width="57" height="51" viewBox="0 0 57 51" fill="none" xmlns="http://www.w3.org/2000/svg">
<path d="M32.7037 22.9211C26.8435 28.7642 16.6374 33.674 17.4666 43.4128C17.7398 46.6207 23.5755 46.5493 25.6959 46.3923C28.5487 46.1812 31.5446 45.4463 34.3573 44.9075C36.7024 44.4582 38.9938 43.7157 41.2809 43.0417C43.7043 42.3277 46.3342 41.6373 48.5118 40.3161C51.0583 38.7712 54.0058 34.4985 53.0135 31.3313C52.4971 29.6829 50.9079 28.7442 49.4827 28.0164C47.224 26.863 45.1965 25.9224 42.7886 25.1625C40.0649 24.3031 37.6913 24.7162 34.8949 25.1115C33.0896 25.3667 31.6471 24.5224 29.9975 24.2199" stroke="#211F1F" stroke-width="1.70227" stroke-linecap="round" stroke-linejoin="round"/>
<path d="M42.1974 23.7636C39.2474 19.065 35.6108 14.8828 31.6914 10.9679C29.781 9.05956 28.0078 7.58989 25.3819 6.832C24.478 6.57114 19.7783 5.65612 19.6216 7.24691C19.1995 11.533 22.0636 15.3521 25.5443 17.6754C27.6647 19.0907 29.9085 20.3698 32.1019 21.6822C33.7518 22.6694 35.4804 23.2169 37.0291 24.3493C37.259 24.5175 38.1484 24.9606 38.2341 25.2558C38.4485 25.995 37.1661 24.1421 36.5706 23.6545C33.4332 21.0852 30.4035 18.9561 26.5006 17.6263C24.5052 16.9464 3.43131 12.7065 3.28476 15.5829C3.1627 17.9784 5.62251 19.8041 7.19041 21.2725C9.13604 23.0947 12.2636 23.4542 14.8087 24.0154C23.1256 25.8491 32.0878 25.3065 40.401 23.7708" stroke="#211F1F" stroke-width="1.70227" stroke-linecap="round" stroke-linejoin="round"/>
<path d="M19.2932 42.2263C17.418 43.3915 15.4144 44.3478 13.8041 45.8883C12.6321 47.0093 11.8376 48.2788 10.8833 49.5474" stroke="#211F1F" stroke-width="1.70227" stroke-linecap="round" stroke-linejoin="round"/>
<path d="M23.1858 32.6184C25.5343 33.9412 28.0482 35.5682 29.5864 37.8554C30.2887 38.8997 32.1561 41.4322 31.757 42.878C31.5209 43.7336 30.6207 44.3199 30.2749 45.1492C30.1513 45.4455 29.6139 47.9299 29.8482 46.7288C30.3376 44.2203 30.7319 41.6531 29.9645 39.1588C29.2631 36.8791 27.414 34.9103 25.5955 33.4466C24.5699 32.621 21.1947 29.9177 23.9153 32.8207C26.6332 35.7208 29.0195 38.4587 29.827 42.4244C30.0797 43.6652 30.4915 44.9544 30.5278 46.2177C30.5456 46.8394 31.446 44.2231 31.5687 43.8033" stroke="#211F1F" stroke-width="1.70227" stroke-linecap="round" stroke-linejoin="round"/>
<path d="M28.415 26.734C31.9714 29.0384 34.3824 31.6578 35.9904 35.6268C37.0075 38.1375 37.5611 40.9539 38.1421 43.4381C38.4425 44.7225 38.5318 44.2121 38.4344 43.0679C38.2899 41.371 37.8397 39.7239 37.7267 38.0206C37.5681 35.6296 37.099 32.2113 34.8376 30.8657C33.8304 30.2664 32.8457 29.6406 31.8101 29.0891C31.2569 28.7945 30.287 28.7207 29.8785 28.2364C29.5866 27.8902 29.2939 27.5683 29.057 27.1758C27.9021 25.2619 30.4102 28.2628 30.735 28.6302C32.4221 30.539 34.3438 32.3292 35.8798 34.36C37.4412 36.4245 38.7509 38.6029 40.1875 40.7466C40.7338 41.5619 41.1227 42.1994 41.3947 43.1369C41.4429 43.3031 41.487 44.3406 41.3983 44.0351" stroke="#211F1F" stroke-width="1.70227" stroke-linecap="round" stroke-linejoin="round"/>
<path d="M42.4258 29.8637C42.4587 29.9712 44.0475 34.0003 44.2302 31.8523C44.2808 31.2564 43.6453 29.906 43.3963 30.9952C43.2015 31.8471 44.3271 31.9896 43.9849 30.8102C43.8903 30.484 42.958 29.2645 42.8376 30.2009C42.8005 30.4901 43.2246 30.8462 43.3122 31.1481" stroke="#211F1F" stroke-width="1.70227" stroke-linecap="round" stroke-linejoin="round"/>
</svg>
