<svg width="32" height="34" viewBox="0 0 32 34" fill="none" xmlns="http://www.w3.org/2000/svg">
<path d="M10.8479 18.3496C14.9205 18.0856 18.8021 18.1431 22.243 20.5908C23.337 21.3691 24.4186 22.5235 24.9312 23.7865C25.6885 25.6519 24.5304 27.9507 22.858 28.8951C20.9078 29.9964 18.4323 30.167 16.2507 30.0953C12.8938 29.9849 9.28495 29.3249 6.23414 27.8485C4.78055 27.145 2.39867 25.9619 2.0055 24.1976C1.78391 23.2032 2.28345 22.2524 2.80558 21.4395C3.90226 19.732 6.42301 19.0951 8.24788 18.4316C8.92176 18.1866 9.62555 18.1599 10.3277 18.0466C10.473 18.0232 11.0682 18.1144 11.0696 18.1098C11.2367 17.5337 11.2339 16.7774 11.2478 16.1849C11.2755 15.0096 11.6149 13.7858 11.9017 12.6496C12.7015 9.48137 15.1232 7.55689 17.8071 5.89046C18.6383 5.37437 19.4864 4.7335 20.4614 4.51494C21.1706 4.35598 20.5245 7.93094 20.4306 8.29018C19.5077 11.8208 17.1753 14.0076 14.7866 16.5358C14.3808 16.9653 12.4286 19.2474 11.6498 19.0214C11.4389 18.9603 13.6779 16.8623 13.8634 16.6903C15.3492 15.3115 16.3605 13.8488 17.4964 12.203C18.9733 10.0631 22.5142 8.90375 24.8863 10.3429C27.1217 11.6991 24.4725 14.7761 22.9632 15.5458C20.5632 16.7698 17.5623 16.1551 15.3308 17.8339C14.6156 18.3719 13.9356 18.9593 13.2191 19.4936C12.6022 19.9535 12.5118 19.839 13.4087 20.0047" stroke="#211F1F" stroke-linecap="round" stroke-linejoin="round"/>
<path d="M24.3571 25.7651C25.4112 26.3389 26.5249 27.0627 27.3884 27.8948C27.8637 28.3526 28.2434 28.5771 28.8644 28.8636C29.1199 28.9815 29.9359 29.2082 29.6656 29.1298C29.0423 28.949 28.419 28.7682 27.7957 28.5873" stroke="#211F1F" stroke-linecap="round" stroke-linejoin="round"/>
<path d="M21.5117 20.3782C19.6858 21.6721 18.3642 23.2349 17.7672 25.4244C17.4829 26.4668 18.0442 27.1903 18.0404 28.1221C18.0385 28.6113 17.5887 29.0741 17.8641 29.5745C17.8827 29.6084 17.9779 27.708 17.9978 27.3665C18.0612 26.2766 18.1885 25.0839 18.4771 24.0254C18.6765 23.2942 18.8196 22.4019 19.2929 21.7956C19.6616 21.3233 20.1992 21.1208 20.6166 20.7267C21.2056 20.1706 19.4013 21.8068 18.8814 22.428C18.1654 23.2834 17.5473 24.2713 17.3317 25.3825C17.2265 25.9242 17.3784 26.658 17.4368 27.2037C17.4959 27.7561 17.3577 28.4095 17.5078 28.939C17.9138 30.3708 16.6484 29.5002 15.9404 29.101" stroke="#211F1F" stroke-linecap="round" stroke-linejoin="round"/>
<path d="M15.5387 18.9499C13.5602 19.8829 13.4855 22.338 13.4048 24.2099C13.353 25.4105 13.4888 26.5767 13.6222 27.77C13.7497 28.9101 13.5734 28.5793 13.3171 27.7153C12.6718 25.5398 13.0411 22.7898 14.3675 20.8908C14.6607 20.4711 15.0833 20.0636 15.4665 19.723C15.7185 19.499 15.6155 19.5733 15.4137 19.8175C14.7053 20.675 13.9881 21.5306 13.3028 22.4065C12.3069 23.6795 11.1349 26.2175 11.4107 27.9393C11.4841 28.3975 11.6453 29.4461 11.9766 29.6577C12.2079 29.8054 12.2285 28.5094 12.2427 28.3327C12.268 28.0171 12.4025 27.7279 12.4013 27.4073C12.4012 27.3821 12.4086 26.909 12.4911 26.9519C12.8529 27.1402 13.0419 28.9836 13.1521 29.3906C13.2717 29.832 13.3792 30.029 12.8222 29.6834C11.9568 29.1464 11.1768 28.4358 10.3884 27.7948" stroke="#211F1F" stroke-linecap="round" stroke-linejoin="round"/>
<path d="M8.06762 21.648C8.44919 22.005 8.99467 22.3858 9.21265 22.884C9.35957 23.2199 8.70571 22.7202 8.63082 22.6476C8.4382 22.4611 8.1526 21.5379 8.42733 21.9804C8.6642 22.3619 8.3206 22.6312 8.06777 22.1717C7.90449 21.875 8.21656 22.0521 7.86426 22.3492" stroke="#211F1F" stroke-linecap="round" stroke-linejoin="round"/>
</svg>
