<svg width="38" height="36" viewBox="0 0 38 36" fill="none" xmlns="http://www.w3.org/2000/svg">
<path d="M13.0282 26.8211C14.2131 24.2553 16.3031 19.6375 19.2674 18.5306C20.5357 18.057 22.0286 17.9932 23.34 17.6588C27.0123 16.7222 32.6307 18.3125 30.2089 23.0651C28.4212 26.5734 24.7619 30.0823 20.657 30.5743C18.5995 30.8209 13.5076 29.7211 14.0877 27.0513" stroke="#211F1F" stroke-width="0.975955" stroke-linecap="round" stroke-linejoin="round"/>
<path d="M29.5017 19.2424C30.923 18.6075 32.3745 18.0457 33.7852 17.3995" stroke="#211F1F" stroke-width="0.975955" stroke-linecap="round" stroke-linejoin="round"/>
<path d="M16.2982 21.9841C14.1063 19.4991 6.63641 16.1225 6.76362 12.3928C6.90368 8.28662 10.1763 10.5368 12.543 11.183C14.91 11.8293 16.2639 13.6099 17.3275 15.8283C17.8135 16.8419 18.2567 18.4625 17.9332 19.5657C17.5466 20.884 16.5983 17.0423 16.5918 15.6685C16.584 14.012 18.5054 2.02893 20.7183 5.47042C22.8504 8.78619 21.7111 14.9434 20.9271 18.552" stroke="#211F1F" stroke-width="0.975955" stroke-linecap="round" stroke-linejoin="round"/>
<path d="M16.6777 24.9976C17.2512 24.745 17.3797 24.6912 17.8354 25.1016C18.0136 25.262 18.268 25.4097 17.9992 25.6341C17.5874 25.9781 17.1496 25.9176 17.0498 25.358C16.9992 25.0744 17.7082 25.0891 17.722 25.3021C17.7381 25.552 17.4753 25.5902 17.2877 25.5494C17.0332 25.4942 17.2028 25.154 17.2406 24.9801" stroke="#211F1F" stroke-width="0.975955" stroke-linecap="round" stroke-linejoin="round"/>
<path d="M23.1182 17.8702C23.6354 18.6745 24.0247 19.5396 24.6866 20.2299C25.611 21.1939 26.7805 21.7163 27.8495 22.4702C28.3104 22.7952 28.9959 23.0008 29.4036 23.3592C29.952 23.8412 27.99 22.9692 27.3254 22.6669C25.837 21.9899 24.9834 21.5342 24.1879 20.0594C23.9276 19.577 23.7045 18.7309 23.6144 18.1954C23.4677 17.3224 23.3293 16.9894 23.8211 18.2093C24.4856 19.8575 25.2667 21.705 26.8372 22.6618C27.4357 23.0264 28.0066 23.2653 28.6853 23.4128C29.5812 23.6074 28.921 23.7435 28.3752 23.6249C26.8055 23.2839 25.4018 21.9708 24.3691 20.7977C23.5696 19.8895 23.5951 18.6638 23.4722 17.5278" stroke="#211F1F" stroke-width="0.975955" stroke-linecap="round" stroke-linejoin="round"/>
<path d="M19.6432 19.0716C20.3776 20.2438 20.7671 21.6345 21.8284 22.5594C22.552 23.1899 23.3038 23.7899 24.0257 24.419C24.6085 24.9268 25.1973 25.4501 25.9706 25.6181C26.4713 25.7269 27.1609 25.7526 27.6103 26.0055C27.947 26.1949 27.6748 26.2414 27.4195 26.2047C26.6743 26.0977 25.9073 26.0237 25.1717 25.8639C24.2805 25.6702 22.9716 25.426 22.2384 24.8538C21.3341 24.148 20.8174 23.0735 20.4546 22.0201C20.1657 21.1814 19.869 20.3642 19.6255 19.5104C19.594 19.4 19.281 18.5493 19.4036 18.7089C20.6893 20.3843 21.0762 22.5933 22.6004 24.1171C23.6959 25.2123 25.5766 24.7062 26.8439 25.4584C27.0633 25.5887 27.2944 25.6262 27.5413 25.6798C28.0574 25.792 26.6766 25.5924 26.5696 25.5774C25.4364 25.4185 24.1614 25.2015 23.125 24.7048C22.4863 24.3986 21.5306 23.995 21.0744 23.4206C20.3404 22.4961 19.9659 21.2542 19.6613 20.1316C19.5194 19.6085 18.8751 18.7467 18.9873 18.2302" stroke="#211F1F" stroke-width="0.975955" stroke-linecap="round" stroke-linejoin="round"/>
</svg>
