<svg width="31" height="34" viewBox="0 0 31 34" fill="none" xmlns="http://www.w3.org/2000/svg">
<path d="M20.4526 18.2222C16.4099 17.9602 12.5568 18.0172 9.14115 20.447C8.05517 21.2195 6.98151 22.3655 6.47264 23.6191C5.72097 25.4709 6.87056 27.7529 8.53065 28.6903C10.4665 29.7835 12.9239 29.9529 15.0894 29.8817C18.4218 29.7721 22.0041 29.117 25.0325 27.6514C26.4754 26.9531 28.8398 25.7786 29.2301 24.0272C29.4501 23.0402 28.9542 22.0964 28.4359 21.2894C27.3473 19.5944 24.845 18.9622 23.0336 18.3036C22.3646 18.0603 21.666 18.0339 20.969 17.9214C20.8248 17.8982 20.2339 17.9887 20.2326 17.9841C20.0667 17.4123 20.0695 16.6615 20.0556 16.0734C20.0281 14.9067 19.6912 13.6919 19.4065 12.564C18.6126 9.41906 16.2087 7.5087 13.5445 5.8545C12.7194 5.3422 11.8775 4.70603 10.9096 4.48908C10.2056 4.33128 10.847 7.88 10.9402 8.23661C11.8563 11.7413 14.1716 13.912 16.5428 16.4217C16.9457 16.8481 18.8835 19.1134 19.6566 18.8891C19.8659 18.8284 17.6434 16.7459 17.4593 16.575C15.9843 15.2064 14.9804 13.7544 13.8529 12.1207C12.3869 9.99647 8.87196 8.84568 6.5172 10.2743C4.29827 11.6205 6.92805 14.6749 8.42626 15.439C10.8086 16.654 13.7874 16.0439 16.0026 17.7103C16.7125 18.2443 17.3876 18.8275 18.0988 19.3578C18.7112 19.8143 18.8009 19.7007 17.9106 19.8651" stroke="#211F1F" stroke-linecap="round" stroke-linejoin="round"/>
<path d="M7.04238 25.5837C5.996 26.1532 4.89051 26.8716 4.03332 27.6975C3.5616 28.152 3.18464 28.3748 2.56823 28.6591C2.31454 28.7762 1.50455 29.0012 1.77286 28.9234C2.39158 28.7439 3.01031 28.5644 3.62903 28.385" stroke="#211F1F" stroke-linecap="round" stroke-linejoin="round"/>
<path d="M9.86816 20.236C11.6807 21.5204 12.9925 23.0717 13.5852 25.2452C13.8673 26.28 13.3102 26.9982 13.3139 27.9232C13.3159 28.4087 13.7623 28.8681 13.489 29.3649C13.4705 29.3985 13.376 27.5121 13.3562 27.173C13.2933 26.0911 13.167 24.9072 12.8805 23.8565C12.6825 23.1306 12.5405 22.2449 12.0707 21.643C11.7047 21.1742 11.171 20.9732 10.7567 20.582C10.1721 20.0299 11.9631 21.6541 12.4792 22.2708C13.1898 23.1199 13.8034 24.1006 14.0175 25.2036C14.1218 25.7413 13.9711 26.4697 13.9131 27.0115C13.8544 27.5598 13.9916 28.2084 13.8426 28.7341C13.4396 30.1554 14.6957 29.2911 15.3985 28.8948" stroke="#211F1F" stroke-linecap="round" stroke-linejoin="round"/>
<path d="M15.7962 18.8185C17.7602 19.7447 17.8344 22.1817 17.9145 24.0399C17.966 25.2317 17.8312 26.3893 17.6987 27.5738C17.5722 28.7056 17.7472 28.3771 18.0016 27.5195C18.6422 25.36 18.2755 22.6302 16.9588 20.7452C16.6677 20.3285 16.2483 19.924 15.8679 19.5859C15.6177 19.3636 15.72 19.4374 15.9202 19.6797C16.6235 20.5309 17.3355 21.3802 18.0157 22.2497C19.0043 23.5134 20.1678 26.0328 19.894 27.7419C19.8212 28.1967 19.6612 29.2377 19.3323 29.4477C19.1027 29.5943 19.0823 28.3078 19.0682 28.1324C19.0431 27.8191 18.9096 27.532 18.9107 27.2139C18.9108 27.1888 18.9034 26.7192 18.8215 26.7618C18.4624 26.9486 18.2748 28.7785 18.1654 29.1825C18.0467 29.6207 17.94 29.8163 18.4929 29.4732C19.3519 28.9402 20.1262 28.2347 20.9089 27.5985" stroke="#211F1F" stroke-linecap="round" stroke-linejoin="round"/>
<path d="M23.2129 21.4963C22.8342 21.8506 22.2927 22.2286 22.0763 22.7232C21.9305 23.0565 22.5796 22.5605 22.6539 22.4885C22.8451 22.3034 23.1286 21.387 22.8559 21.8262C22.6208 22.2049 22.9619 22.4722 23.2128 22.0162C23.3749 21.7217 23.0651 21.8975 23.4149 22.1923" stroke="#211F1F" stroke-linecap="round" stroke-linejoin="round"/>
</svg>
