<svg width="40" height="41" viewBox="0 0 40 41" fill="none" xmlns="http://www.w3.org/2000/svg">
<path d="M10.5922 25.9424C12.8741 24.1595 16.9422 20.9309 20.162 21.3112C21.5395 21.4739 22.9298 22.1153 24.2815 22.425C28.0666 23.2923 32.4411 27.374 28.0075 30.57C24.7347 32.9292 19.7561 34.412 15.7852 32.937C13.7948 32.1977 9.67024 28.8096 11.4497 26.6486" stroke="#211F1F" stroke-linecap="round" stroke-linejoin="round"/>
<path d="M29.1535 26.755C30.7462 26.8424 32.332 27.0105 33.9204 27.0827" stroke="#211F1F" stroke-linecap="round" stroke-linejoin="round"/>
<path d="M15.8377 23.0671C15.0046 19.7756 9.77996 13.1987 11.6435 9.85971C13.695 6.18367 15.6228 9.7675 17.4766 11.4653C19.3308 13.1632 19.7301 15.4201 19.6599 17.94C19.6278 19.0913 19.2723 20.7757 18.4606 21.6294C17.4906 22.6495 18.4266 18.7045 19.0644 17.4496C19.8334 15.9365 27.199 5.91748 27.6029 10.0903C27.9922 14.1108 24.069 19.1875 21.6637 22.1084" stroke="#211F1F" stroke-linecap="round" stroke-linejoin="round"/>
<path d="M14.7715 25.9904C15.4124 26.029 15.5547 26.0402 15.7776 26.6277C15.8648 26.8575 16.0274 27.1113 15.6774 27.1899C15.141 27.3103 14.7706 27.05 14.9417 26.4932C15.0284 26.2111 15.6676 26.5567 15.5803 26.7573C15.4779 26.9926 15.2206 26.9043 15.0688 26.7792C14.8629 26.6096 15.1767 26.379 15.2926 26.2383" stroke="#211F1F" stroke-linecap="round" stroke-linejoin="round"/>
<path d="M23.98 22.5141C24.0744 23.4893 24.0238 24.46 24.3035 25.3992C24.6941 26.7108 25.5151 27.7348 26.136 28.9226C26.4037 29.4347 26.9319 29.9433 27.1355 30.4608C27.4094 31.157 26.0301 29.4432 25.5661 28.8563C24.5271 27.542 23.9628 26.7268 23.9289 25.0102C23.9178 24.4486 24.1109 23.573 24.2798 23.0429C24.5551 22.1786 24.585 21.8103 24.4616 23.1524C24.2948 24.9657 24.141 27.0151 25.1237 28.6229C25.4982 29.2355 25.9066 29.7208 26.4559 30.1731C27.181 30.7702 26.5157 30.585 26.0739 30.2211C24.8033 29.1749 24.1395 27.3206 23.7481 25.7678C23.4452 24.5656 24.0427 23.4606 24.463 22.3679" stroke="#211F1F" stroke-linecap="round" stroke-linejoin="round"/>
<path d="M20.2503 21.98C20.3702 23.3923 20.0736 24.842 20.6074 26.182C20.9713 27.0956 21.3752 27.9946 21.7383 28.9062C22.0314 29.6419 22.3227 30.3947 22.9486 30.9101C23.3539 31.2438 23.9703 31.5904 24.2613 32.0313C24.4794 32.3617 24.2095 32.2765 23.9941 32.1235C23.3652 31.6768 22.7009 31.25 22.1055 30.7597C21.3842 30.1657 20.3059 29.3298 19.9059 28.4649C19.4125 27.3981 19.4452 26.1768 19.6082 25.047C19.7379 24.1473 19.8504 23.2637 20.0286 22.3715C20.0516 22.2562 20.165 21.3344 20.2019 21.5373C20.5885 23.6663 19.9061 25.8605 20.5809 27.9632C21.066 29.4745 23.0169 29.8945 23.8193 31.1738C23.9582 31.3952 24.1512 31.5377 24.351 31.7023C24.7688 32.0463 23.604 31.2175 23.5135 31.1537C22.5554 30.4779 21.4953 29.6827 20.7836 28.7445C20.345 28.1663 19.6633 27.3507 19.5168 26.6135C19.281 25.4272 19.5217 24.1201 19.7702 22.9544C19.8859 22.4112 19.7026 21.324 20.0469 20.906" stroke="#211F1F" stroke-linecap="round" stroke-linejoin="round"/>
</svg>
