<svg width="41" height="40" viewBox="0 0 41 40" fill="none" xmlns="http://www.w3.org/2000/svg">
<path d="M27.9614 27.4087C26.1157 25.1773 22.836 21.1503 19.6097 20.83C18.2293 20.693 16.7337 21.0208 15.3471 21.033C11.464 21.067 6.31487 24.1138 9.95854 28.1875C12.6482 31.1946 17.1921 33.7122 21.3873 33.1246C23.49 32.83 28.246 30.407 26.9722 27.9142" stroke="#211F1F" stroke-linecap="round" stroke-linejoin="round"/>
<path d="M9.65825 24.2153C8.08399 23.9586 6.49905 23.7822 4.93229 23.5114" stroke="#211F1F" stroke-linecap="round" stroke-linejoin="round"/>
<path d="M23.4547 23.4737C24.9753 20.4379 31.4907 15.1368 30.3879 11.4754C29.1738 7.44452 26.5213 10.5306 24.346 11.7906C22.1705 13.0507 21.2957 15.1691 20.823 17.6453C20.607 18.7765 20.5924 20.498 21.2018 21.5061C21.9301 22.7108 21.8633 18.6569 21.5099 17.2942C21.0839 15.6513 16.0423 4.28398 14.7514 8.27268C13.5077 12.1157 16.2488 17.9166 17.9706 21.286" stroke="#211F1F" stroke-linecap="round" stroke-linejoin="round"/>
<path d="M23.8684 26.5577C23.2341 26.4577 23.0927 26.4381 22.7487 26.964C22.6142 27.1696 22.4009 27.3825 22.7259 27.5345C23.224 27.7673 23.6417 27.5927 23.5941 27.0122C23.57 26.7181 22.8715 26.9183 22.9137 27.1329C22.9631 27.3846 23.2334 27.3537 23.4086 27.2642C23.6462 27.1428 23.3891 26.8502 23.3062 26.6879" stroke="#211F1F" stroke-linecap="round" stroke-linejoin="round"/>
<path d="M15.6213 21.1846C15.3196 22.1167 15.1605 23.0757 14.6856 23.9329C14.0224 25.1299 13.0006 25.9537 12.1391 26.9805C11.7676 27.4231 11.1425 27.8063 10.8325 28.2681C10.4154 28.8892 12.1306 27.5116 12.7099 27.0381C14.0069 25.9777 14.7332 25.3026 15.135 23.6334C15.2665 23.0874 15.266 22.1907 15.2149 21.6367C15.1316 20.7334 15.1815 20.3673 15.0138 21.7045C14.7872 23.5113 14.4972 25.546 13.192 26.9052C12.6947 27.4231 12.1917 27.8093 11.558 28.1331C10.7216 28.5605 11.4111 28.5225 11.9208 28.262C13.3864 27.5131 14.433 25.8447 15.1488 24.4122C15.7029 23.3031 15.3567 22.0956 15.181 20.9381" stroke="#211F1F" stroke-linecap="round" stroke-linejoin="round"/>
<path d="M19.3793 21.4643C18.9587 22.8178 18.9371 24.2974 18.1279 25.4915C17.5763 26.3056 16.9887 27.0969 16.4383 27.9092C15.994 28.5648 15.5477 29.2374 14.8258 29.6063C14.3582 29.8452 13.6818 30.0513 13.3029 30.4194C13.0189 30.6953 13.3008 30.67 13.5441 30.5668C14.2542 30.2657 14.9947 29.9915 15.6815 29.6405C16.5136 29.2153 17.7462 28.6306 18.3227 27.8718C19.0337 26.9358 19.2641 25.7361 19.3476 24.5976C19.4141 23.6911 19.494 22.8039 19.5117 21.8943C19.514 21.7767 19.6012 20.852 19.5216 21.0423C18.6867 23.0386 18.8819 25.3281 17.7711 27.2368C16.9728 28.6086 14.9772 28.5998 13.9188 29.6768C13.7356 29.8633 13.5165 29.961 13.286 30.0788C12.804 30.3251 14.1196 29.7658 14.2217 29.7229C15.3026 29.2687 16.5088 28.7198 17.4054 27.9563C17.958 27.4858 18.7989 26.8357 19.1004 26.1472C19.5854 25.0392 19.6311 23.7109 19.6389 22.5191C19.6425 21.9637 20.055 20.9413 19.8086 20.459" stroke="#211F1F" stroke-linecap="round" stroke-linejoin="round"/>
</svg>
