<svg width="167" height="392" viewBox="0 0 167 392" fill="none" xmlns="http://www.w3.org/2000/svg">
<path d="M5.75781 77.0283H1.9873V84H0.950684V76.1797H5.75781V77.0283ZM5.60205 81.0405C5.60205 80.4712 5.71305 79.9591 5.93506 79.5044C6.16064 79.0496 6.47217 78.6987 6.86963 78.4517C7.27067 78.2046 7.72721 78.0811 8.23926 78.0811C9.0306 78.0811 9.66976 78.355 10.1567 78.9028C10.6473 79.4507 10.8926 80.1794 10.8926 81.0889V81.1587C10.8926 81.7244 10.7834 82.2329 10.5649 82.6841C10.3501 83.1317 10.0404 83.4808 9.63574 83.7314C9.2347 83.9821 8.77279 84.1074 8.25 84.1074C7.46224 84.1074 6.82308 83.8335 6.33252 83.2856C5.84554 82.7378 5.60205 82.0127 5.60205 81.1104V81.0405ZM6.60107 81.1587C6.60107 81.8032 6.74967 82.3206 7.04688 82.7109C7.34766 83.1012 7.7487 83.2964 8.25 83.2964C8.75488 83.2964 9.15592 83.0994 9.45312 82.7056C9.75033 82.3081 9.89893 81.7531 9.89893 81.0405C9.89893 80.4032 9.74674 79.8875 9.44238 79.4937C9.1416 79.0962 8.74056 78.8975 8.23926 78.8975C7.7487 78.8975 7.35303 79.0926 7.05225 79.4829C6.75146 79.8732 6.60107 80.4318 6.60107 81.1587ZM17.0479 81.1587C17.0479 82.0431 16.8455 82.7557 16.4409 83.2964C16.0363 83.8371 15.4884 84.1074 14.7974 84.1074C14.092 84.1074 13.5369 83.8836 13.1323 83.436V86.2344H12.1387V78.1885H13.0464L13.0947 78.833C13.4993 78.3317 14.0615 78.0811 14.7812 78.0811C15.4795 78.0811 16.0309 78.3442 16.4355 78.8706C16.8438 79.397 17.0479 80.1292 17.0479 81.0674V81.1587ZM16.0542 81.0459C16.0542 80.3906 15.9146 79.8732 15.6353 79.4937C15.356 79.1141 14.9728 78.9243 14.4858 78.9243C13.8843 78.9243 13.4331 79.1911 13.1323 79.7246V82.5015C13.4295 83.0314 13.8843 83.2964 14.4966 83.2964C14.9728 83.2964 15.3506 83.1084 15.6299 82.7324C15.9128 82.3529 16.0542 81.7907 16.0542 81.0459ZM21.9033 84C21.846 83.8854 21.7995 83.6813 21.7637 83.3877C21.3018 83.8675 20.7503 84.1074 20.1094 84.1074C19.5365 84.1074 19.0656 83.9463 18.6968 83.624C18.3315 83.2982 18.1489 82.8864 18.1489 82.3887C18.1489 81.7835 18.3781 81.3145 18.8364 80.9814C19.2983 80.6449 19.9465 80.4766 20.7808 80.4766H21.7476V80.02C21.7476 79.6727 21.6437 79.397 21.436 79.1929C21.2284 78.9852 20.9222 78.8813 20.5176 78.8813C20.1631 78.8813 19.8659 78.9709 19.626 79.1499C19.3861 79.3289 19.2661 79.5456 19.2661 79.7998H18.2671C18.2671 79.5098 18.3691 79.2305 18.5732 78.9619C18.7809 78.6898 19.0602 78.4749 19.4111 78.3174C19.7656 78.1598 20.1541 78.0811 20.5767 78.0811C21.2463 78.0811 21.7708 78.2493 22.1504 78.5859C22.5299 78.9189 22.7269 79.3791 22.7412 79.9663V82.6411C22.7412 83.1746 22.8092 83.599 22.9453 83.9141V84H21.9033ZM20.2544 83.2427C20.5659 83.2427 20.8613 83.1621 21.1406 83.001C21.4199 82.8398 21.6222 82.6304 21.7476 82.3726V81.1802H20.9688C19.7513 81.1802 19.1426 81.5365 19.1426 82.249C19.1426 82.5605 19.2464 82.804 19.4541 82.9795C19.6618 83.1549 19.9285 83.2427 20.2544 83.2427ZM31.9526 77.0283H28.1821V79.3701H30.1265C30.9429 79.3809 31.5802 79.5903 32.0386 79.9985C32.4969 80.4067 32.7261 80.9618 32.7261 81.6636C32.7261 82.369 32.4951 82.9312 32.0332 83.3501C31.5713 83.769 30.9411 83.9857 30.1426 84H27.1455V76.1797H31.9526V77.0283ZM28.1821 80.2188V83.1567H30.0674C30.5794 83.1567 30.9769 83.0207 31.2598 82.7485C31.5462 82.4764 31.6895 82.1112 31.6895 81.6528C31.6895 81.2124 31.5516 80.8651 31.2759 80.6108C31.0037 80.3566 30.6152 80.2259 30.1104 80.2188H28.1821ZM36.3784 84.1074C35.5907 84.1074 34.9497 83.8496 34.4556 83.334C33.9614 82.8148 33.7144 82.1219 33.7144 81.2554V81.0728C33.7144 80.4963 33.8236 79.9824 34.042 79.5312C34.264 79.0765 34.5719 78.722 34.9658 78.4678C35.3633 78.21 35.793 78.0811 36.2549 78.0811C37.0104 78.0811 37.5977 78.3299 38.0166 78.8276C38.4355 79.3254 38.645 80.0379 38.645 80.9653V81.3789H34.708C34.7223 81.9518 34.8888 82.4155 35.2075 82.77C35.5298 83.1209 35.938 83.2964 36.4321 83.2964C36.783 83.2964 37.0802 83.2248 37.3237 83.0815C37.5672 82.9383 37.7803 82.7485 37.9629 82.5122L38.5698 82.9849C38.0828 83.7332 37.3524 84.1074 36.3784 84.1074ZM36.2549 78.8975C35.8538 78.8975 35.5173 79.0443 35.2451 79.3379C34.973 79.6279 34.8047 80.0361 34.7402 80.5625H37.6514V80.4873C37.6227 79.9824 37.4867 79.5921 37.2432 79.3164C36.9997 79.0371 36.6702 78.8975 36.2549 78.8975ZM44.564 78.1885V84H43.5649V79.0103H41.5884L41.4702 81.1855C41.4058 82.1846 41.2375 82.8989 40.9653 83.3286C40.6968 83.7583 40.2689 83.9821 39.6816 84H39.2842V83.1245L39.5688 83.103C39.8911 83.0672 40.1221 82.881 40.2617 82.5444C40.4014 82.2078 40.4909 81.5848 40.5303 80.6753L40.6377 78.1885H44.564ZM48.0605 82.5444L49.4141 78.1885H50.4775L48.1411 84.897C47.7795 85.8638 47.2048 86.3472 46.417 86.3472L46.229 86.3311L45.8584 86.2612V85.4556L46.127 85.4771C46.4635 85.4771 46.7249 85.409 46.9111 85.2729C47.1009 85.1369 47.2567 84.888 47.3784 84.5264L47.5986 83.9355L45.5254 78.1885H46.6104L48.0605 82.5444ZM53.3188 80.3101L54.6079 78.1885H55.7681L53.8667 81.062L55.8271 84H54.6777L53.335 81.8247L51.9922 84H50.8374L52.7979 81.062L50.8965 78.1885H52.0459L53.3188 80.3101ZM60.4141 84C60.3568 83.8854 60.3102 83.6813 60.2744 83.3877C59.8125 83.8675 59.2611 84.1074 58.6201 84.1074C58.0472 84.1074 57.5763 83.9463 57.2075 83.624C56.8423 83.2982 56.6597 82.8864 56.6597 82.3887C56.6597 81.7835 56.8888 81.3145 57.3472 80.9814C57.8091 80.6449 58.4572 80.4766 59.2915 80.4766H60.2583V80.02C60.2583 79.6727 60.1545 79.397 59.9468 79.1929C59.7391 78.9852 59.4329 78.8813 59.0283 78.8813C58.6738 78.8813 58.3766 78.9709 58.1367 79.1499C57.8968 79.3289 57.7769 79.5456 57.7769 79.7998H56.7778C56.7778 79.5098 56.8799 79.2305 57.084 78.9619C57.2917 78.6898 57.571 78.4749 57.9219 78.3174C58.2764 78.1598 58.6649 78.0811 59.0874 78.0811C59.757 78.0811 60.2816 78.2493 60.6611 78.5859C61.0407 78.9189 61.2376 79.3791 61.252 79.9663V82.6411C61.252 83.1746 61.32 83.599 61.4561 83.9141V84H60.4141ZM58.7651 83.2427C59.0767 83.2427 59.3721 83.1621 59.6514 83.001C59.9307 82.8398 60.133 82.6304 60.2583 82.3726V81.1802H59.4795C58.262 81.1802 57.6533 81.5365 57.6533 82.249C57.6533 82.5605 57.7572 82.804 57.9648 82.9795C58.1725 83.1549 58.4393 83.2427 58.7651 83.2427ZM62.7773 85.5576L62.2134 85.1709C62.55 84.7018 62.7254 84.2184 62.7397 83.7207V82.8237H63.7119V83.6025C63.7119 83.9642 63.6224 84.3258 63.4434 84.6875C63.2679 85.0492 63.0459 85.3392 62.7773 85.5576ZM72.6226 77.0283H68.8521V79.3701H70.7964C71.6128 79.3809 72.2502 79.5903 72.7085 79.9985C73.1668 80.4067 73.396 80.9618 73.396 81.6636C73.396 82.369 73.165 82.9312 72.7031 83.3501C72.2412 83.769 71.611 83.9857 70.8125 84H67.8154V76.1797H72.6226V77.0283ZM68.8521 80.2188V83.1567H70.7373C71.2493 83.1567 71.6468 83.0207 71.9297 82.7485C72.2161 82.4764 72.3594 82.1112 72.3594 81.6528C72.3594 81.2124 72.2215 80.8651 71.9458 80.6108C71.6737 80.3566 71.2852 80.2259 70.7803 80.2188H68.8521ZM77.0483 84.1074C76.2606 84.1074 75.6196 83.8496 75.1255 83.334C74.6313 82.8148 74.3843 82.1219 74.3843 81.2554V81.0728C74.3843 80.4963 74.4935 79.9824 74.7119 79.5312C74.9339 79.0765 75.2419 78.722 75.6357 78.4678C76.0332 78.21 76.4629 78.0811 76.9248 78.0811C77.6803 78.0811 78.2676 78.3299 78.6865 78.8276C79.1055 79.3254 79.3149 80.0379 79.3149 80.9653V81.3789H75.3779C75.3923 81.9518 75.5588 82.4155 75.8774 82.77C76.1997 83.1209 76.6079 83.2964 77.1021 83.2964C77.453 83.2964 77.7502 83.2248 77.9937 83.0815C78.2371 82.9383 78.4502 82.7485 78.6328 82.5122L79.2397 82.9849C78.7528 83.7332 78.0223 84.1074 77.0483 84.1074ZM76.9248 78.8975C76.5238 78.8975 76.1872 79.0443 75.915 79.3379C75.6429 79.6279 75.4746 80.0361 75.4102 80.5625H78.3213V80.4873C78.2926 79.9824 78.1566 79.5921 77.9131 79.3164C77.6696 79.0371 77.3402 78.8975 76.9248 78.8975ZM85.2339 78.1885V84H84.2349V79.0103H82.2583L82.1401 81.1855C82.0757 82.1846 81.9074 82.8989 81.6353 83.3286C81.3667 83.7583 80.9388 83.9821 80.3516 84H79.9541V83.1245L80.2388 83.103C80.561 83.0672 80.792 82.881 80.9316 82.5444C81.0713 82.2078 81.1608 81.5848 81.2002 80.6753L81.3076 78.1885H85.2339ZM88.7305 82.5444L90.084 78.1885H91.1475L88.811 84.897C88.4494 85.8638 87.8747 86.3472 87.0869 86.3472L86.8989 86.3311L86.5283 86.2612V85.4556L86.7969 85.4771C87.1335 85.4771 87.3949 85.409 87.5811 85.2729C87.7708 85.1369 87.9266 84.888 88.0483 84.5264L88.2686 83.9355L86.1953 78.1885H87.2803L88.7305 82.5444ZM93.9888 80.3101L95.2778 78.1885H96.438L94.5366 81.062L96.4971 84H95.3477L94.0049 81.8247L92.6621 84H91.5073L93.4678 81.062L91.5664 78.1885H92.7158L93.9888 80.3101ZM101.084 84C101.027 83.8854 100.98 83.6813 100.944 83.3877C100.482 83.8675 99.931 84.1074 99.29 84.1074C98.7171 84.1074 98.2463 83.9463 97.8774 83.624C97.5122 83.2982 97.3296 82.8864 97.3296 82.3887C97.3296 81.7835 97.5588 81.3145 98.0171 80.9814C98.479 80.6449 99.1271 80.4766 99.9614 80.4766H100.928V80.02C100.928 79.6727 100.824 79.397 100.617 79.1929C100.409 78.9852 100.103 78.8813 99.6982 78.8813C99.3438 78.8813 99.0465 78.9709 98.8066 79.1499C98.5667 79.3289 98.4468 79.5456 98.4468 79.7998H97.4478C97.4478 79.5098 97.5498 79.2305 97.7539 78.9619C97.9616 78.6898 98.2409 78.4749 98.5918 78.3174C98.9463 78.1598 99.3348 78.0811 99.7573 78.0811C100.427 78.0811 100.951 78.2493 101.331 78.5859C101.711 78.9189 101.908 79.3791 101.922 79.9663V82.6411C101.922 83.1746 101.99 83.599 102.126 83.9141V84H101.084ZM99.4351 83.2427C99.7466 83.2427 100.042 83.1621 100.321 83.001C100.601 82.8398 100.803 82.6304 100.928 82.3726V81.1802H100.149C98.932 81.1802 98.3232 81.5365 98.3232 82.249C98.3232 82.5605 98.4271 82.804 98.6348 82.9795C98.8424 83.1549 99.1092 83.2427 99.4351 83.2427ZM103.447 85.5576L102.883 85.1709C103.22 84.7018 103.395 84.2184 103.41 83.7207V82.8237H104.382V83.6025C104.382 83.9642 104.292 84.3258 104.113 84.6875C103.938 85.0492 103.716 85.3392 103.447 85.5576ZM1.93896 93.9385V97H0.907715V89.1797H3.79199C4.64779 89.1797 5.31738 89.3981 5.80078 89.835C6.28776 90.2718 6.53125 90.8501 6.53125 91.5698C6.53125 92.3289 6.29313 92.9144 5.81689 93.3262C5.34424 93.7344 4.66569 93.9385 3.78125 93.9385H1.93896ZM1.93896 93.0952H3.79199C4.34342 93.0952 4.76595 92.9663 5.05957 92.7085C5.35319 92.4471 5.5 92.0711 5.5 91.5806C5.5 91.1151 5.35319 90.7427 5.05957 90.4634C4.76595 90.1841 4.36312 90.0391 3.85107 90.0283H1.93896V93.0952ZM10.0278 97.1074C9.24007 97.1074 8.59912 96.8496 8.10498 96.334C7.61084 95.8148 7.36377 95.1219 7.36377 94.2554V94.0728C7.36377 93.4963 7.47298 92.9824 7.69141 92.5312C7.91341 92.0765 8.22135 91.722 8.61523 91.4678C9.0127 91.21 9.44238 91.0811 9.9043 91.0811C10.6598 91.0811 11.2471 91.3299 11.666 91.8276C12.085 92.3254 12.2944 93.0379 12.2944 93.9653V94.3789H8.35742C8.37174 94.9518 8.53825 95.4155 8.85693 95.77C9.1792 96.1209 9.5874 96.2964 10.0815 96.2964C10.4325 96.2964 10.7297 96.2248 10.9731 96.0815C11.2166 95.9383 11.4297 95.7485 11.6123 95.5122L12.2192 95.9849C11.7323 96.7332 11.0018 97.1074 10.0278 97.1074ZM9.9043 91.8975C9.50326 91.8975 9.16667 92.0443 8.89453 92.3379C8.6224 92.6279 8.4541 93.0361 8.38965 93.5625H11.3008V93.4873C11.2721 92.9824 11.1361 92.5921 10.8926 92.3164C10.6491 92.0371 10.3197 91.8975 9.9043 91.8975ZM15.7803 96.2964C16.1348 96.2964 16.4445 96.189 16.7095 95.9741C16.9744 95.7593 17.1213 95.4907 17.1499 95.1685H18.0898C18.0719 95.5015 17.9574 95.8184 17.7461 96.1191C17.5348 96.4199 17.252 96.6598 16.8975 96.8389C16.5465 97.0179 16.1742 97.1074 15.7803 97.1074C14.9889 97.1074 14.3587 96.8442 13.8896 96.3179C13.4242 95.7879 13.1914 95.0646 13.1914 94.1479V93.9814C13.1914 93.4157 13.2952 92.9126 13.5029 92.4722C13.7106 92.0317 14.0078 91.6898 14.3945 91.4463C14.7848 91.2028 15.245 91.0811 15.7749 91.0811C16.4266 91.0811 16.9673 91.2762 17.397 91.6665C17.8302 92.0568 18.0612 92.5635 18.0898 93.1865H17.1499C17.1213 92.8105 16.978 92.5026 16.7202 92.2627C16.466 92.0192 16.1509 91.8975 15.7749 91.8975C15.27 91.8975 14.8779 92.0801 14.5986 92.4453C14.3229 92.807 14.1851 93.3315 14.1851 94.019V94.207C14.1851 94.8766 14.3229 95.3923 14.5986 95.7539C14.8743 96.1156 15.2682 96.2964 15.7803 96.2964ZM23.9604 97H22.9668V92.0103H20.292V97H19.293V91.1885H23.9604V97ZM27.457 95.5444L28.8105 91.1885H29.874L27.5376 97.897C27.1759 98.8638 26.6012 99.3472 25.8135 99.3472L25.6255 99.3311L25.2549 99.2612V98.4556L25.5234 98.4771C25.86 98.4771 26.1214 98.409 26.3076 98.2729C26.4974 98.1369 26.6532 97.888 26.7749 97.5264L26.9951 96.9355L24.9219 91.1885H26.0068L27.457 95.5444ZM33.3169 91.5215C34.0474 91.5215 34.631 91.7668 35.0679 92.2573C35.5083 92.7443 35.7285 93.387 35.7285 94.1855V94.2769C35.7285 94.8247 35.6229 95.3153 35.4116 95.7485C35.2004 96.1782 34.896 96.513 34.4985 96.7529C34.1047 96.9893 33.6499 97.1074 33.1343 97.1074C32.3537 97.1074 31.7253 96.8478 31.249 96.3286C30.7728 95.8058 30.5347 95.1058 30.5347 94.2285V93.7451C30.5347 92.5241 30.7603 91.5537 31.2114 90.834C31.6662 90.1143 32.3358 89.6756 33.2202 89.5181C33.7215 89.4285 34.0599 89.3193 34.2354 89.1904C34.4108 89.0615 34.4985 88.8843 34.4985 88.6587H35.3149C35.3149 89.1063 35.2129 89.4554 35.0088 89.7061C34.8083 89.9567 34.486 90.134 34.042 90.2378L33.3008 90.4043C32.71 90.5439 32.266 90.7803 31.9688 91.1133C31.6751 91.4427 31.4836 91.8831 31.394 92.4346C31.9204 91.8258 32.5614 91.5215 33.3169 91.5215ZM33.1235 92.3379C32.6366 92.3379 32.2498 92.5026 31.9634 92.832C31.6769 93.1579 31.5337 93.6108 31.5337 94.1909V94.2769C31.5337 94.8999 31.6769 95.394 31.9634 95.7593C32.2534 96.1209 32.6437 96.3018 33.1343 96.3018C33.6284 96.3018 34.0187 96.1191 34.3052 95.7539C34.5916 95.3887 34.7349 94.8551 34.7349 94.1533C34.7349 93.6055 34.5898 93.1668 34.2998 92.8374C34.0133 92.5044 33.6213 92.3379 33.1235 92.3379ZM41.6099 91.1885V97H40.6108V92.0103H38.6343L38.5161 94.1855C38.4517 95.1846 38.2834 95.8989 38.0112 96.3286C37.7427 96.7583 37.3148 96.9821 36.7275 97H36.3301V96.1245L36.6147 96.103C36.937 96.0672 37.168 95.881 37.3076 95.5444C37.4473 95.2078 37.5368 94.5848 37.5762 93.6753L37.6836 91.1885H41.6099ZM46.9648 91.1885H47.9585V97H46.9648V92.7622L44.2847 97H43.291V91.1885H44.2847V95.4316L46.9648 91.1885ZM51.3638 94.5239H50.6387V97H49.6396V91.1885H50.6387V93.6484H51.2886L53.2437 91.1885H54.4468L52.1479 93.9814L54.6401 97H53.3779L51.3638 94.5239ZM59.082 97C59.0247 96.8854 58.9782 96.6813 58.9424 96.3877C58.4805 96.8675 57.929 97.1074 57.2881 97.1074C56.7152 97.1074 56.2443 96.9463 55.8755 96.624C55.5103 96.2982 55.3276 95.8864 55.3276 95.3887C55.3276 94.7835 55.5568 94.3145 56.0151 93.9814C56.4771 93.6449 57.1252 93.4766 57.9595 93.4766H58.9263V93.02C58.9263 92.6727 58.8224 92.397 58.6147 92.1929C58.4071 91.9852 58.1009 91.8813 57.6963 91.8813C57.3418 91.8813 57.0446 91.9709 56.8047 92.1499C56.5648 92.3289 56.4448 92.5456 56.4448 92.7998H55.4458C55.4458 92.5098 55.5479 92.2305 55.752 91.9619C55.9596 91.6898 56.2389 91.4749 56.5898 91.3174C56.9443 91.1598 57.3328 91.0811 57.7554 91.0811C58.425 91.0811 58.9495 91.2493 59.3291 91.5859C59.7087 91.9189 59.9056 92.3791 59.9199 92.9663V95.6411C59.9199 96.1746 59.988 96.599 60.124 96.9141V97H59.082ZM57.4331 96.2427C57.7446 96.2427 58.04 96.1621 58.3193 96.001C58.5986 95.8398 58.8009 95.6304 58.9263 95.3726V94.1802H58.1475C56.93 94.1802 56.3213 94.5365 56.3213 95.249C56.3213 95.5605 56.4251 95.804 56.6328 95.9795C56.8405 96.1549 57.1073 96.2427 57.4331 96.2427ZM68.6802 94.959H65.4038L64.668 97H63.6045L66.5908 89.1797H67.4932L70.4849 97H69.4268L68.6802 94.959ZM65.7153 94.1104H68.374L67.042 90.4526L65.7153 94.1104ZM76.2427 91.1885V97H75.2437V92.0103H73.2671L73.1489 94.1855C73.0845 95.1846 72.9162 95.8989 72.644 96.3286C72.3755 96.7583 71.9476 96.9821 71.3604 97H70.9629V96.1245L71.2476 96.103C71.5698 96.0672 71.8008 95.881 71.9404 95.5444C72.0801 95.2078 72.1696 94.5848 72.209 93.6753L72.3164 91.1885H76.2427ZM82.1562 91.9941H80.2065V97H79.2129V91.9941H77.3008V91.1885H82.1562V91.9941ZM86.625 97C86.5677 96.8854 86.5212 96.6813 86.4854 96.3877C86.0234 96.8675 85.472 97.1074 84.8311 97.1074C84.2581 97.1074 83.7873 96.9463 83.4185 96.624C83.0532 96.2982 82.8706 95.8864 82.8706 95.3887C82.8706 94.7835 83.0998 94.3145 83.5581 93.9814C84.02 93.6449 84.6681 93.4766 85.5024 93.4766H86.4692V93.02C86.4692 92.6727 86.3654 92.397 86.1577 92.1929C85.95 91.9852 85.6439 91.8813 85.2393 91.8813C84.8848 91.8813 84.5876 91.9709 84.3477 92.1499C84.1077 92.3289 83.9878 92.5456 83.9878 92.7998H82.9888C82.9888 92.5098 83.0908 92.2305 83.2949 91.9619C83.5026 91.6898 83.7819 91.4749 84.1328 91.3174C84.4873 91.1598 84.8758 91.0811 85.2983 91.0811C85.9679 91.0811 86.4925 91.2493 86.8721 91.5859C87.2516 91.9189 87.4486 92.3791 87.4629 92.9663V95.6411C87.4629 96.1746 87.5309 96.599 87.667 96.9141V97H86.625ZM84.9761 96.2427C85.2876 96.2427 85.583 96.1621 85.8623 96.001C86.1416 95.8398 86.3439 95.6304 86.4692 95.3726V94.1802H85.6904C84.473 94.1802 83.8643 94.5365 83.8643 95.249C83.8643 95.5605 83.9681 95.804 84.1758 95.9795C84.3835 96.1549 84.6502 96.2427 84.9761 96.2427ZM92.7803 91.1885H93.7739V97H92.7803V92.7622L90.1001 97H89.1064V91.1885H90.1001V95.4316L92.7803 91.1885ZM93.0488 89.0723C93.0488 89.5055 92.9002 89.8547 92.603 90.1196C92.3094 90.381 91.9227 90.5117 91.4429 90.5117C90.9631 90.5117 90.5745 90.3792 90.2773 90.1143C89.9801 89.8493 89.8315 89.502 89.8315 89.0723H90.6426C90.6426 89.3229 90.7106 89.5199 90.8467 89.6631C90.9827 89.8027 91.1815 89.8726 91.4429 89.8726C91.6935 89.8726 91.8887 89.8027 92.0283 89.6631C92.1715 89.5234 92.2432 89.3265 92.2432 89.0723H93.0488Z" fill="white"/>
<path d="M111.915 68.9189C110.793 68.2832 109.494 67.5191 108.28 67.2598C107.233 67.0362 105.518 66.3515 104.616 65.7632C103.829 65.2492 102.802 64.9385 102.103 64.3036C101.49 63.7474 100.562 63.3369 100.027 62.7609C98.8787 61.5233 97.7518 60.1929 96.6016 58.9318C95.7501 57.9982 94.7884 56.6215 94.2087 55.5078C93.6877 54.5068 92.5631 52.9965 92.7115 51.8177C92.8774 50.4986 93.4488 49.1716 94.0121 48.0189C94.5303 46.9584 95.6383 46.4198 96.3766 45.5708C97.5262 44.2486 99.3686 43.422 100.956 42.745C102.54 42.0693 103.973 41.5116 105.777 41.8968C108.112 42.3956 109.062 45.3796 110.167 47.232C112.47 51.0918 112.187 56.7443 112.177 60.934C112.172 62.7068 112.134 64.5783 111.957 66.3277C111.894 66.9429 111.888 67.5338 112.075 68.1506C112.164 68.4424 112.224 69.0226 111.951 68.6376" stroke="#FEFAF0" stroke-width="2.71488" stroke-linecap="round" stroke-linejoin="round"/>
<path d="M102.58 50.1454C101.294 50.479 100.635 50.88 100.155 52.1033C99.8283 52.9358 99.195 53.9896 99.7925 54.8308C99.9886 55.1068 99.9853 55.4333 100.191 55.7236C100.398 56.0139 100.707 56.1183 100.903 56.3943C101.349 57.0224 102.876 57.1785 103.522 56.769C104.257 56.3028 106.171 55.5645 106.433 54.6489C106.691 53.7456 106.263 52.329 105.863 51.4731C105.464 50.6206 104.674 49.8138 103.726 49.7893C103.015 49.7709 101.219 51.1122 101.799 50.7007" stroke="#FEFAF0" stroke-width="2.71488" stroke-linecap="round" stroke-linejoin="round"/>
<path d="M187.879 28.3826C184.504 30.89 180.562 31.2829 176.725 32.69C173.315 33.9402 169.747 35.4896 166.576 37.2514C165.436 37.8843 164.184 38.4014 163.01 38.9886C161.413 39.7868 159.632 40.4656 158.113 41.3658C155.679 42.8084 153.207 44.1412 150.514 45.2059C147.658 46.335 144.857 47.6354 142.072 48.9546C140.682 49.613 137.409 51.0425 137.409 52.7947C137.409 54.0037 137.615 55.3736 137.369 56.5433C137.071 57.9586 136.861 59.4023 136.861 60.8508C136.861 61.8919 137.105 63.2678 136.82 64.2642C136.733 64.5696 136.801 65.3596 136.576 65.5849C136.216 65.945 135.654 66.057 135.235 66.3265C133.593 67.3823 131.868 68.179 130.034 68.8967C126.833 70.149 123.067 70.6812 120.078 72.4523C117.895 73.746 115.745 75.2281 113.454 76.3737C112.991 76.6055 111.98 77.1996 111.991 77.6944C112.027 79.1748 112.584 80.6495 112.895 82.0526C113.408 84.3577 112.981 86.9693 113.678 89.235C114.533 92.0156 115.933 94.4291 116.014 97.4232C116.091 100.272 118.005 102.394 119.59 104.555C120.284 105.501 120.403 106.214 120.403 107.379C120.403 109.406 120.952 111.45 120.952 113.413" stroke="#FEFAF0" stroke-width="2.71488" stroke-linecap="round" stroke-linejoin="round"/>
<path d="M120.952 113.596C120.598 118.374 120.782 123.429 119.306 128.022C118.358 130.971 118.574 133.942 118.574 137.003" stroke="#FEFAF0" stroke-width="2.71488" stroke-linecap="round" stroke-linejoin="round"/>
<path d="M118.757 137.003C117.836 138.562 116.654 140.054 115.832 141.656C115.261 142.767 114.815 144.016 114.186 145.089C113.639 146.023 113.527 147.435 113.312 148.483C113.019 149.914 112.811 151.338 112.499 152.77C111.95 155.296 110.14 157.191 109.472 159.597C109.15 160.755 108.677 161.879 108.294 163.03C107.96 164.032 107.935 165.114 107.776 166.149C107.587 167.371 107.307 168.781 106.79 169.908C106.204 171.188 105.425 172.433 104.951 173.758C104.619 174.687 104.118 175.55 103.854 176.501C103.46 177.921 103.134 179.339 102.574 180.707C102.045 182 101.383 183.23 100.735 184.466C100.208 185.472 99.8775 186.704 99.2826 187.656C98.9365 188.21 99.0083 189.122 99.0083 189.759C99.0083 190.252 99.0564 191.838 98.6426 192.044" stroke="#FEFAF0" stroke-width="2.71488" stroke-linecap="round" stroke-linejoin="round"/>
<path d="M98.4595 192.227C101.577 194.765 105.086 196.949 107.704 200.049C109.904 202.655 113.042 204.306 115.283 206.866C117.383 209.267 120.607 210.673 123.065 212.667C125.662 214.775 127.901 217.323 130.379 219.565C131.57 220.642 132.687 221.679 133.833 222.846C134.603 223.63 135.52 224.278 136.21 225.132C136.839 225.91 137.567 226.765 138.323 227.418C139.54 228.469 140.686 229.524 141.981 230.486C143.31 231.474 144.88 232.248 146.044 233.412C148.276 235.643 150.4 237.953 152.932 239.852C154.094 240.724 155.186 241.419 156.203 242.474C156.95 243.248 157.365 244.041 158.255 244.708" stroke="#FEFAF0" stroke-width="2.71488" stroke-linecap="round" stroke-linejoin="round"/>
<path d="M158.438 245.074C158.438 246.617 158.621 248.103 158.621 249.646C158.621 251.128 157.985 252.704 157.747 254.177C157.508 255.658 157.341 256.899 157.341 258.413C157.341 259.541 157.341 260.668 157.341 261.796C157.341 264.696 157.158 267.558 157.158 270.451C157.158 272.048 157.341 273.626 157.341 275.246" stroke="#FEFAF0" stroke-width="2.71488" stroke-linecap="round" stroke-linejoin="round"/>
<path d="M157.159 275.612C154.798 277.556 152.536 279.806 149.925 281.372C148.075 282.483 146.551 284.025 144.815 285.304C142.782 286.802 140.533 287.634 138.415 288.971C136.508 290.176 134.466 291.583 132.289 292.253C130.051 292.941 128.929 294.737 127.027 295.869C126.339 296.279 125.594 296.466 124.934 296.906C123.959 297.556 123.028 298.375 121.927 298.836C121.091 299.186 120.557 299.887 119.773 300.258C118.975 300.637 118.077 300.763 117.295 301.172C116.502 301.588 115.983 302.367 115.202 302.757C114.509 303.104 113.706 303.31 113.089 303.773" stroke="#FEFAF0" stroke-width="2.71488" stroke-linecap="round" stroke-linejoin="round"/>
<path d="M113.089 303.956C112.579 304.827 112.086 305.702 111.626 306.597C111.186 307.453 110.37 308.796 109.614 309.401C108.159 310.565 107.079 312.037 106.323 313.739C104.819 317.123 102.247 320.117 100.106 323.116C99.1641 324.434 98.2637 325.759 97.3219 327.078C96.2239 328.615 95.0188 330.241 94.1727 331.934C93.8168 332.645 93.5043 333.28 93.0653 333.955C92.4863 334.846 91.3843 335.47 90.8811 336.333C90.3803 337.191 89.9383 338.188 89.4995 339.065" stroke="#FEFAF0" stroke-width="2.71488" stroke-linecap="round" stroke-linejoin="round"/>
<path d="M89.3164 339.248C89.5019 340.593 89.6235 341.943 89.865 343.271C90.1098 344.618 90.8706 345.716 91.145 347.02C91.285 347.685 91.7083 348.256 91.8765 348.92C92.1303 349.921 92.1166 350.953 92.4251 351.947C92.8636 353.36 93.1069 355.173 93.1565 356.661C93.2484 359.418 94.0189 361.584 95.3509 364.026C95.9571 365.138 96.2972 366.244 96.6715 367.45C96.9539 368.36 96.645 369.317 96.8544 370.233C97.2572 371.996 98.4595 373.304 98.4595 375.171C98.4595 376.379 98.6602 377.827 99.1503 378.929C99.3685 379.42 99.191 380.32 99.191 380.849C99.191 381.62 100.558 389.777 100.719 390.5" stroke="#FEFAF0" stroke-width="2.71488" stroke-linecap="round" stroke-linejoin="round"/>
<path d="M62.938 241.487H61.9873V245H60.9561V237.18H61.9873V240.628H62.793L65.5269 237.18H66.8105L63.8242 240.972L67.0308 245H65.7686L62.938 241.487ZM71.4082 245C71.3509 244.885 71.3044 244.681 71.2686 244.388C70.8066 244.868 70.2552 245.107 69.6143 245.107C69.0413 245.107 68.5705 244.946 68.2017 244.624C67.8364 244.298 67.6538 243.886 67.6538 243.389C67.6538 242.784 67.883 242.314 68.3413 241.981C68.8032 241.645 69.4513 241.477 70.2856 241.477H71.2524V241.02C71.2524 240.673 71.1486 240.397 70.9409 240.193C70.7332 239.985 70.4271 239.881 70.0225 239.881C69.668 239.881 69.3708 239.971 69.1309 240.15C68.891 240.329 68.771 240.546 68.771 240.8H67.772C67.772 240.51 67.874 240.23 68.0781 239.962C68.2858 239.69 68.5651 239.475 68.916 239.317C69.2705 239.16 69.659 239.081 70.0815 239.081C70.7511 239.081 71.2757 239.249 71.6553 239.586C72.0348 239.919 72.2318 240.379 72.2461 240.966V243.641C72.2461 244.175 72.3141 244.599 72.4502 244.914V245H71.4082ZM69.7593 244.243C70.0708 244.243 70.3662 244.162 70.6455 244.001C70.9248 243.84 71.1271 243.63 71.2524 243.373V242.18H70.4736C69.2562 242.18 68.6475 242.536 68.6475 243.249C68.6475 243.561 68.7513 243.804 68.959 243.979C69.1667 244.155 69.4334 244.243 69.7593 244.243ZM78.0361 239.994H76.0864V245H75.0928V239.994H73.1807V239.188H78.0361V239.994ZM80.9688 243.544L82.3223 239.188H83.3857L81.0493 245.897C80.6877 246.864 80.113 247.347 79.3252 247.347L79.1372 247.331L78.7666 247.261V246.456L79.0352 246.477C79.3717 246.477 79.6331 246.409 79.8193 246.273C80.0091 246.137 80.1649 245.888 80.2866 245.526L80.5068 244.936L78.4336 239.188H79.5186L80.9688 243.544ZM89.0254 245H88.0317V242.519H85.3623V245H84.3633V239.188H85.3623V241.708H88.0317V239.188H89.0254V245ZM92.957 244.296C93.3115 244.296 93.6213 244.189 93.8862 243.974C94.1512 243.759 94.298 243.491 94.3267 243.168H95.2666C95.2487 243.501 95.1341 243.818 94.9229 244.119C94.7116 244.42 94.4287 244.66 94.0742 244.839C93.7233 245.018 93.3509 245.107 92.957 245.107C92.1657 245.107 91.5355 244.844 91.0664 244.318C90.6009 243.788 90.3682 243.065 90.3682 242.148V241.981C90.3682 241.416 90.472 240.913 90.6797 240.472C90.8874 240.032 91.1846 239.69 91.5713 239.446C91.9616 239.203 92.4217 239.081 92.9517 239.081C93.6034 239.081 94.144 239.276 94.5737 239.667C95.007 240.057 95.238 240.563 95.2666 241.187H94.3267C94.298 240.811 94.1548 240.503 93.897 240.263C93.6427 240.019 93.3276 239.897 92.9517 239.897C92.4468 239.897 92.0547 240.08 91.7754 240.445C91.4997 240.807 91.3618 241.332 91.3618 242.019V242.207C91.3618 242.877 91.4997 243.392 91.7754 243.754C92.0511 244.116 92.445 244.296 92.957 244.296ZM98.1938 242.524H97.4688V245H96.4697V239.188H97.4688V241.648H98.1187L100.074 239.188H101.277L98.978 241.981L101.47 245H100.208L98.1938 242.524ZM106.084 239.188H107.078V245H106.084V240.762L103.404 245H102.41V239.188H103.404V243.432L106.084 239.188ZM112.433 239.188H113.426V245H112.433V240.762L109.752 245H108.759V239.188H109.752V243.432L112.433 239.188ZM112.701 237.072C112.701 237.506 112.553 237.855 112.255 238.12C111.962 238.381 111.575 238.512 111.095 238.512C110.615 238.512 110.227 238.379 109.93 238.114C109.632 237.849 109.484 237.502 109.484 237.072H110.295C110.295 237.323 110.363 237.52 110.499 237.663C110.635 237.803 110.834 237.873 111.095 237.873C111.346 237.873 111.541 237.803 111.681 237.663C111.824 237.523 111.896 237.326 111.896 237.072H112.701ZM64.5063 253.01H61.8262V258H60.8271V252.188H64.5063V253.01ZM65.0005 255.041C65.0005 254.471 65.1115 253.959 65.3335 253.504C65.5591 253.05 65.8706 252.699 66.2681 252.452C66.6691 252.205 67.1257 252.081 67.6377 252.081C68.429 252.081 69.0682 252.355 69.5552 252.903C70.0457 253.451 70.291 254.179 70.291 255.089V255.159C70.291 255.724 70.1818 256.233 69.9634 256.684C69.7485 257.132 69.4388 257.481 69.0342 257.731C68.6331 257.982 68.1712 258.107 67.6484 258.107C66.8607 258.107 66.2215 257.833 65.731 257.286C65.244 256.738 65.0005 256.013 65.0005 255.11V255.041ZM65.9995 255.159C65.9995 255.803 66.1481 256.321 66.4453 256.711C66.7461 257.101 67.1471 257.296 67.6484 257.296C68.1533 257.296 68.5544 257.099 68.8516 256.706C69.1488 256.308 69.2974 255.753 69.2974 255.041C69.2974 254.403 69.1452 253.888 68.8408 253.494C68.54 253.096 68.139 252.897 67.6377 252.897C67.1471 252.897 66.7515 253.093 66.4507 253.483C66.1499 253.873 65.9995 254.432 65.9995 255.159ZM73.8682 257.296C74.2227 257.296 74.5324 257.189 74.7974 256.974C75.0623 256.759 75.2091 256.491 75.2378 256.168H76.1777C76.1598 256.501 76.0452 256.818 75.834 257.119C75.6227 257.42 75.3398 257.66 74.9854 257.839C74.6344 258.018 74.262 258.107 73.8682 258.107C73.0768 258.107 72.4466 257.844 71.9775 257.318C71.512 256.788 71.2793 256.065 71.2793 255.148V254.981C71.2793 254.416 71.3831 253.913 71.5908 253.472C71.7985 253.032 72.0957 252.69 72.4824 252.446C72.8727 252.203 73.3328 252.081 73.8628 252.081C74.5145 252.081 75.0552 252.276 75.4849 252.667C75.9181 253.057 76.1491 253.563 76.1777 254.187H75.2378C75.2091 253.811 75.0659 253.503 74.8081 253.263C74.5539 253.019 74.2388 252.897 73.8628 252.897C73.3579 252.897 72.9658 253.08 72.6865 253.445C72.4108 253.807 72.2729 254.332 72.2729 255.019V255.207C72.2729 255.877 72.4108 256.392 72.6865 256.754C72.9622 257.116 73.3561 257.296 73.8682 257.296ZM79.1963 256.544L80.5498 252.188H81.6133L79.2769 258.897C78.9152 259.864 78.3405 260.347 77.5527 260.347L77.3647 260.331L76.9941 260.261V259.456L77.2627 259.477C77.5993 259.477 77.8607 259.409 78.0469 259.273C78.2367 259.137 78.3924 258.888 78.5142 258.526L78.7344 257.936L76.6611 252.188H77.7461L79.1963 256.544ZM82.1558 257.189L82.4995 256.765C82.8862 256.263 83.1064 255.511 83.1602 254.509L83.2515 252.188H86.9951V257.189H87.7417V259.708H86.748V258H82.6929V259.708H81.6992L81.7046 257.189H82.1558ZM83.332 257.189H86.0015V253.107H84.2129L84.1538 254.493C84.0929 255.649 83.819 256.548 83.332 257.189ZM92.4307 258C92.3734 257.885 92.3268 257.681 92.291 257.388C91.8291 257.868 91.2777 258.107 90.6367 258.107C90.0638 258.107 89.5929 257.946 89.2241 257.624C88.8589 257.298 88.6763 256.886 88.6763 256.389C88.6763 255.784 88.9054 255.314 89.3638 254.981C89.8257 254.645 90.4738 254.477 91.3081 254.477H92.2749V254.02C92.2749 253.673 92.1711 253.397 91.9634 253.193C91.7557 252.985 91.4495 252.881 91.0449 252.881C90.6904 252.881 90.3932 252.971 90.1533 253.15C89.9134 253.329 89.7935 253.546 89.7935 253.8H88.7944C88.7944 253.51 88.8965 253.23 89.1006 252.962C89.3083 252.69 89.5876 252.475 89.9385 252.317C90.293 252.16 90.6815 252.081 91.104 252.081C91.7736 252.081 92.2982 252.249 92.6777 252.586C93.0573 252.919 93.2542 253.379 93.2686 253.966V256.641C93.2686 257.175 93.3366 257.599 93.4727 257.914V258H92.4307ZM90.7817 257.243C91.0933 257.243 91.3887 257.162 91.668 257.001C91.9473 256.84 92.1496 256.63 92.2749 256.373V255.18H91.4961C90.2786 255.18 89.6699 255.536 89.6699 256.249C89.6699 256.561 89.7738 256.804 89.9814 256.979C90.1891 257.155 90.4559 257.243 90.7817 257.243ZM99.7354 255.159C99.7354 256.043 99.533 256.756 99.1284 257.296C98.7238 257.837 98.1759 258.107 97.4849 258.107C96.7795 258.107 96.2244 257.884 95.8198 257.436V260.234H94.8262V252.188H95.7339L95.7822 252.833C96.1868 252.332 96.749 252.081 97.4688 252.081C98.167 252.081 98.7184 252.344 99.123 252.871C99.5312 253.397 99.7354 254.129 99.7354 255.067V255.159ZM98.7417 255.046C98.7417 254.391 98.6021 253.873 98.3228 253.494C98.0435 253.114 97.6603 252.924 97.1733 252.924C96.5718 252.924 96.1206 253.191 95.8198 253.725V256.501C96.117 257.031 96.5718 257.296 97.1841 257.296C97.6603 257.296 98.0381 257.108 98.3174 256.732C98.6003 256.353 98.7417 255.791 98.7417 255.046ZM103.334 257.296C103.688 257.296 103.998 257.189 104.263 256.974C104.528 256.759 104.675 256.491 104.704 256.168H105.644C105.626 256.501 105.511 256.818 105.3 257.119C105.089 257.42 104.806 257.66 104.451 257.839C104.1 258.018 103.728 258.107 103.334 258.107C102.543 258.107 101.912 257.844 101.443 257.318C100.978 256.788 100.745 256.065 100.745 255.148V254.981C100.745 254.416 100.849 253.913 101.057 253.472C101.264 253.032 101.562 252.69 101.948 252.446C102.339 252.203 102.799 252.081 103.329 252.081C103.98 252.081 104.521 252.276 104.951 252.667C105.384 253.057 105.615 253.563 105.644 254.187H104.704C104.675 253.811 104.532 253.503 104.274 253.263C104.02 253.019 103.705 252.897 103.329 252.897C102.824 252.897 102.432 253.08 102.152 253.445C101.877 253.807 101.739 254.332 101.739 255.019V255.207C101.739 255.877 101.877 256.392 102.152 256.754C102.428 257.116 102.822 257.296 103.334 257.296ZM111.079 252.994H109.129V258H108.136V252.994H106.224V252.188H111.079V252.994ZM112.137 258V252.188H114.404C115.177 252.188 115.77 252.325 116.182 252.597C116.597 252.865 116.805 253.261 116.805 253.784C116.805 254.052 116.724 254.296 116.563 254.514C116.402 254.729 116.164 254.894 115.849 255.008C116.2 255.091 116.481 255.252 116.692 255.492C116.907 255.732 117.014 256.018 117.014 256.351C117.014 256.885 116.817 257.293 116.423 257.576C116.033 257.859 115.48 258 114.764 258H112.137ZM113.131 255.449V257.2H114.774C115.19 257.2 115.5 257.123 115.704 256.969C115.911 256.815 116.015 256.598 116.015 256.319C116.015 255.739 115.589 255.449 114.737 255.449H113.131ZM113.131 254.654H114.415C115.346 254.654 115.811 254.382 115.811 253.837C115.811 253.293 115.371 253.012 114.49 252.994H113.131V254.654ZM120.742 258.107C119.954 258.107 119.313 257.85 118.819 257.334C118.325 256.815 118.078 256.122 118.078 255.255V255.073C118.078 254.496 118.187 253.982 118.405 253.531C118.627 253.076 118.935 252.722 119.329 252.468C119.727 252.21 120.156 252.081 120.618 252.081C121.374 252.081 121.961 252.33 122.38 252.828C122.799 253.325 123.008 254.038 123.008 254.965V255.379H119.071C119.086 255.952 119.252 256.416 119.571 256.77C119.893 257.121 120.301 257.296 120.795 257.296C121.146 257.296 121.444 257.225 121.687 257.082C121.931 256.938 122.144 256.749 122.326 256.512L122.933 256.985C122.446 257.733 121.716 258.107 120.742 258.107ZM120.618 252.897C120.217 252.897 119.881 253.044 119.608 253.338C119.336 253.628 119.168 254.036 119.104 254.562H122.015V254.487C121.986 253.982 121.85 253.592 121.606 253.316C121.363 253.037 121.034 252.897 120.618 252.897ZM128.911 258H127.917V255.519H125.248V258H124.249V252.188H125.248V254.708H127.917V252.188H128.911V258ZM135.26 258H134.266V255.519H131.597V258H130.598V252.188H131.597V254.708H134.266V252.188H135.26V258ZM137.945 254.192H139.455C140.113 254.199 140.634 254.371 141.018 254.708C141.401 255.044 141.592 255.501 141.592 256.077C141.592 256.657 141.395 257.123 141.001 257.474C140.608 257.825 140.078 258 139.412 258H136.952V252.188H137.945V254.192ZM143.666 258H142.667V252.188H143.666V258ZM137.945 255.003V257.189H139.422C139.795 257.189 140.083 257.094 140.287 256.904C140.491 256.711 140.593 256.448 140.593 256.115C140.593 255.792 140.493 255.529 140.292 255.325C140.096 255.118 139.818 255.01 139.46 255.003H137.945ZM149.16 252.188H150.154V258H149.16V253.762L146.48 258H145.486V252.188H146.48V256.432L149.16 252.188ZM149.429 250.072C149.429 250.506 149.28 250.855 148.983 251.12C148.689 251.381 148.303 251.512 147.823 251.512C147.343 251.512 146.954 251.379 146.657 251.114C146.36 250.849 146.211 250.502 146.211 250.072H147.022C147.022 250.323 147.09 250.52 147.227 250.663C147.363 250.803 147.561 250.873 147.823 250.873C148.073 250.873 148.269 250.803 148.408 250.663C148.551 250.523 148.623 250.326 148.623 250.072H149.429ZM65.5054 271H64.5117V266.01H61.8369V271H60.8379V265.188H65.5054V271ZM72.0098 268.159C72.0098 269.043 71.8075 269.756 71.4028 270.296C70.9982 270.837 70.4504 271.107 69.7593 271.107C69.0539 271.107 68.4989 270.884 68.0942 270.436V273.234H67.1006V265.188H68.0083L68.0566 265.833C68.4613 265.332 69.0234 265.081 69.7432 265.081C70.4414 265.081 70.9928 265.344 71.3975 265.871C71.8057 266.397 72.0098 267.129 72.0098 268.067V268.159ZM71.0161 268.046C71.0161 267.391 70.8765 266.873 70.5972 266.494C70.3179 266.114 69.9347 265.924 69.4478 265.924C68.8462 265.924 68.395 266.191 68.0942 266.725V269.501C68.3914 270.031 68.8462 270.296 69.4585 270.296C69.9347 270.296 70.3125 270.108 70.5918 269.732C70.8747 269.353 71.0161 268.791 71.0161 268.046ZM77.0371 265.188H78.0308V271H77.0371V266.762L74.3569 271H73.3633V265.188H74.3569V269.432L77.0371 265.188ZM84.5352 268.159C84.5352 269.043 84.3328 269.756 83.9282 270.296C83.5236 270.837 82.9757 271.107 82.2847 271.107C81.5793 271.107 81.0243 270.884 80.6196 270.436V273.234H79.626V265.188H80.5337L80.582 265.833C80.9867 265.332 81.5488 265.081 82.2686 265.081C82.9668 265.081 83.5182 265.344 83.9229 265.871C84.3311 266.397 84.5352 267.129 84.5352 268.067V268.159ZM83.5415 268.046C83.5415 267.391 83.4019 266.873 83.1226 266.494C82.8433 266.114 82.4601 265.924 81.9731 265.924C81.3716 265.924 80.9204 266.191 80.6196 266.725V269.501C80.9168 270.031 81.3716 270.296 81.9839 270.296C82.4601 270.296 82.8379 270.108 83.1172 269.732C83.4001 269.353 83.5415 268.791 83.5415 268.046ZM85.5396 268.041C85.5396 267.471 85.6506 266.959 85.8726 266.504C86.0981 266.05 86.4097 265.699 86.8071 265.452C87.2082 265.205 87.6647 265.081 88.1768 265.081C88.9681 265.081 89.6073 265.355 90.0942 265.903C90.5848 266.451 90.8301 267.179 90.8301 268.089V268.159C90.8301 268.724 90.7209 269.233 90.5024 269.684C90.2876 270.132 89.9779 270.481 89.5732 270.731C89.1722 270.982 88.7103 271.107 88.1875 271.107C87.3997 271.107 86.7606 270.833 86.27 270.286C85.783 269.738 85.5396 269.013 85.5396 268.11V268.041ZM86.5386 268.159C86.5386 268.803 86.6872 269.321 86.9844 269.711C87.2852 270.101 87.6862 270.296 88.1875 270.296C88.6924 270.296 89.0934 270.099 89.3906 269.706C89.6878 269.308 89.8364 268.753 89.8364 268.041C89.8364 267.403 89.6842 266.888 89.3799 266.494C89.0791 266.096 88.6781 265.897 88.1768 265.897C87.6862 265.897 87.2905 266.093 86.9897 266.483C86.689 266.873 86.5386 267.432 86.5386 268.159ZM91.6411 270.189L91.9849 269.765C92.3716 269.263 92.5918 268.511 92.6455 267.509L92.7368 265.188H96.4805V270.189H97.2271V272.708H96.2334V271H92.1782V272.708H91.1846L91.1899 270.189H91.6411ZM92.8174 270.189H95.4868V266.107H93.6982L93.6392 267.493C93.5783 268.649 93.3044 269.548 92.8174 270.189ZM103.076 271H102.083V268.519H99.4131V271H98.4141V265.188H99.4131V267.708H102.083V265.188H103.076V271ZM105.762 267.192H107.271C107.93 267.199 108.451 267.371 108.834 267.708C109.217 268.044 109.409 268.501 109.409 269.077C109.409 269.657 109.212 270.123 108.818 270.474C108.424 270.825 107.894 271 107.228 271H104.768V265.188H105.762V267.192ZM111.482 271H110.483V265.188H111.482V271ZM105.762 268.003V270.189H107.239C107.611 270.189 107.899 270.094 108.104 269.904C108.308 269.711 108.41 269.448 108.41 269.115C108.41 268.792 108.309 268.529 108.109 268.325C107.912 268.118 107.634 268.01 107.276 268.003H105.762ZM116.977 265.188H117.97V271H116.977V266.762L114.296 271H113.303V265.188H114.296V269.432L116.977 265.188ZM117.245 263.072C117.245 263.506 117.097 263.855 116.799 264.12C116.506 264.381 116.119 264.512 115.639 264.512C115.159 264.512 114.771 264.379 114.474 264.114C114.176 263.849 114.028 263.502 114.028 263.072H114.839C114.839 263.323 114.907 263.52 115.043 263.663C115.179 263.803 115.378 263.873 115.639 263.873C115.89 263.873 116.085 263.803 116.225 263.663C116.368 263.523 116.439 263.326 116.439 263.072H117.245ZM63.9478 279.778C63.9478 279.506 63.8439 279.291 63.6362 279.134C63.4285 278.973 63.1439 278.892 62.7822 278.892C62.4313 278.892 62.1377 278.983 61.9014 279.166C61.6686 279.349 61.5522 279.563 61.5522 279.811H60.564C60.564 279.306 60.7752 278.892 61.1978 278.57C61.6203 278.248 62.1484 278.086 62.7822 278.086C63.4626 278.086 63.9925 278.233 64.3721 278.527C64.7516 278.817 64.9414 279.232 64.9414 279.773C64.9414 280.034 64.8626 280.274 64.7051 280.493C64.5475 280.711 64.3237 280.885 64.0337 281.014C64.7104 281.243 65.0488 281.694 65.0488 282.367C65.0488 282.901 64.8429 283.323 64.4312 283.635C64.0194 283.946 63.4697 284.102 62.7822 284.102C62.1126 284.102 61.5594 283.939 61.1226 283.613C60.6893 283.284 60.4727 282.84 60.4727 282.281H61.4609C61.4609 282.564 61.5863 282.808 61.8369 283.012C62.0911 283.212 62.4062 283.312 62.7822 283.312C63.1618 283.312 63.4679 283.225 63.7007 283.049C63.9334 282.874 64.0498 282.646 64.0498 282.367C64.0498 282.041 63.9513 281.809 63.7544 281.669C63.561 281.526 63.2585 281.454 62.8467 281.454H61.853V280.616H62.9326C63.6094 280.598 63.9478 280.319 63.9478 279.778ZM69.9258 284C69.8685 283.885 69.8219 283.681 69.7861 283.388C69.3242 283.868 68.7728 284.107 68.1318 284.107C67.5589 284.107 67.0881 283.946 66.7192 283.624C66.354 283.298 66.1714 282.886 66.1714 282.389C66.1714 281.784 66.4006 281.314 66.8589 280.981C67.3208 280.645 67.9689 280.477 68.8032 280.477H69.77V280.02C69.77 279.673 69.6662 279.397 69.4585 279.193C69.2508 278.985 68.9447 278.881 68.54 278.881C68.1855 278.881 67.8883 278.971 67.6484 279.15C67.4085 279.329 67.2886 279.546 67.2886 279.8H66.2896C66.2896 279.51 66.3916 279.23 66.5957 278.962C66.8034 278.69 67.0827 278.475 67.4336 278.317C67.7881 278.16 68.1766 278.081 68.5991 278.081C69.2687 278.081 69.7933 278.249 70.1729 278.586C70.5524 278.919 70.7493 279.379 70.7637 279.966V282.641C70.7637 283.175 70.8317 283.599 70.9678 283.914V284H69.9258ZM68.2769 283.243C68.5884 283.243 68.8838 283.162 69.1631 283.001C69.4424 282.84 69.6447 282.63 69.77 282.373V281.18H68.9912C67.7738 281.18 67.165 281.536 67.165 282.249C67.165 282.561 67.2689 282.804 67.4766 282.979C67.6842 283.155 67.951 283.243 68.2769 283.243ZM77.0747 284H76.0811V279.01H73.4062V284H72.4072V278.188H77.0747V284ZM78.4067 281.041C78.4067 280.471 78.5177 279.959 78.7397 279.504C78.9653 279.05 79.2769 278.699 79.6743 278.452C80.0754 278.205 80.5319 278.081 81.0439 278.081C81.8353 278.081 82.4744 278.355 82.9614 278.903C83.452 279.451 83.6973 280.179 83.6973 281.089V281.159C83.6973 281.724 83.5881 282.233 83.3696 282.684C83.1548 283.132 82.8451 283.481 82.4404 283.731C82.0394 283.982 81.5775 284.107 81.0547 284.107C80.2669 284.107 79.6278 283.833 79.1372 283.286C78.6502 282.738 78.4067 282.013 78.4067 281.11V281.041ZM79.4058 281.159C79.4058 281.803 79.5544 282.321 79.8516 282.711C80.1523 283.101 80.5534 283.296 81.0547 283.296C81.5596 283.296 81.9606 283.099 82.2578 282.706C82.555 282.308 82.7036 281.753 82.7036 281.041C82.7036 280.403 82.5514 279.888 82.2471 279.494C81.9463 279.096 81.5452 278.897 81.0439 278.897C80.5534 278.897 80.1577 279.093 79.8569 279.483C79.5562 279.873 79.4058 280.432 79.4058 281.159ZM85.0347 284V278.188H87.3013C88.0747 278.188 88.6673 278.325 89.0791 278.597C89.4945 278.865 89.7021 279.261 89.7021 279.784C89.7021 280.052 89.6216 280.296 89.4604 280.514C89.2993 280.729 89.0612 280.894 88.7461 281.008C89.097 281.091 89.3781 281.252 89.5894 281.492C89.8042 281.732 89.9116 282.018 89.9116 282.351C89.9116 282.885 89.7147 283.293 89.3208 283.576C88.9305 283.859 88.3773 284 87.6611 284H85.0347ZM86.0283 281.449V283.2H87.6719C88.0872 283.2 88.397 283.123 88.6011 282.969C88.8088 282.815 88.9126 282.598 88.9126 282.319C88.9126 281.739 88.4865 281.449 87.6343 281.449H86.0283ZM86.0283 280.654H87.312C88.243 280.654 88.7085 280.382 88.7085 279.837C88.7085 279.293 88.2681 279.012 87.3872 278.994H86.0283V280.654ZM93.6392 284.107C92.8514 284.107 92.2104 283.85 91.7163 283.334C91.2222 282.815 90.9751 282.122 90.9751 281.255V281.073C90.9751 280.496 91.0843 279.982 91.3027 279.531C91.5247 279.076 91.8327 278.722 92.2266 278.468C92.624 278.21 93.0537 278.081 93.5156 278.081C94.2712 278.081 94.8584 278.33 95.2773 278.828C95.6963 279.325 95.9058 280.038 95.9058 280.965V281.379H91.9688C91.9831 281.952 92.1496 282.416 92.4683 282.77C92.7905 283.121 93.1987 283.296 93.6929 283.296C94.0438 283.296 94.341 283.225 94.5845 283.082C94.828 282.938 95.041 282.749 95.2236 282.512L95.8306 282.985C95.3436 283.733 94.6131 284.107 93.6392 284.107ZM93.5156 278.897C93.1146 278.897 92.778 279.044 92.5059 279.338C92.2337 279.628 92.0654 280.036 92.001 280.562H94.9121V280.487C94.8835 279.982 94.7474 279.592 94.5039 279.316C94.2604 279.037 93.931 278.897 93.5156 278.897ZM97.0122 283.189L97.356 282.765C97.7427 282.263 97.9629 281.511 98.0166 280.509L98.1079 278.188H101.852V283.189H102.598V285.708H101.604V284H97.5493V285.708H96.5557L96.561 283.189H97.0122ZM98.1885 283.189H100.858V279.107H99.0693L99.0103 280.493C98.9494 281.649 98.6755 282.548 98.1885 283.189ZM108.447 284H107.454V281.519H104.784V284H103.785V278.188H104.784V280.708H107.454V278.188H108.447V284ZM113.808 278.188H114.801V284H113.808V279.762L111.127 284H110.134V278.188H111.127V282.432L113.808 278.188ZM118.207 281.524H117.481V284H116.482V278.188H117.481V280.648H118.131L120.086 278.188H121.29L118.991 280.981L121.483 284H120.221L118.207 281.524Z" fill="white"/>
</svg>
