<svg width="22" height="23" viewBox="0 0 22 23" fill="none" xmlns="http://www.w3.org/2000/svg">
<path d="M12.1358 1C9.89286 1.70951 7.28545 2.09588 5.22589 3.30147C4.57358 3.68331 4.04661 4.25523 3.42665 4.68678C2.9394 5.02594 2.65034 5.36275 2.35042 5.86787C1.35753 7.54011 0.910529 9.54637 1.0148 11.4753C1.16515 14.2569 1.93415 16.7552 3.82955 18.9151C6.13525 21.5425 9.93351 23.0151 13.3059 21.5698C14.164 21.202 15.0452 20.7996 15.7674 20.1955C16.6233 19.4797 17.3524 18.5337 18.0634 17.6788C19.1642 16.355 20.1877 14.8347 20.4807 13.109C20.7646 11.4374 20.501 10.0043 20.0061 8.38459C19.6907 7.3525 19.4413 6.42438 18.8857 5.48153C18.4182 4.68822 17.9182 4.18614 17.2797 3.56087C16.6783 2.97206 15.9116 2.30574 15.1603 1.91617C14.268 1.45349 13.353 1.29803 12.3566 1.29803C11.675 1.29803 10.896 1.41458 10.2483 1.19869" stroke="#B1B1B1" stroke-width="1.5" stroke-linecap="round" stroke-linejoin="round"/>
</svg>
