<svg width="120" height="120" viewBox="0 0 120 120" fill="none" xmlns="http://www.w3.org/2000/svg">
<path d="M39.45 110.938C39.7853 110.236 40.2438 109.769 40.8257 109.537C41.4043 109.304 42.0635 109.316 42.803 109.572C43.3194 109.751 43.7319 110.038 44.0403 110.433C44.3456 110.827 44.5244 111.296 44.5767 111.841C44.6279 112.388 44.549 112.965 44.3399 113.572L44.0249 114.471C43.8093 115.086 43.5098 115.594 43.1264 115.994C42.7429 116.395 42.3038 116.653 41.8089 116.769C41.3097 116.888 40.7956 116.856 40.2664 116.672C39.5205 116.413 39.0029 116.008 38.7137 115.456C38.4202 114.907 38.3622 114.266 38.5399 113.535L39.1328 113.74C38.8672 114.967 39.3034 115.778 40.4414 116.173C41.0726 116.392 41.6585 116.332 42.1991 115.993C42.7365 115.653 43.1503 115.069 43.4403 114.241L43.737 113.395C44.017 112.596 44.0587 111.896 43.862 111.294C43.662 110.691 43.2513 110.282 42.6297 110.067C42.0144 109.853 41.4995 109.838 41.0849 110.022C40.6691 110.208 40.3218 110.582 40.0429 111.143L39.45 110.938Z" fill="#211F1F"/>
<path d="M33.5061 111.114L35.3119 111.958L37.4222 107.49L37.9722 107.747L35.8619 112.215L37.5989 113.026L37.3793 113.491L33.2865 111.579L33.5061 111.114Z" fill="#211F1F"/>
<path d="M31.8465 104.471C31.8111 104.649 31.7146 104.887 31.5571 105.184C31.8812 105.055 32.2242 105.01 32.5863 105.047C32.9438 105.086 33.2808 105.199 33.5974 105.385C34.0506 105.652 34.3433 105.994 34.4754 106.411C34.6046 106.827 34.5549 107.227 34.3261 107.611C34.0544 108.068 33.6491 108.317 33.1103 108.359C32.5686 108.399 31.9565 108.218 31.2738 107.816L30.3283 107.259L30.0109 107.792C29.8114 108.127 29.7595 108.451 29.8551 108.765C29.9461 109.08 30.1906 109.355 30.5886 109.589C30.9517 109.803 31.3074 109.888 31.6557 109.843C32.0039 109.799 32.2555 109.646 32.4103 109.386L32.9306 109.698C32.7087 110.071 32.3426 110.291 31.8324 110.357C31.3204 110.426 30.8102 110.311 30.3019 110.012C29.7761 109.702 29.4404 109.327 29.2948 108.886C29.1446 108.446 29.2044 107.99 29.4744 107.517L30.7953 105.298C31.0653 104.844 31.2195 104.476 31.2578 104.195L31.2887 104.143L31.8465 104.471ZM33.263 105.809C32.9144 105.603 32.5537 105.504 32.1809 105.511C31.8051 105.516 31.4714 105.622 31.1797 105.828L30.5656 106.86L31.4981 107.409C32.0215 107.71 32.485 107.854 32.8884 107.842C33.2902 107.832 33.5865 107.667 33.7774 107.347C33.9339 107.084 33.9665 106.808 33.8751 106.52C33.7807 106.231 33.5767 105.993 33.263 105.809Z" fill="#211F1F"/>
<path d="M24.1387 105.127L25.752 106.295L28.6717 102.304L29.1631 102.659L26.2434 106.65L27.7953 107.774L27.4914 108.189L23.8349 105.543L24.1387 105.127Z" fill="#211F1F"/>
<path d="M23.5009 102.686L22.3195 101.643C22.0165 101.375 21.8008 101.086 21.6722 100.775C21.5389 100.464 21.5004 100.161 21.5569 99.8649C21.6108 99.5667 21.7521 99.2896 21.9808 99.0335C22.3327 98.6393 22.7514 98.4434 23.237 98.4456C23.7178 98.4481 24.1892 98.6534 24.6511 99.0614L26.268 100.489L22.6301 104.564L22.1795 104.166L23.5009 102.686ZM23.8438 102.302L25.4778 100.472L24.304 99.4351C23.9783 99.1475 23.6505 99.0039 23.3205 99.0044C22.988 99.0026 22.6952 99.1436 22.4419 99.4273C22.1998 99.6985 22.0957 99.9972 22.1295 100.323C22.1585 100.65 22.3273 100.954 22.6359 101.235L23.8438 102.302Z" fill="#211F1F"/>
<path d="M17.802 91.7646L18.1888 92.2308L14.3652 95.3693L16.2443 97.634L20.0679 94.4955L20.4547 94.9617L16.2288 98.4304L13.5762 95.2333L17.802 91.7646Z" fill="#211F1F"/>
<path d="M14.8346 87.4821C14.7245 87.6269 14.5333 87.7989 14.261 87.9981C14.6092 88.0227 14.9379 88.1306 15.2471 88.3218C15.5516 88.512 15.8053 88.7597 16.0083 89.065C16.2987 89.502 16.4118 89.9368 16.3474 90.3696C16.2811 90.7996 16.0607 91.1378 15.6862 91.3841C15.2413 91.6767 14.7673 91.7247 14.2643 91.5281C13.7595 91.3288 13.2883 90.9 12.8507 90.2418L12.2447 89.3301L11.7251 89.6718C11.3985 89.8866 11.2092 90.156 11.1574 90.4799C11.101 90.8028 11.2003 91.1561 11.4553 91.5398C11.6881 91.89 11.9709 92.1206 12.3038 92.2317C12.6367 92.3429 12.9299 92.3151 13.1833 92.1485L13.5142 92.6554C13.151 92.8943 12.7253 92.9327 12.2371 92.7707C11.7462 92.6105 11.3378 92.2853 11.012 91.7952C10.675 91.2882 10.5378 90.8048 10.6004 90.345C10.6583 89.8843 10.9126 89.4997 11.3632 89.1913L13.5259 87.769C13.9681 87.4783 14.2682 87.2145 14.4264 86.9776L14.4771 86.9443L14.8346 87.4821ZM15.5214 89.3006C15.298 88.9645 15.0171 88.7185 14.6788 88.5627C14.3386 88.404 13.9918 88.3543 13.6386 88.4135L12.6333 89.0746L13.231 89.9737C13.5699 90.4713 13.9235 90.8023 14.2918 90.9667C14.6572 91.1329 14.9962 91.1132 15.3088 90.9077C15.5651 90.7392 15.7153 90.5055 15.7595 90.2067C15.8019 89.9052 15.7225 89.6031 15.5214 89.3006Z" fill="#211F1F"/>
<path d="M9.39956 83.2241C10.1547 82.8273 10.843 82.6783 11.4644 82.7771C12.0828 82.8774 12.5402 83.2067 12.8367 83.7648C13.1868 84.4239 13.2221 85.051 12.9425 85.646L15.414 84.3472L15.6955 84.8772L8.98846 88.4017L8.72588 87.9074L9.39672 87.5207C8.69582 87.4447 8.17032 87.0771 7.82022 86.4181C7.51427 85.8421 7.49395 85.2756 7.75926 84.7184C8.02299 84.1583 8.54439 83.6735 9.32344 83.2641L9.39956 83.2241ZM9.5894 83.8079C8.97153 84.1326 8.55052 84.5153 8.32638 84.9558C8.10224 85.3964 8.11002 85.8423 8.34973 86.2936C8.52321 86.6202 8.75134 86.8592 9.03412 87.0106C9.31691 87.162 9.64215 87.2208 10.0099 87.1871L12.3336 85.966C12.5434 85.6924 12.6583 85.3985 12.6784 85.0841C12.6985 84.7697 12.6226 84.4508 12.4507 84.1272C12.2126 83.6789 11.8482 83.4241 11.3575 83.363C10.8623 83.3004 10.2729 83.4487 9.5894 83.8079Z" fill="#211F1F"/>
<path d="M5.28406 79.3147L6.04533 81.149L10.6325 79.2657L10.8643 79.8243L6.27719 81.7077L7.00948 83.4721L6.53204 83.6681L4.80663 79.5107L5.28406 79.3147Z" fill="#211F1F"/>
<path d="M8.36176 72.596L8.53714 73.1747L6.13237 73.8957L6.98446 76.7071L9.38923 75.9861L9.56462 76.5647L4.31872 78.1376L4.14333 77.559L6.49477 76.8539L5.64269 74.0425L3.29124 74.7476L3.11586 74.1689L8.36176 72.596Z" fill="#211F1F"/>
<path d="M7.65283 68.8092C7.73892 69.2646 7.7041 69.6982 7.54836 70.11C7.392 70.5185 7.13243 70.8626 6.76966 71.1422C6.40358 71.4225 5.97004 71.6095 5.46906 71.7032L5.25506 71.7432C4.7375 71.84 4.25264 71.8282 3.80049 71.7078C3.34771 71.584 2.96986 71.366 2.66692 71.0537C2.36067 70.742 2.16824 70.3782 2.08964 69.9624C1.96674 69.3123 2.09337 68.7557 2.46952 68.2924C2.84174 67.8265 3.41436 67.5212 4.1874 67.3766L4.52083 67.3143L5.24324 71.1356L5.3577 71.1142C5.96817 71 6.44469 70.7315 6.78727 70.3087C7.12591 69.8832 7.24532 69.4065 7.14551 68.8785C7.08562 68.5617 6.97485 68.2937 6.81318 68.0745C6.6509 67.8521 6.42331 67.6657 6.13041 67.5155L6.34389 67.0912C7.05993 67.4083 7.49624 67.981 7.65283 68.8092ZM2.59725 69.8675C2.68147 70.313 2.91682 70.6584 3.30329 70.9039C3.68914 71.1461 4.16534 71.2484 4.73188 71.2107L4.12457 67.9983L4.05988 68.0104C3.54542 68.1237 3.15183 68.3493 2.87909 68.6873C2.60636 69.0253 2.51241 69.4187 2.59725 69.8675ZM0.894135 71.6517C0.781332 71.6728 0.679914 71.6542 0.589881 71.5959C0.49653 71.5382 0.438002 71.4466 0.414296 71.3212C0.39059 71.1958 0.411687 71.0894 0.477589 71.0019C0.539549 70.9117 0.626931 70.8561 0.739734 70.835C0.84922 70.8145 0.949291 70.8351 1.03995 70.8967C1.12998 70.955 1.18685 71.0469 1.21056 71.1723C1.23426 71.2977 1.21482 71.4038 1.15224 71.4907C1.08966 71.5776 1.00362 71.6312 0.894135 71.6517ZM0.489247 69.4827C0.376443 69.5038 0.275025 69.4852 0.184992 69.4269C0.0916417 69.3692 0.0331133 69.2776 0.00940729 69.1522C-0.0142987 69.0269 0.006799 68.9204 0.0727005 68.8329C0.13466 68.7428 0.222042 68.6871 0.334846 68.666C0.444332 68.6455 0.544403 68.6661 0.63506 68.7277C0.725093 68.7861 0.781962 68.8779 0.805668 69.0033C0.829374 69.1287 0.809935 69.2349 0.747352 69.3217C0.684768 69.4086 0.598733 69.4623 0.489247 69.4827Z" fill="#211F1F"/>
<path d="M3.96859 61.4816C4.8196 61.4094 5.51178 61.5393 6.04513 61.8714C6.57512 62.2039 6.86711 62.6846 6.92111 63.3135C6.98487 64.0563 6.77133 64.6473 6.28049 65.0866L9.06559 64.8501L9.11686 65.4473L1.55873 66.0892L1.51091 65.5321L2.28028 65.4365C1.66476 65.0944 1.32513 64.5521 1.26137 63.8094C1.20565 63.1603 1.40922 62.6308 1.87208 62.2208C2.33466 61.8074 3.00491 61.5635 3.88282 61.4889L3.96859 61.4816ZM3.91434 62.0928C3.21806 62.152 2.68031 62.3409 2.30108 62.6595C1.92186 62.9782 1.75407 63.3918 1.79773 63.9003C1.82932 64.2683 1.9456 64.5769 2.14656 64.8261C2.34753 65.0752 2.6239 65.2556 2.9757 65.3673L5.5943 65.1449C5.89477 64.9745 6.11593 64.7484 6.25777 64.4668C6.39961 64.1852 6.45488 63.862 6.42357 63.4973C6.38021 62.9921 6.14464 62.6162 5.71688 62.3694C5.28546 62.1196 4.68461 62.0274 3.91434 62.0928Z" fill="#211F1F"/>
<path d="M3.79086 60.5681C3.26433 60.5574 2.79219 60.447 2.37445 60.237C1.95677 60.0236 1.63529 59.7299 1.41001 59.3559C1.18142 58.9784 1.07197 58.5547 1.08166 58.0847C1.0966 57.3596 1.36522 56.7774 1.88751 56.338C2.40644 55.8985 3.08779 55.6874 3.93159 55.7046L4.05816 55.7072C4.58806 55.718 5.06354 55.8301 5.4846 56.0435C5.90235 56.2536 6.22217 56.5456 6.44408 56.9195C6.66598 57.2935 6.77206 57.7171 6.7623 58.1905C6.74743 58.9122 6.4805 59.4945 5.96151 59.9373C5.43921 60.3767 4.75617 60.5878 3.91237 60.5706L3.79086 60.5681ZM3.97038 59.9673C4.62517 59.9806 5.16697 59.8237 5.59579 59.4966C6.0213 59.1661 6.23969 58.7272 6.25096 58.18C6.26217 57.6362 6.06197 57.1922 5.65036 56.8479C5.23545 56.5003 4.68372 56.3194 3.99519 56.3054L3.87874 56.303C3.46022 56.2945 3.07554 56.3639 2.72472 56.5112C2.37389 56.6585 2.1011 56.8696 1.90635 57.1444C1.70823 57.4191 1.60546 57.7361 1.59806 58.0953C1.58699 58.6324 1.7906 59.0748 2.20889 59.4225C2.6238 59.7702 3.17384 59.951 3.859 59.965L3.97038 59.9673Z" fill="#211F1F"/>
<path d="M6.39658 51.3474L2.10572 48.5283L2.21515 47.7909L7.63551 48.5866L7.54678 49.1845L3.09828 48.5315L7.23919 51.2573L7.17634 51.6808L2.31414 53.1257L6.86283 53.7934L6.77484 54.3864L1.35449 53.5906L1.47058 52.8084L6.39658 51.3474Z" fill="#211F1F"/>
<path d="M6.34884 45.3608C5.96542 45.2531 5.66914 45.1197 5.46 44.9606C5.25086 44.8015 5.03066 44.5196 4.79941 44.1151C4.56489 43.7096 4.39442 43.4443 4.288 43.3191C4.17918 43.1898 4.05291 43.0802 3.90917 42.9904C3.76303 42.8964 3.58877 42.8229 3.38641 42.7697C2.97842 42.6625 2.62967 42.6872 2.34016 42.8439C2.04826 42.9964 1.85101 43.2658 1.74841 43.6521C1.64496 44.0417 1.67394 44.3862 1.83535 44.6856C1.99437 44.9809 2.26395 45.1819 2.64411 45.2887L2.49022 45.8682C1.95666 45.7211 1.57693 45.4286 1.35103 44.9907C1.12187 44.552 1.07971 44.0599 1.22455 43.5145C1.37284 42.9561 1.65448 42.5595 2.06949 42.3247C2.4821 42.0859 2.96911 42.0401 3.53051 42.1876C3.88302 42.2803 4.19318 42.4468 4.46102 42.6874C4.72558 42.927 5.00444 43.3233 5.29759 43.8761C5.51024 44.3244 5.91196 44.6261 6.50273 44.7813L6.34884 45.3608ZM7.96339 45.8683C7.85242 45.8392 7.76845 45.7807 7.71148 45.6928C7.65211 45.6008 7.63924 45.4915 7.67286 45.3649C7.70562 45.2415 7.77066 45.1544 7.86796 45.1035C7.96286 45.0486 8.06579 45.0357 8.17677 45.0649C8.28448 45.0932 8.36596 45.1545 8.4212 45.2489C8.47404 45.3392 8.48408 45.446 8.45132 45.5694C8.41769 45.696 8.3555 45.7856 8.26472 45.8381C8.17155 45.8866 8.0711 45.8966 7.96339 45.8683Z" fill="#211F1F"/>
<path d="M10.3381 39.4941L3.59461 36.5292L4.47496 34.5484C4.79434 33.8298 5.18636 33.3505 5.65102 33.1106C6.11258 32.8693 6.63361 32.8763 7.21409 33.1315C7.563 33.2849 7.82483 33.5138 7.99957 33.8182C8.17259 34.1183 8.24165 34.457 8.20677 34.8345C8.46656 34.4825 8.79876 34.2541 9.20336 34.1493C9.60933 34.0414 10.0084 34.0737 10.4005 34.2461C10.9964 34.5081 11.3774 34.905 11.5433 35.4369C11.7075 35.9643 11.6382 36.5689 11.3351 37.2507L10.3381 39.4941ZM7.34786 37.5021L10.1082 38.7157L10.8637 37.0159C11.0794 36.5307 11.1265 36.0925 11.005 35.7013C10.8818 35.3058 10.5995 35.0109 10.158 34.8168C9.74112 34.6335 9.35154 34.6256 8.98923 34.793C8.62519 34.956 8.33672 35.2771 8.12379 35.7562L7.34786 37.5021ZM6.87081 37.2923L7.55871 35.7445C7.75964 35.2675 7.81091 34.8532 7.71251 34.5015C7.61238 34.1455 7.35699 33.8772 6.94633 33.6966C6.51405 33.5065 6.13597 33.5018 5.81207 33.6825C5.48645 33.8587 5.20285 34.2186 4.96127 34.7622L4.33274 36.1764L6.87081 37.2923Z" fill="#211F1F"/>
<path d="M10.3872 32.6287C9.93406 32.3619 9.57752 32.0348 9.31761 31.6476C9.05941 31.2576 8.9247 30.8446 8.91346 30.4087C8.90103 29.9683 9.01522 29.5458 9.25601 29.1413C9.62753 28.5172 10.1493 28.1416 10.8213 28.0145C11.4904 27.8856 12.1881 28.035 12.9143 28.4627L13.0232 28.5269C13.4793 28.7955 13.8379 29.1257 14.099 29.5175C14.3589 29.9046 14.493 30.3153 14.5014 30.7495C14.5097 31.1836 14.3926 31.6044 14.1501 32.0118C13.7803 32.633 13.26 33.0094 12.5892 33.1412C11.9171 33.2683 11.218 33.118 10.4918 32.6903L10.3872 32.6287ZM10.8406 32.1934C11.4042 32.5252 11.9535 32.6536 12.4886 32.5785C13.0225 32.4989 13.4297 32.2235 13.71 31.7526C13.9886 31.2845 14.0339 30.8 13.8456 30.2989C13.6563 29.7933 13.2653 29.3659 12.6727 29.017L12.5724 28.9579C12.2122 28.7458 11.843 28.6181 11.4646 28.5748C11.0863 28.5315 10.7445 28.5819 10.439 28.7259C10.1307 28.8682 9.8845 29.0939 9.70046 29.403C9.42526 29.8653 9.38382 30.3501 9.57611 30.8575C9.76551 31.3632 10.1551 31.7896 10.7447 32.1369L10.8406 32.1934Z" fill="#211F1F"/>
<path d="M18.589 25.3899L18.2241 25.8732L14.2596 22.9127L12.4871 25.2609L16.4516 28.2214L16.0867 28.7047L11.7051 25.4328L14.2074 22.1179L18.589 25.3899Z" fill="#211F1F"/>
<path d="M20.7284 19.0415C21.3543 19.6195 21.7229 20.2165 21.8343 20.8326C21.9431 21.4463 21.7817 21.9844 21.3498 22.447C20.8399 22.9933 20.2564 23.2334 19.5994 23.1673L21.6478 25.059L21.2378 25.4983L15.6789 20.3645L16.0614 19.9548L16.6498 20.457C16.4906 19.7739 16.666 19.1592 17.1759 18.6129C17.6215 18.1356 18.1525 17.9295 18.7689 17.9947C19.3875 18.0574 20.0197 18.3869 20.6653 18.9832L20.7284 19.0415ZM20.237 19.4124C19.7249 18.9395 19.2228 18.6705 18.7307 18.6055C18.2386 18.5405 17.818 18.695 17.4688 19.069C17.2161 19.3397 17.0646 19.6327 17.0143 19.9482C16.9639 20.2637 17.0154 20.5885 17.1688 20.9226L19.0947 22.7012C19.4236 22.8079 19.7405 22.8188 20.0455 22.7339C20.3505 22.649 20.6282 22.4724 20.8785 22.2042C21.2254 21.8327 21.3469 21.4065 21.2429 20.9256C21.1389 20.44 20.8036 19.9356 20.237 19.4124Z" fill="#211F1F"/>
<path d="M21.2926 18.2947C20.9471 17.8993 20.7124 17.4772 20.5884 17.0283C20.467 16.5771 20.47 16.143 20.5974 15.7258C20.7252 15.3039 20.9674 14.9387 21.3241 14.6303C21.8744 14.1545 22.4886 13.9616 23.1667 14.0516C23.8425 14.1391 24.4573 14.4995 25.011 15.1331L25.094 15.2281C25.4418 15.626 25.6774 16.0517 25.8011 16.5054C25.9251 16.9543 25.9222 17.3861 25.7926 17.8008C25.6629 18.2154 25.4185 18.578 25.0593 18.8886C24.5115 19.3622 23.8984 19.5564 23.22 19.4712C22.5419 19.3812 21.9261 19.0194 21.3724 18.3859L21.2926 18.2947ZM21.8609 18.0236C22.2905 18.5152 22.7712 18.8092 23.3028 18.9057C23.8348 18.9974 24.3084 18.8638 24.7237 18.5047C25.1365 18.1478 25.3329 17.7021 25.313 17.1676C25.2935 16.6284 25.0579 16.1003 24.606 15.5833L24.5296 15.4959C24.255 15.1817 23.945 14.9447 23.5997 14.785C23.2544 14.6253 22.9139 14.566 22.5784 14.6069C22.2407 14.6453 21.9356 14.7823 21.663 15.0181C21.2553 15.3705 21.0624 15.8176 21.0841 16.3594C21.1036 16.8987 21.3382 17.4255 21.7878 17.9399L21.8609 18.0236Z" fill="#211F1F"/>
<path d="M29.34 14.9012C29.6851 14.6596 29.9055 14.3616 30.0014 14.007C30.0981 13.6478 30.0473 13.3076 29.849 12.9866L30.3252 12.6532C30.5038 12.9347 30.5941 13.2431 30.596 13.5784C30.5961 13.911 30.5096 14.2322 30.3368 14.5421C30.1666 14.8501 29.9325 15.1085 29.6344 15.3172C29.0464 15.7288 28.436 15.8523 27.8034 15.6875C27.1735 15.5207 26.6156 15.0941 26.1299 14.4077L26.0249 14.2594C25.714 13.8201 25.5164 13.3775 25.432 12.9315C25.3476 12.4855 25.3838 12.0701 25.5408 11.6851C25.7004 11.2982 25.9735 10.9695 26.36 10.6989C26.8514 10.3549 27.3588 10.2173 27.8823 10.2861C28.4085 10.353 28.8507 10.6162 29.2089 11.0758L28.7327 11.4091C28.4639 11.0759 28.1377 10.8833 27.7542 10.8315C27.3736 10.7777 27.0079 10.8736 26.6573 11.119C26.2101 11.4321 25.9759 11.8363 25.9548 12.3315C25.9364 12.8247 26.1323 13.361 26.5422 13.9404L26.6443 14.0845C27.0465 14.6529 27.4831 15.0104 27.9542 15.1569C28.4281 15.3014 28.89 15.2162 29.34 14.9012Z" fill="#211F1F"/>
<path d="M31.211 9.99267L32.6026 9.24851C32.9594 9.0577 33.3068 8.95581 33.6447 8.94282C33.984 8.92529 34.2836 8.99381 34.5435 9.14839C34.8063 9.30137 35.0193 9.52869 35.1824 9.83034C35.4333 10.2946 35.4742 10.7531 35.305 11.2058C35.1371 11.654 34.7811 12.0235 34.237 12.3145L32.3325 13.3329L29.7379 8.53313L30.2686 8.2493L31.211 9.99267ZM31.4556 10.4452L32.6211 12.6011L34.0037 11.8617C34.3873 11.6566 34.6356 11.3998 34.7488 11.0915C34.8649 10.7816 34.8326 10.4596 34.6519 10.1254C34.4793 9.80603 34.2332 9.60598 33.9136 9.52528C33.5953 9.44003 33.2503 9.49304 32.8784 9.68429L31.4556 10.4452ZM37.6489 10.4899L37.1137 10.7761L34.519 5.97627L35.0542 5.69006L37.6489 10.4899Z" fill="#211F1F"/>
<path d="M40.3242 6.33453C40.1593 5.83706 40.107 5.35748 40.1673 4.89578C40.2307 4.43304 40.4023 4.03383 40.6821 3.69816C40.964 3.35824 41.3294 3.11469 41.7782 2.96751C42.4708 2.74044 43.1122 2.79882 43.7024 3.14267C44.2917 3.48333 44.7184 4.05227 44.9826 4.8495L45.0223 4.96909C45.1882 5.46975 45.24 5.95304 45.1776 6.41898C45.1173 6.88067 44.9468 7.27776 44.666 7.61025C44.3852 7.94273 44.0188 8.18309 43.5667 8.33132C42.8774 8.55734 42.2365 8.50055 41.6441 8.16095C41.0538 7.8171 40.6265 7.24656 40.3623 6.44933L40.3242 6.33453ZM40.9537 6.30315C41.1587 6.9218 41.4876 7.37787 41.9403 7.67136C42.3952 7.96061 42.884 8.01956 43.4066 7.8482C43.926 7.67789 44.2804 7.34246 44.47 6.84191C44.6617 6.33711 44.6497 5.75945 44.4341 5.10891L44.3977 4.99889C44.2666 4.60346 44.0729 4.2657 43.8165 3.9856C43.5602 3.7055 43.2694 3.51978 42.9441 3.42846C42.6177 3.33395 42.283 3.34293 41.9399 3.45542C41.427 3.62362 41.0751 3.96172 40.8845 4.4697C40.6928 4.97449 40.7042 5.55057 40.9188 6.19792L40.9537 6.30315Z" fill="#211F1F"/>
<path d="M54.0024 5.8523L53.4021 5.9463L52.6312 1.07545L49.7149 1.5321L50.4858 6.40295L49.8856 6.49694L49.0335 1.11364L53.1503 0.468996L54.0024 5.8523Z" fill="#211F1F"/>
<path d="M59.9586 2.77316C60.0024 3.62154 59.8484 4.30521 59.4967 4.82416C59.1447 5.33975 58.6518 5.61375 58.018 5.64616C57.2695 5.68442 56.6829 5.45216 56.258 4.94938L56.4015 7.72593L55.7997 7.75669L55.4103 0.221797L55.9716 0.193099L56.0418 0.961134C56.4062 0.360845 56.9627 0.0415684 57.7112 0.00330514C58.3652 -0.0301322 58.8904 0.190138 59.2868 0.664116C59.6865 1.13792 59.9089 1.81243 59.9542 2.68765L59.9586 2.77316ZM59.3463 2.69855C59.3104 2.00441 59.1388 1.46347 58.8314 1.07573C58.524 0.687979 58.1141 0.507204 57.6017 0.533402C57.2308 0.552362 56.9168 0.657512 56.6596 0.848854C56.4025 1.0402 56.2118 1.30883 56.0877 1.65475L56.2227 4.26531C56.3837 4.56975 56.6034 4.79724 56.8816 4.94776C57.1598 5.09829 57.4827 5.16416 57.8501 5.14537C58.3592 5.11934 58.745 4.89789 59.0074 4.48102C59.273 4.06061 59.3859 3.46646 59.3463 2.69855Z" fill="#211F1F"/>
<path d="M60.8864 2.61935C60.9152 2.09632 61.0422 1.63078 61.2676 1.22271C61.4963 0.814818 61.8024 0.505306 62.1859 0.29417C62.573 0.079864 63.0025 -0.0144339 63.4744 0.0112761C64.2025 0.050943 64.7784 0.337887 65.202 0.872107C65.6258 1.40298 65.8147 2.0875 65.7685 2.92568L65.7616 3.0514C65.7326 3.57778 65.6037 4.04659 65.3748 4.45783C65.1494 4.8659 64.8451 5.17383 64.4617 5.38161C64.0784 5.58939 63.6491 5.68034 63.1738 5.65445C62.4491 5.61496 61.8731 5.32969 61.4459 4.79864C61.0223 4.26442 60.8336 3.57822 60.8797 2.74004L60.8864 2.61935ZM61.484 2.81836C61.4482 3.46879 61.5872 4.01273 61.9013 4.45018C62.2188 4.88447 62.6523 5.11658 63.2018 5.14651C63.7478 5.17626 64.2009 4.99245 64.5609 4.59508C64.9244 4.19453 65.125 3.65229 65.1627 2.96833L65.169 2.85266C65.1919 2.43693 65.1353 2.05217 64.9993 1.69839C64.8633 1.34462 64.6605 1.06623 64.3911 0.863237C64.1218 0.65689 63.8069 0.543891 63.4462 0.524241C62.9068 0.494859 62.4553 0.682114 62.0916 1.08601C61.7281 1.48655 61.5275 2.02712 61.4901 2.70772L61.484 2.81836Z" fill="#211F1F"/>
<path d="M71.16 1.49857L68.4213 1.08583L67.6786 5.96102L67.0778 5.87047L67.8987 0.482364L71.2381 0.985653L71.16 1.49857Z" fill="#211F1F"/>
<path d="M76.1368 4.96701C75.9347 5.79238 75.5904 6.40361 75.104 6.80069C74.6184 7.19451 74.0672 7.31672 73.4506 7.16732C72.7225 6.99089 72.2272 6.60133 71.9648 5.99863L71.3032 8.69985L70.7177 8.55799L72.5131 1.22751L73.0592 1.35983L72.9054 2.11569C73.4273 1.64429 74.0524 1.4968 74.7806 1.67322C75.4169 1.82739 75.8567 2.18797 76.1001 2.75495C76.3467 3.32273 76.3657 4.03235 76.1572 4.88382L76.1368 4.96701ZM75.5716 4.7212C75.737 4.0459 75.7282 3.47873 75.5453 3.0197C75.3624 2.56067 75.0216 2.27076 74.5231 2.14996C74.1623 2.06254 73.8312 2.0739 73.5297 2.18402C73.2282 2.29414 72.9683 2.49726 72.7498 2.79338L72.1278 5.33311C72.1945 5.67068 72.3395 5.95118 72.5628 6.17461C72.786 6.39804 73.0764 6.55307 73.4339 6.63969C73.9292 6.75969 74.3625 6.65733 74.7339 6.33261C75.1094 6.00541 75.3886 5.46828 75.5716 4.7212Z" fill="#211F1F"/>
<path d="M79.7976 9.02233C79.7976 8.84073 79.8458 8.58882 79.9423 8.2666C79.6496 8.45584 79.322 8.56695 78.9594 8.59993C78.6012 8.63085 78.2486 8.58541 77.9016 8.46361C77.405 8.28929 77.0511 8.01019 76.8401 7.62633C76.6322 7.24358 76.603 6.84165 76.7524 6.42052C76.9299 5.92024 77.2789 5.59764 77.7993 5.45272C78.3229 5.30893 78.9587 5.36833 79.7068 5.63093L80.743 5.99466L80.9503 5.41047C81.0807 5.04317 81.0683 4.71481 80.9132 4.42537C80.7625 4.13389 80.469 3.9116 80.0329 3.75851C79.635 3.61883 79.2695 3.6045 78.9366 3.71551C78.6036 3.82652 78.3866 4.02452 78.2855 4.30949L77.7141 4.1036C77.8591 3.69514 78.1754 3.40914 78.663 3.2456C79.1517 3.07889 79.6747 3.09331 80.2318 3.28887C80.808 3.49113 81.2105 3.79443 81.4393 4.19878C81.6725 4.60109 81.7028 5.06039 81.5304 5.57669L80.6675 8.00844C80.4911 8.50555 80.4117 8.89604 80.4291 9.17989L80.4089 9.23688L79.7976 9.02233ZM78.1471 7.98363C78.5291 8.11772 78.9023 8.14547 79.2667 8.06686C79.6343 7.98937 79.941 7.82108 80.1869 7.562L80.588 6.43161L79.5661 6.07291C78.994 5.87922 78.5113 5.82727 78.1178 5.91705C77.7255 6.00367 77.467 6.22271 77.3423 6.57417C77.2401 6.86231 77.2619 7.1388 77.4078 7.40365C77.5568 7.66962 77.8033 7.86294 78.1471 7.98363Z" fill="#211F1F"/>
<path d="M84.7996 10.3205L88.8259 7.13872L89.4967 7.4711L87.0536 12.3489L86.5097 12.0794L88.5148 8.07618L84.6241 11.1452L84.2389 10.9543L84.3673 5.90859L82.3171 10.002L81.7777 9.73475L84.2209 4.85692L84.9325 5.20952L84.7996 10.3205Z" fill="#211F1F"/>
<path d="M91.3717 14.1366L95.8063 11.5469L96.4237 11.9694L93.318 16.4589L92.8174 16.1163L95.3663 12.4318L91.0819 14.9287L90.7273 14.686L91.5648 9.70795L88.9585 13.4755L88.4621 13.1358L91.5678 8.64623L92.2228 9.09446L91.3717 14.1366Z" fill="#211F1F"/>
<path d="M96.0606 18.9184C95.7111 18.6121 95.4704 18.2489 95.3386 17.829C95.2092 17.4113 95.2011 16.9812 95.3141 16.5387C95.4294 16.0937 95.6555 15.6811 95.9926 15.3007L96.1366 15.1382C96.4847 14.7452 96.8743 14.4579 97.3053 14.2762C97.7388 14.0967 98.1716 14.0375 98.6036 14.0984C99.0378 14.1568 99.4145 14.3258 99.7336 14.6056C100.233 15.0429 100.477 15.5593 100.467 16.1547C100.462 16.7497 100.199 17.3408 99.6789 17.9277L99.4546 18.1809L96.5217 15.6101L96.4447 15.697C96.034 16.1605 95.8243 16.6637 95.8157 17.2067C95.8119 17.7493 96.0126 18.1982 96.4178 18.5534C96.6609 18.7666 96.914 18.9101 97.177 18.984C97.4426 19.0601 97.7373 19.0678 98.0611 19.007L98.1552 19.4721C97.3945 19.6602 96.6964 19.4757 96.0606 18.9184ZM99.3921 14.991C99.0502 14.6913 98.651 14.5629 98.1945 14.6058C97.7405 14.6509 97.3018 14.8617 96.8784 15.238L99.344 17.3992L99.3875 17.35C99.723 16.946 99.8938 16.5273 99.8998 16.0939C99.9058 15.6605 99.7366 15.2929 99.3921 14.991Z" fill="#211F1F"/>
<path d="M100.846 20.5175C101.141 20.2517 101.412 20.0729 101.659 19.9813C101.906 19.8896 102.263 19.8539 102.73 19.874C103.2 19.8918 103.517 19.8892 103.68 19.8661C103.848 19.8431 104.008 19.7949 104.161 19.7215C104.319 19.6483 104.474 19.5406 104.627 19.3984C104.935 19.1115 105.099 18.8046 105.12 18.4774C105.145 18.1504 105.02 17.841 104.746 17.5493C104.469 17.2551 104.16 17.0965 103.819 17.0734C103.483 17.0505 103.169 17.1708 102.876 17.4343L102.464 16.9967C102.873 16.6253 103.324 16.4608 103.817 16.5032C104.312 16.5432 104.754 16.7692 105.141 17.1811C105.538 17.6027 105.726 18.0508 105.706 18.5252C105.69 18.9998 105.47 19.4344 105.046 19.8291C104.78 20.0769 104.473 20.2497 104.126 20.3475C103.781 20.4431 103.296 20.4675 102.669 20.4207C102.174 20.3617 101.704 20.5398 101.258 20.9551L100.846 20.5175ZM99.5557 21.6082C99.6395 21.5302 99.734 21.4905 99.8391 21.4892C99.949 21.4881 100.049 21.5353 100.139 21.6309C100.227 21.7241 100.266 21.8252 100.258 21.9342C100.254 22.0433 100.21 22.1369 100.127 22.2149C100.045 22.2907 99.9498 22.3267 99.84 22.3231C99.7351 22.3196 99.6387 22.2713 99.5511 22.1782C99.4611 22.0826 99.4179 21.9826 99.4213 21.8781C99.4296 21.7739 99.4744 21.6839 99.5557 21.6082Z" fill="#211F1F"/>
<path d="M103.561 26.7303L109.652 22.5972L110.879 24.3862C111.324 25.0352 111.526 25.6194 111.486 26.1385C111.449 26.6558 111.168 27.0923 110.644 27.4481C110.328 27.662 109.995 27.7624 109.643 27.7494C109.295 27.7373 108.969 27.6169 108.665 27.3882C108.829 27.7935 108.849 28.1947 108.725 28.5918C108.603 28.9917 108.364 29.3118 108.01 29.5522C107.472 29.9174 106.932 30.0298 106.39 29.8894C105.853 29.7499 105.373 29.3722 104.951 28.7565L103.561 26.7303ZM106.84 25.255L104.347 26.9468L105.4 28.482C105.701 28.9203 106.05 29.1913 106.448 29.2951C106.851 29.3997 107.252 29.3167 107.651 29.0461C108.027 28.7906 108.24 28.4657 108.288 28.0712C108.341 27.6776 108.219 27.2645 107.922 26.8318L106.84 25.255ZM107.271 24.9626L108.23 26.3605C108.531 26.782 108.858 27.0439 109.21 27.1463C109.567 27.2496 109.931 27.1754 110.302 26.9237C110.693 26.6588 110.896 26.3418 110.913 25.9728C110.934 25.6047 110.776 25.1752 110.44 24.6843L109.563 23.407L107.271 24.9626Z" fill="#211F1F"/>
<path d="M110.576 31.0754L111.288 32.4779C111.471 32.8375 111.564 33.1855 111.569 33.5219C111.578 33.8597 111.501 34.1559 111.339 34.4103C111.179 34.6678 110.945 34.8737 110.638 35.0282C110.165 35.266 109.703 35.2949 109.252 35.1151C108.806 34.9368 108.444 34.5734 108.165 34.025L107.19 32.1055L112.08 29.6477L112.352 30.1827L110.576 31.0754ZM110.115 31.3071L107.918 32.4111L108.626 33.8046C108.823 34.1912 109.074 34.4447 109.381 34.565C109.69 34.6883 110.014 34.6644 110.355 34.4933C110.68 34.3298 110.887 34.0901 110.977 33.7744C111.07 33.4602 111.026 33.1157 110.843 32.7411L110.115 31.3071ZM109.912 37.4639L109.638 36.9245L114.528 34.4667L114.802 35.0061L109.912 37.4639Z" fill="#211F1F"/>
<path d="M116.181 43.0939C116.497 42.9966 116.704 42.8046 116.802 42.5178C116.9 42.231 116.885 41.8824 116.757 41.4718C116.642 41.0997 116.445 40.8103 116.169 40.6037C115.897 40.3992 115.614 40.3421 115.321 40.4325L115.143 39.8599C115.578 39.7259 115.995 39.7996 116.394 40.0812C116.793 40.3659 117.077 40.7793 117.246 41.3214C117.432 41.918 117.447 42.4228 117.293 42.8359C117.139 43.2489 116.825 43.5283 116.351 43.6743C116.099 43.7517 115.848 43.7447 115.597 43.6533C115.346 43.5618 115.118 43.3859 114.913 43.1256C114.937 43.8493 114.625 44.311 113.976 44.5105C113.505 44.6555 113.077 44.5889 112.69 44.3108C112.303 44.0327 112.016 43.5938 111.829 42.9939C111.649 42.4133 111.646 41.887 111.82 41.415C111.995 40.9429 112.32 40.634 112.794 40.488L112.973 41.0654C112.657 41.1627 112.436 41.382 112.309 41.7234C112.186 42.067 112.187 42.4409 112.313 42.845C112.45 43.2845 112.649 43.5994 112.909 43.7898C113.174 43.9824 113.466 44.0296 113.785 43.9313C114.137 43.8231 114.355 43.6313 114.439 43.3559C114.523 43.0805 114.492 42.7087 114.346 42.2404L114.099 41.4465L114.602 41.2916L114.879 42.1817C115.147 42.9745 115.581 43.2785 116.181 43.0939Z" fill="#211F1F"/>
<path d="M113.71 50.2438L113.591 49.6511L116.054 49.1622L115.476 46.2827L113.013 46.7716L112.894 46.1789L118.267 45.1123L118.386 45.7051L115.978 46.1831L116.556 49.0627L118.964 48.5846L119.083 49.1773L113.71 50.2438Z" fill="#211F1F"/>
<path d="M114.328 55.6287C114.494 55.5533 114.745 55.4923 115.08 55.4458C114.785 55.2595 114.547 55.0093 114.367 54.6949C114.19 54.3836 114.085 54.0457 114.052 53.6812C114.005 53.1594 114.114 52.7234 114.377 52.373C114.641 52.026 114.996 51.8327 115.443 51.793C115.975 51.7459 116.415 51.9277 116.763 52.3384C117.112 52.7524 117.322 53.3524 117.392 54.1383L117.49 55.227L118.11 55.1719C118.5 55.1374 118.796 54.9898 118.996 54.7293C119.2 54.4719 119.281 54.1141 119.24 53.6559C119.203 53.2378 119.064 52.9012 118.825 52.6461C118.585 52.3909 118.314 52.2767 118.011 52.3036L117.962 51.7011C118.396 51.6627 118.789 51.8301 119.141 52.2034C119.496 52.5764 119.7 53.0555 119.753 53.6408C119.807 54.2462 119.697 54.7363 119.422 55.1113C119.151 55.4893 118.743 55.7075 118.199 55.7658L115.617 55.9948C115.089 56.0416 114.699 56.1319 114.446 56.2655L114.386 56.2709L114.328 55.6287ZM114.593 53.704C114.629 54.1053 114.758 54.4545 114.982 54.7516C115.205 55.052 115.487 55.2597 115.826 55.3746L117.026 55.2681L116.93 54.1945C116.869 53.5965 116.716 53.1381 116.471 52.8194C116.229 52.5004 115.921 52.3574 115.548 52.3905C115.242 52.4177 114.998 52.5522 114.816 52.7942C114.635 53.0395 114.561 53.3428 114.593 53.704Z" fill="#211F1F"/>
<path d="M114.317 59.7633C114.323 59.3 114.443 58.8818 114.678 58.5087C114.912 58.139 115.235 57.8526 115.646 57.6497C116.061 57.4468 116.523 57.3487 117.033 57.3552L117.25 57.358C117.777 57.3648 118.25 57.4716 118.669 57.6784C119.088 57.8887 119.416 58.1766 119.651 58.5423C119.889 58.908 120.005 59.3024 120 59.7254C119.991 60.3869 119.757 60.9077 119.296 61.288C118.838 61.6716 118.217 61.8584 117.43 61.8483L117.091 61.844L117.141 57.956L117.025 57.9545C116.404 57.9466 115.883 58.1162 115.463 58.4634C115.047 58.814 114.835 59.2579 114.828 59.7951C114.824 60.1174 114.88 60.4019 114.994 60.6485C115.109 60.8984 115.296 61.1258 115.553 61.3306L115.259 61.7046C114.62 61.2531 114.306 60.6061 114.317 59.7633ZM119.483 59.7188C119.489 59.2656 119.327 58.8807 118.997 58.5641C118.667 58.251 118.22 58.0572 117.657 57.9828L117.615 61.2513L117.681 61.2521C118.208 61.2421 118.638 61.0982 118.973 60.8204C119.307 60.5426 119.477 60.1754 119.483 59.7188Z" fill="#211F1F"/>
<path d="M118.816 67.4217L119.031 65.4488L114.098 64.9159L114.163 64.315L119.097 64.848L119.304 62.9503L119.818 63.0057L119.329 67.4771L118.816 67.4217Z" fill="#211F1F"/>
<path d="M113.276 69.5272C113.368 69.0732 113.565 68.6846 113.865 68.3615C114.165 68.0417 114.535 67.8202 114.977 67.6971C115.423 67.5746 115.895 67.5638 116.395 67.6647L116.608 67.7078C117.124 67.8121 117.569 68.0047 117.942 68.2857C118.314 68.57 118.582 68.9135 118.744 69.3164C118.91 69.7199 118.95 70.1289 118.866 70.5435C118.733 71.1918 118.405 71.66 117.881 71.9482C117.36 72.2403 116.714 72.3085 115.943 72.1528L115.611 72.0856L116.389 68.2751L116.275 68.2521C115.666 68.1291 115.123 68.1993 114.645 68.4626C114.17 68.7298 113.879 69.1267 113.772 69.6532C113.707 69.9691 113.708 70.2588 113.775 70.5224C113.841 70.7893 113.981 71.0472 114.196 71.2961L113.837 71.6092C113.294 71.0471 113.107 70.3532 113.276 69.5272ZM118.359 70.4413C118.45 69.997 118.363 69.5888 118.098 69.2166C117.832 68.8477 117.43 68.5746 116.891 68.3972L116.237 71.6005L116.301 71.6135C116.821 71.7013 117.271 71.6398 117.651 71.4289C118.032 71.218 118.268 70.8888 118.359 70.4413Z" fill="#211F1F"/>
<path d="M111.307 72.3725L111.656 72.0976C111.971 72.5013 112.341 72.7666 112.764 72.8936L113.521 73.1017L113.363 73.6696L112.753 73.5018C112.076 73.3157 111.594 72.9392 111.307 72.3725Z" fill="#211F1F"/>
<path d="M109.625 81.2405L109.858 80.6822L111.986 81.5602C112.009 81.0317 112.108 80.5581 112.282 80.1394C112.56 79.4725 112.909 79.0491 113.327 78.8692C113.749 78.6906 114.274 78.7237 114.903 78.9686L116.269 79.532L116.038 80.0856L114.7 79.5338C114.214 79.3406 113.821 79.3019 113.521 79.4179C113.222 79.5382 112.97 79.8449 112.764 80.3381C112.589 80.793 112.487 81.2653 112.458 81.755L114.919 82.77L114.686 83.3283L109.625 81.2405Z" fill="#211F1F"/>
<path d="M111.498 88.4255L112.435 86.6735L108.054 84.3553L108.339 83.8217L112.72 86.14L113.622 84.4547L114.078 84.696L111.954 88.6667L111.498 88.4255Z" fill="#211F1F"/>
<path d="M109.336 87.9579C109.774 88.2482 110.113 88.5936 110.352 88.9939C110.589 89.3971 110.701 89.8166 110.689 90.2524C110.678 90.6929 110.542 91.1088 110.28 91.5C109.876 92.1037 109.334 92.4512 108.657 92.5428C107.982 92.6362 107.293 92.4502 106.59 91.9849L106.485 91.9151C106.044 91.6229 105.703 91.2742 105.464 90.8692C105.225 90.4689 105.113 90.0517 105.127 89.6178C105.142 89.1838 105.282 88.7698 105.545 88.3757C105.948 87.7749 106.487 87.4264 107.164 87.3302C107.842 87.2386 108.532 87.4255 109.235 87.8909L109.336 87.9579ZM108.86 88.3688C108.315 88.0076 107.773 87.8505 107.235 87.8973C106.697 87.9487 106.276 88.2022 105.971 88.6577C105.668 89.1105 105.597 89.5919 105.758 90.1022C105.92 90.6171 106.288 91.0645 106.861 91.4442L106.958 91.5084C107.307 91.7392 107.669 91.8862 108.044 91.9494C108.42 92.0125 108.764 91.9803 109.076 91.8525C109.392 91.7267 109.65 91.5143 109.85 91.2152C110.149 90.7681 110.217 90.2861 110.051 89.7693C109.889 89.2544 109.523 88.808 108.953 88.4302L108.86 88.3688Z" fill="#211F1F"/>
<path d="M102.264 93.898L102.338 94.3301C102.471 95.0308 102.923 95.7804 103.693 96.5788L105.157 98.0609L102.955 100.419L99.3148 97.0574L98.9288 97.4708L97.374 96.0348L97.784 95.5956L98.9641 96.6854L101.765 93.6847L100.585 92.5949L100.982 92.1705L102.533 93.6101L102.264 93.898ZM101.789 94.4073L99.7282 96.6145L102.953 99.5926L104.348 98.0978L103.35 97.0868C102.434 96.1583 101.914 95.2652 101.789 94.4073Z" fill="#211F1F"/>
<path d="M95.9069 99.3736C96.2585 99.0696 96.6523 98.8804 97.0882 98.806C97.5216 98.7338 97.9513 98.7827 98.3773 98.9527C98.8055 99.1253 99.1868 99.4029 99.5212 99.7856L99.6641 99.949C100.01 100.344 100.244 100.766 100.368 101.215C100.49 101.667 100.491 102.101 100.374 102.519C100.258 102.939 100.04 103.288 99.7185 103.566C99.2166 104 98.6696 104.172 98.0776 104.084C97.4853 104 96.9311 103.662 96.4151 103.072L96.1925 102.817L99.1428 100.266L99.0664 100.179C98.6589 99.7125 98.1852 99.4392 97.6452 99.3588C97.1049 99.2832 96.631 99.4216 96.2233 99.774C95.9787 99.9855 95.8022 100.216 95.6937 100.465C95.5827 100.717 95.536 101.007 95.5537 101.334L95.0777 101.365C94.991 100.59 95.2674 99.9265 95.9069 99.3736ZM99.3796 103.178C99.7236 102.881 99.9044 102.504 99.9221 102.048C99.9372 101.595 99.7853 101.134 99.4664 100.667L96.9861 102.812L97.0293 102.861C97.3876 103.245 97.7822 103.469 98.2133 103.533C98.6443 103.596 99.0331 103.478 99.3796 103.178Z" fill="#211F1F"/>
<path d="M93.0714 108.488L89.9341 104.02L90.4323 103.674L93.2709 107.717L95.1101 106.439L94.0146 104.712C93.6129 104.07 93.3427 103.553 93.204 103.162C93.0673 102.773 93.0347 102.44 93.1063 102.161C93.178 101.882 93.3633 101.638 93.6622 101.43L93.8532 101.298L94.1605 101.736L94.0127 101.85C93.7315 102.054 93.6233 102.334 93.6882 102.69C93.7531 103.047 94.0098 103.585 94.4581 104.306L95.8861 106.533L93.0714 108.488Z" fill="#211F1F"/>
<path d="M85.6572 106.499C85.794 106.619 85.9519 106.822 86.1308 107.107C86.1821 106.763 86.3153 106.446 86.5305 106.154C86.7444 105.866 87.0121 105.633 87.3336 105.455C87.7938 105.201 88.2383 105.122 88.6673 105.219C89.0933 105.317 89.4155 105.561 89.6339 105.952C89.8932 106.415 89.9052 106.889 89.6699 107.373C89.4315 107.858 88.9658 108.293 88.2725 108.677L87.3124 109.208L87.6153 109.749C87.8057 110.09 88.0613 110.298 88.382 110.374C88.7015 110.455 89.0633 110.383 89.4674 110.159C89.8361 109.955 90.0889 109.692 90.2257 109.371C90.3625 109.049 90.357 108.756 90.2093 108.492L90.7427 108.203C90.9545 108.581 90.9606 109.006 90.7609 109.478C90.5629 109.953 90.2058 110.333 89.6896 110.619C89.1556 110.914 88.6606 111.013 88.2044 110.916C87.7469 110.824 87.3808 110.542 87.106 110.072L85.8451 107.818C85.5874 107.358 85.3458 107.04 85.1204 106.865L85.0909 106.812L85.6572 106.499ZM87.5327 105.956C87.1787 106.152 86.9107 106.412 86.7286 106.736C86.5436 107.061 86.4673 107.401 86.4997 107.756L87.0858 108.803L88.0327 108.279C88.5574 107.981 88.9162 107.655 89.1091 107.303C89.3036 106.953 89.3097 106.615 89.1275 106.29C88.9781 106.023 88.7553 105.856 88.4592 105.789C88.1601 105.724 87.8513 105.78 87.5327 105.956Z" fill="#211F1F"/>
<path d="M82.2954 113.491L84.1226 112.694L82.1293 108.174L82.6858 107.931L84.6791 112.451L86.4367 111.685L86.6441 112.155L82.5029 113.962L82.2954 113.491Z" fill="#211F1F"/>
<path d="M79.8903 112.815L78.3898 113.307C78.0051 113.433 77.6452 113.473 77.3101 113.428C76.9729 113.386 76.6899 113.267 76.461 113.07C76.229 112.874 76.059 112.613 75.9512 112.288C75.7852 111.787 75.8252 111.328 76.0711 110.912C76.3148 110.5 76.73 110.197 77.3167 110.005L79.3703 109.332L81.0857 114.507L80.5134 114.695L79.8903 112.815ZM79.7286 112.327L78.9581 110.002L77.4672 110.491C77.0536 110.627 76.7642 110.837 76.5988 111.121C76.4303 111.406 76.4057 111.728 76.5251 112.089C76.6393 112.433 76.8467 112.673 77.1473 112.808C77.4457 112.947 77.7948 112.954 78.1945 112.83L79.7286 112.327Z" fill="#211F1F"/>
<path d="M71.6478 111.897C71.671 112.013 71.654 112.117 71.597 112.21C71.5374 112.308 71.4414 112.37 71.309 112.396C71.1765 112.422 71.064 112.402 70.9713 112.335C70.8793 112.271 70.8218 112.181 70.7987 112.066C70.7755 111.951 70.7944 111.848 70.8554 111.757C70.917 111.669 71.014 111.612 71.1464 111.586C71.2789 111.56 71.3904 111.575 71.4811 111.633C71.5691 111.694 71.6247 111.782 71.6478 111.897ZM72.5526 116.458C72.5757 116.574 72.5588 116.678 72.5018 116.771C72.4422 116.869 72.3462 116.931 72.2138 116.957C72.0813 116.983 71.9688 116.963 71.8761 116.896C71.7841 116.832 71.7266 116.742 71.7034 116.627C71.6803 116.512 71.6992 116.409 71.7602 116.318C71.8218 116.23 71.9188 116.173 72.0512 116.147C72.1837 116.121 72.2952 116.136 72.3859 116.193C72.4739 116.255 72.5295 116.343 72.5526 116.458Z" fill="#211F1F"/>
<path d="M68.135 115.062C68.025 114.332 68.0107 113.614 68.0923 112.909C68.1711 112.208 68.3468 111.551 68.6195 110.936C68.8922 110.322 69.2244 109.853 69.6161 109.53L69.8191 109.892C69.5269 110.173 69.279 110.578 69.0755 111.108C68.8685 111.638 68.7337 112.238 68.671 112.91C68.6088 113.584 68.6349 114.302 68.7495 115.063C68.853 115.75 69.0329 116.4 69.2892 117.014C69.546 117.631 69.854 118.169 70.2134 118.628C70.5698 119.091 70.9256 119.413 71.2806 119.595L71.1931 120C70.734 119.807 70.2835 119.457 69.8417 118.949C69.4 118.441 69.0341 117.858 68.7441 117.202C68.4541 116.546 68.2511 115.833 68.135 115.062Z" fill="#211F1F"/>
</svg>
