<svg width="24" height="24" viewBox="0 0 24 24" fill="none" xmlns="http://www.w3.org/2000/svg">
<path d="M12.4502 2.76207C11.1898 3.95483 9.80385 5.01508 8.60264 6.26545C8.04643 6.84442 7.81257 7.66274 7.32197 8.28175C6.62955 9.15541 6.52111 10.2778 6.05249 11.2453C5.69664 11.98 5.02093 12.8706 5.00112 13.6956C4.976 14.7413 5.37882 15.6675 5.7505 16.6221C5.94312 17.1169 6.30844 17.4111 6.61174 17.834C7.01541 18.397 7.51631 19.0048 8.06577 19.4534C8.57742 19.8711 9.1417 20.2694 9.74349 20.5542C10.252 20.7948 10.8456 20.673 11.3877 20.787C12.3336 20.986 13.5093 21.0844 14.4747 20.9087C15.0275 20.8082 15.5494 20.857 16.0517 20.5753C16.361 20.4019 16.5645 20.2031 16.8571 20.0038C17.2032 19.7679 17.4183 19.3977 17.7407 19.1465C18.2031 18.7861 18.6724 18.4959 19.0381 18.051C19.78 17.1484 20 16.017 20 14.9128C20 11.9369 17.8892 9.98423 16.3314 7.62552C15.6115 6.53552 14.777 5.54739 14.0608 4.45554C13.9192 4.23953 13.4311 2 13.4569 2" stroke="#211F1F" stroke-width="1.2" stroke-linecap="round" stroke-linejoin="round"/>
<path d="M16.8943 12C18.5 15.5 17.5 18.5 14 19" stroke="#211F1F" stroke-linecap="round" stroke-linejoin="round"/>
</svg>
