<svg width="24" height="24" viewBox="0 0 24 24" fill="none" xmlns="http://www.w3.org/2000/svg">
<path d="M12.2379 21.7872C12.7393 20.9662 13.5972 20.3865 14.2506 19.6929C14.3994 19.5348 14.5535 19.3354 14.7329 19.212C14.8951 19.1005 14.9762 18.974 15.1119 18.8393C15.8229 18.1331 16.5012 17.4085 17.286 16.7737C17.4881 16.6103 17.7226 16.4648 17.8989 16.2731C18.1237 16.0288 18.3253 15.7652 18.5408 15.5132C18.9721 15.0089 19.3891 14.5279 19.7104 13.9428C19.9118 13.5762 20.1495 13.2402 20.3795 12.8912C20.5797 12.5874 20.9019 12.3558 21.0105 12.0052C21.0394 11.9121 21.0211 11.7716 21.0667 11.69C21.1314 11.5744 21.2656 11.2628 21.1936 11.148C20.7303 10.4085 19.8953 9.93419 19.491 9.15988C19.2291 8.65821 18.8202 8.21214 18.4755 7.76605C18.1974 7.40606 17.9863 7.01013 17.7085 6.65314C17.6565 6.58629 17.548 6.36288 17.48 6.32539C17.2463 6.19642 16.6642 6.24335 16.4338 6.22815C15.7598 6.18367 15.0869 6.16713 14.412 6.14531C13.8809 6.12814 13.3611 6.09985 12.829 6.09849C11.8279 6.09593 10.8253 6.06435 9.82619 6.00845C9.31169 5.97966 8.80206 6.03366 8.28853 6.03366C7.85435 6.03366 7.39164 5.97847 6.96121 6.03546C6.74424 6.06419 6.67038 6.15422 6.55141 6.30739C6.24556 6.70113 5.8141 6.97095 5.42355 7.27262C5.09854 7.52367 4.71502 7.76348 4.46795 8.09379C4.1921 8.46258 3.90439 8.86416 3.58488 9.19589C3.26305 9.53004 2.99654 9.90358 2.64198 10.208C2.33458 10.4718 2.02277 10.8484 1.826 11.202C1.71374 11.4038 1.85368 11.4819 2.02909 11.6342C2.62427 12.151 3.32727 12.558 3.97111 13.0136C4.5518 13.4245 5.0913 13.8322 5.55229 14.3696C6.11698 15.028 6.55721 15.7668 7.13891 16.4136C7.63875 16.9693 8.11854 17.5591 8.56778 18.1568C9.38426 19.243 10.2633 20.2689 11.2569 21.2037C11.5164 21.4479 11.7908 21.6818 12.042 21.9313C12.1812 22.0695 12.1414 21.9848 12.1236 21.8052C12.0999 21.5648 12.0003 21.351 11.9115 21.1281C11.8289 20.921 11.776 20.7571 11.6504 20.5698C11.47 20.3011 11.4036 20.0416 11.3058 19.7415C11.1467 19.2531 11.0608 18.7557 10.9105 18.2648C10.7846 17.8536 10.5977 17.4606 10.4753 17.0475C10.2904 16.4229 10.057 15.8057 9.73734 15.2358C9.36338 14.5692 8.82332 14.0167 8.43722 13.3594C8.29864 13.1234 8.1842 12.8635 8.07638 12.612C7.96178 12.3448 7.93754 12.0865 7.87148 11.8071C7.84472 11.6939 7.62266 11.2829 7.69378 11.1858C7.87269 10.9415 8.14216 10.7658 8.33568 10.5321C8.78156 9.99353 9.07327 9.35505 9.31666 8.70427C9.45166 8.34332 9.62651 8.00047 9.76454 7.63999C9.86056 7.38924 9.97067 7.19593 10.178 7.01691C10.3578 6.86157 10.5905 6.74705 10.6422 6.51628C10.6492 6.48467 10.7551 6.21338 10.7764 6.21014C10.9927 6.17726 11.2141 6.21606 11.4328 6.22455C12.1628 6.25288 12.5078 6.27063 13.2533 6.28938C13.7581 6.30207 14.2596 6.29298 14.7638 6.29298C14.9605 6.29298 15.1505 6.32539 15.3458 6.32539C15.5182 6.32539 15.1355 6.32539 15.0956 6.32539C14.9892 6.32539 14.8828 6.32539 14.7764 6.32539C14.5922 6.32539 14.4153 6.39022 14.2307 6.39022C14.0234 6.39022 14.2719 6.8757 14.2941 7.0079C14.3874 7.56395 14.5472 8.13212 14.8417 8.61963C14.9774 8.84425 15.0566 9.10411 15.1754 9.33996C15.3712 9.72891 15.5421 10.1281 15.7284 10.5213C15.9021 10.8879 16.1514 11.2126 16.325 11.5766C16.3931 11.7194 16.2203 11.9862 16.1545 12.1132C16.0537 12.3079 16.0321 12.5469 15.9424 12.7579C15.7719 13.1588 15.5081 13.4964 15.3041 13.8762C15.1541 14.1555 15.0297 14.4537 14.8744 14.728C14.6162 15.1839 14.3553 15.634 14.0874 16.0858C13.812 16.5504 13.4957 16.9862 13.2352 17.458C13.0806 17.7379 13.0471 18.0612 12.9867 18.3711C12.8722 18.9586 12.5795 19.5261 12.2886 20.044C12.0879 20.4014 11.81 20.7488 11.5542 21.0687C11.4377 21.2144 11.2209 21.381 11.1608 21.5603" stroke="#211F1F" stroke-linecap="round" stroke-linejoin="round"/>
<path d="M1.78571 11.7144C4.48039 11.7144 7.17839 11.7144 9.88887 11.7144C10.8969 11.7144 11.9041 11.7144 12.9121 11.7144C13.7458 11.7144 14.5895 11.7144 15.4213 11.7144C16.8165 11.7144 18.219 11.7144 19.619 11.7144C20.0156 11.7144 20.4267 11.7144 20.8163 11.7144C20.9494 11.7144 21.0767 11.7144 21.2143 11.7144" stroke="#211F1F" stroke-linecap="round" stroke-linejoin="round"/>
</svg>
