<svg width="24" height="24" viewBox="0 0 24 24" fill="none" xmlns="http://www.w3.org/2000/svg">
<path d="M6.22589 3.30147C7.95107 2.29161 10.0606 1.85656 12.0184 1.32492C12.4653 1.34369 12.93 1.29803 13.3566 1.29803C14.353 1.29803 15.268 1.45349 16.1603 1.91617C16.9116 2.30574 17.6783 2.97206 18.2797 3.56087C18.9182 4.18614 19.4182 4.68822 19.8857 5.48153C20.4413 6.42438 20.6907 7.3525 21.0061 8.38459C21.501 10.0043 21.7646 11.4374 21.4807 13.109C21.1877 14.8347 20.1642 16.355 19.0634 17.6788C18.3524 18.5337 17.6233 19.4797 16.7674 20.1955C16.0452 20.7996 15.164 21.202 14.3059 21.5698C10.9335 23.0151 7.13525 21.5425 4.82955 18.9151C2.93415 16.7552 2.16515 14.2569 2.0148 11.4753C1.91053 9.54637 2.35753 7.54011 3.35042 5.86787C3.65034 5.36275 3.9394 5.02594 4.42665 4.68678C5.04661 4.25523 5.57358 3.68331 6.22589 3.30147Z" fill="#FFC300"/>
<path d="M13.1358 1C10.8929 1.70951 8.28545 2.09588 6.22589 3.30147C5.57358 3.68331 5.04661 4.25523 4.42665 4.68678C3.9394 5.02594 3.65034 5.36275 3.35042 5.86787C2.35753 7.54011 1.91053 9.54637 2.0148 11.4753C2.16515 14.2569 2.93415 16.7552 4.82955 18.9151C7.13525 21.5425 10.9335 23.0151 14.3059 21.5698C15.164 21.202 16.0452 20.7996 16.7674 20.1955C17.6233 19.4797 18.3524 18.5337 19.0634 17.6788C20.1642 16.355 21.1877 14.8347 21.4807 13.109C21.7646 11.4374 21.501 10.0043 21.0061 8.38459C20.6907 7.3525 20.4413 6.42438 19.8857 5.48153C19.4182 4.68822 18.9182 4.18614 18.2797 3.56087C17.6783 2.97206 16.9116 2.30574 16.1603 1.91617C15.268 1.45349 14.353 1.29803 13.3566 1.29803C12.675 1.29803 11.896 1.41458 11.2483 1.19869" stroke="#211F1F" stroke-width="1.5" stroke-linecap="round" stroke-linejoin="round"/>
<path d="M6.50732 8.03537C7.87926 9.80261 9.0094 11.7304 10.1702 13.6375C10.4803 14.1469 10.8241 14.642 11.1129 15.1619C11.1921 15.3044 11.2528 15.4565 11.3337 15.5982C11.3823 15.6832 11.3551 15.4298 11.3553 15.4258C11.3716 15.0511 11.5142 14.6967 11.6408 14.3485C11.7811 13.9627 11.8637 13.5606 12.0017 13.1742C12.3832 12.1061 13.1623 11.1345 13.7685 10.19C14.3682 9.25577 14.9484 8.17616 15.8154 7.45361" stroke="#211F1F" stroke-width="1.5" stroke-linecap="round" stroke-linejoin="round"/>
</svg>
