<svg width="24" height="24" viewBox="0 0 24 24" fill="none" xmlns="http://www.w3.org/2000/svg">
<path d="M12.2614 11.5496C11.7605 11.7194 8.95454 13.208 10.3577 14.1435C11.3555 14.8086 13.7376 14.4061 14.0538 13.1416C14.7727 10.266 10.4735 11.3101 11.304 13.7093C11.5324 14.3691 12.6622 14.3965 12.6622 13.6203C12.6622 12.9337 13.1051 10.5343 12.0499 10.3584C11.0682 10.1948 9.99616 11.6513 9.74545 12.4625C9.33494 13.7906 10.6436 15.19 11.9497 15.1565C14.4459 15.0925 13.453 10.3334 11.3597 11.4605C9.98121 12.2028 10.961 13.6332 11.972 14.1101C13.4114 14.7891 14.2469 12.9583 13.9758 11.7722C13.2618 8.64842 7.73033 11.9507 12.139 13.2306C13.2491 13.5529 13.8662 12.7907 13.6196 11.7054C13.3508 10.5227 11.5532 11.1131 12.2614 11.3492" stroke="#211F1F" stroke-linecap="round" stroke-linejoin="round"/>
</svg>
