<svg width="24" height="24" viewBox="0 0 24 24" fill="none" xmlns="http://www.w3.org/2000/svg">
<path d="M2.56236 21.9105C3.30769 19.994 4.76345 18.5418 5.44549 16.5878C6.26357 14.2441 7.83307 12.1549 8.55039 9.82357C8.8234 8.93629 9.53628 7.98244 9.99196 7.16222C10.2826 6.63913 10.3804 6.09626 10.5957 5.54816C10.8593 4.87721 11.5715 4.52056 11.6553 3.72465C11.7708 2.62785 12.5089 3.61817 12.8504 3.92179C13.7476 4.71926 14.1885 6.39588 14.8588 7.42096C16.0064 9.17624 17.0381 11.0228 17.9637 12.9038C18.6972 14.3945 19.2328 15.908 19.8611 17.4503C20.55 19.1411 21.6555 20.0677 22.695 21.467C23.663 22.7701 21.0379 22.0265 20.354 21.9598C18.8102 21.8092 17.3206 22.0597 15.7829 22.12C12.0704 22.2656 8.32135 22.3541 4.60766 22.3541C3.67897 22.3541 2.79382 22.4271 1.90935 22.1323C1.61091 22.0328 1.89703 21.3536 1.89703 21.0234" stroke="#211F1F" stroke-linecap="round" stroke-linejoin="round"/>
<path d="M7.66309 11.0432C7.86256 12.1292 8.16893 13.1857 8.37771 14.2713C8.62574 15.5611 9.07714 15.3244 9.6591 14.4192C10.1562 13.6458 10.0558 12.6336 10.6448 11.881C11.0493 11.3642 11.5483 10.9254 11.9631 10.4148C12.3864 9.89389 12.54 10.9686 12.6654 11.265C12.8479 11.6963 13.2573 13.5598 13.5402 12.4848C13.5976 12.2668 14.0178 10.7559 14.4273 11.3019C14.8818 11.9078 16.2162 15.6363 16.8546 14.5917C17.2969 13.8678 17.5998 12.9474 17.8649 12.1521" stroke="#211F1F" stroke-linecap="round" stroke-linejoin="round"/>
<path d="M5.00208 3.72454C4.0018 3.9496 2.78898 5.17613 3.89319 6.16411C4.84832 7.0187 5.8892 6.09953 5.8892 5.05521C5.8892 3.8628 4.36139 4.81607 4.36139 4.05721C4.36139 3.77217 4.55853 1.55538 4.55853 2.39387" stroke="#211F1F" stroke-linecap="round" stroke-linejoin="round"/>
<path d="M4.78027 6.60767C4.78027 6.87383 4.78027 8.28481 4.78027 8.16012" stroke="#211F1F" stroke-linecap="round" stroke-linejoin="round"/>
<path d="M2.7836 5.49878C2.66585 5.49878 1.92131 5.49878 1.89648 5.49878" stroke="#211F1F" stroke-linecap="round" stroke-linejoin="round"/>
<path d="M5.66699 5.7207C6.11055 5.7207 6.55411 5.7207 6.99767 5.7207" stroke="#211F1F" stroke-linecap="round" stroke-linejoin="round"/>
<path d="M5.22363 4.61168C5.78168 4.18891 6.21246 3.65676 6.77609 3.28101" stroke="#211F1F" stroke-linecap="round" stroke-linejoin="round"/>
<path d="M3.22719 4.39005C2.90879 4.15593 1.32263 3.50293 2.11829 3.50293" stroke="#211F1F" stroke-linecap="round" stroke-linejoin="round"/>
<path d="M3.67149 6.60767C3.30796 7.46303 3.02271 7.6487 2.34082 8.16012" stroke="#211F1F" stroke-linecap="round" stroke-linejoin="round"/>
</svg>
