<svg width="128" height="29" viewBox="0 0 128 29" fill="none" xmlns="http://www.w3.org/2000/svg">
<path d="M1.78094 27.1879C6.27517 26.5024 10.5549 25.4351 14.9897 24.4236C19.0274 23.5028 23.1402 23.3228 27.2296 22.7707C31.7065 22.1664 36.1296 21.2849 40.6236 20.7901C44.9031 20.319 48.8779 20.0723 52.9205 18.4818C55.4654 17.4805 58.0881 16.9062 60.7431 16.2732C63.9137 15.5173 66.9656 14.4342 70.1047 13.5659C74.5693 12.331 78.7134 11.7904 83.3135 11.4856C87.6744 11.1966 91.6564 9.44012 95.8526 8.3793C98.0423 7.8257 100.454 7.58717 102.478 6.52693C104.409 5.51564 106.769 5.1567 108.905 4.87405C113.105 4.31807 117.132 4.56353 121.159 3.22117C122.905 2.63895 124.494 2.09981 126.174 1.53979" stroke="#B1B1B1" stroke-width="2" stroke-linecap="round" stroke-linejoin="round"/>
</svg>
