<svg width="7" height="10" viewBox="0 0 7 10" fill="none" xmlns="http://www.w3.org/2000/svg">
<path d="M4.41367 3.0636C2.60482 3.81361 1.85779 5.62033 2.75121 7.60569C3.18107 8.56094 4.47109 7.38901 4.62148 6.80415C4.98959 5.37262 4.73227 3.95411 3.13714 3.65734C1.01081 3.26174 1.09631 6.013 1.48951 7.32367C1.88186 8.6315 4.09154 9.23405 5.08163 8.24396C5.73874 7.58685 6.88144 4.65239 5.21522 4.41435C4.26311 4.27834 3.07776 4.14057 3.07776 5.34949C3.07776 6.47248 3.9782 8.17407 5.06678 6.77446C5.82466 5.80005 6.81504 4.19664 6.22457 2.94485C5.87637 2.20666 5.02744 1.26913 4.08712 1.51988C2.1924 2.02514 0.793946 3.64251 1.26686 5.67605C1.7388 7.70537 3.88615 7.23969 5.0371 6.06198C6.6145 4.44789 4.46148 2.59275 2.79574 3.5089C1.90351 3.99963 0.200593 6.35774 2.14262 6.7893C3.15957 7.01529 4.97304 4.29701 3.47854 3.7464C2.07248 3.22838 0.10712 5.10809 0.821558 6.53697C1.66398 8.22181 2.79419 6.86972 3.07776 5.73542" stroke="#211F1F" stroke-linecap="round" stroke-linejoin="round"/>
</svg>
