<svg width="7" height="8" viewBox="0 0 7 8" fill="none" xmlns="http://www.w3.org/2000/svg">
<path d="M4.8588 2.06352C1.88912 1.66757 0.456674 2.14465 0.984656 5.41814C1.3187 7.48924 4.20788 8.17683 5.66034 6.72437C7.94749 4.43722 2.31411 0.360257 2.45416 4.14161C2.50634 5.55042 4.93524 6.61073 5.49706 4.98768C5.83439 4.01317 5.66034 2.8277 5.66034 1.81119C5.66034 1.0091 4.68131 1.21646 4.08694 1.32135C2.86553 1.53689 0.0586269 3.17009 1.40027 4.73534C3.02074 6.62589 4.68653 5.60798 5.0666 3.36975C5.81324 -1.02712 -1.19719 4.63409 3.52289 5.7447C5.19919 6.13912 4.85525 2.84722 3.34476 3.56271C1.8391 4.27592 -0.225471 6.07125 2.89946 6.07125C3.91636 6.07125 6.72256 4.2186 4.71036 3.54787C3.64362 3.19229 0.26168 4.79727 1.97917 5.80407C3.47064 6.67838 6.4616 5.48451 5.11113 3.45881C4.67521 2.80491 1.14165 3.18721 4.8588 4.20098" stroke="#211F1F" stroke-linecap="round" stroke-linejoin="round"/>
</svg>
