<svg width="8" height="8" viewBox="0 0 8 8" fill="none" xmlns="http://www.w3.org/2000/svg">
<path d="M4.34855 2.39949C3.68061 2.62592 -0.0606195 4.61073 1.81032 5.85802C3.14062 6.74488 6.31683 6.20816 6.73834 4.52211C7.69687 0.687992 1.96469 2.08021 3.07201 5.27912C3.37652 6.15882 4.88291 6.19536 4.88291 5.16038C4.88291 4.24494 5.47347 1.04574 4.06652 0.811246C2.75761 0.593094 1.32822 2.53513 0.993929 3.61666C0.446589 5.38746 2.19145 7.25342 3.93293 7.20877C7.26122 7.12343 5.93727 0.777879 3.14623 2.28075C1.30828 3.27041 2.61463 5.17764 3.96262 5.81349C5.88193 6.71882 6.99592 4.27784 6.63444 2.69636C5.68242 -1.46873 -1.69289 2.93429 4.18527 4.64085C5.66542 5.07058 6.48831 4.05429 6.15945 2.6073C5.80104 1.03029 3.4042 1.81753 4.34855 2.13231" stroke="#211F1F" stroke-linecap="round" stroke-linejoin="round"/>
</svg>
