<svg width="20" height="20" viewBox="0 0 20 20" fill="none" xmlns="http://www.w3.org/2000/svg">
<path d="M15.398 7.23008L16.87 5.75808C18.749 6.84208 20 8.34008 20 10.0001C20 13.3141 15.042 15.9931 10 16.0001C8.97397 16 7.95075 15.8928 6.947 15.6801L8.694 13.9341C9.12 13.9781 9.556 14.0011 9.997 14.0001H9.999C9.584 14.0001 9.184 13.9371 8.808 13.8201L10.789 11.8381C11.259 11.6361 11.636 11.2591 11.839 10.7891L13.819 8.80808C14.0054 9.4052 14.0492 10.0377 13.9468 10.6548C13.8444 11.2719 13.5987 11.8564 13.2295 12.3614C12.8602 12.8663 12.3777 13.2776 11.8206 13.5622C11.2636 13.8468 10.6475 13.9968 10.022 14.0001C14.267 13.9851 18 11.8161 18 10.0001C18 9.05708 16.978 8.01408 15.398 7.23008ZM6.096 10.8751C5.96495 10.2905 5.96688 9.68393 6.10166 9.10018C6.23644 8.51644 6.50063 7.97043 6.87471 7.50247C7.24879 7.03451 7.72321 6.65656 8.26293 6.39652C8.80266 6.13648 9.3939 6.001 9.993 6.00008C5.775 5.98508 2 8.17808 2 10.0001C2 10.8961 2.904 11.8771 4.327 12.6441L2.869 14.1001C1.134 13.0281 0 11.5851 0 10.0001C0 6.68608 4.984 3.98308 10 4.00008C10.914 4.00308 11.827 4.09408 12.709 4.26208L10.932 6.03808C10.642 6.01608 10.348 6.00308 10.052 6.00008C10.334 6.00408 10.609 6.03708 10.875 6.09608L6.095 10.8751H6.096ZM19.092 0.707082C19.2795 0.894609 19.3848 1.14892 19.3848 1.41408C19.3848 1.67925 19.2795 1.93355 19.092 2.12108L2.122 19.0911C2.02982 19.1867 1.91953 19.2629 1.79756 19.3154C1.6756 19.3679 1.5444 19.3956 1.41162 19.3968C1.27884 19.3981 1.14715 19.3729 1.02422 19.3227C0.901286 19.2725 0.789582 19.1983 0.695624 19.1045C0.601666 19.0106 0.527334 18.8991 0.476967 18.7762C0.426599 18.6533 0.401204 18.5217 0.402262 18.3889C0.403321 18.2561 0.430813 18.1249 0.483134 18.0028C0.535455 17.8808 0.611557 17.7704 0.707 17.6781L17.677 0.708081C17.7699 0.615105 17.8802 0.541346 18.0016 0.491022C18.123 0.440698 18.2531 0.414795 18.3845 0.414795C18.5159 0.414795 18.646 0.440698 18.7674 0.491022C18.8888 0.541346 18.9991 0.615105 19.092 0.708081V0.707082Z" fill="black"/>
</svg>
