<svg width="24" height="24" viewBox="0 0 24 24" fill="none" xmlns="http://www.w3.org/2000/svg">
<path d="M9.44833 1.97324C11.1554 1.36757 12.9458 1.51608 14.7694 1.51608L10.2596 2.13325C15.8895 2.13325 22.5005 5.66984 22.5005 11.6995C22.5005 16.9981 19.9301 22.5 13.6002 22.5C10.8806 22.5 6.89332 21.7211 4.90272 19.8141C2.88835 17.8845 2.467 15.7106 1.71722 13.1967C0.789162 10.085 3.00054 6.82418 5.21292 4.70481C6.40354 3.56425 7.8472 2.54132 9.44833 1.97324Z" stroke="#211F1F" stroke-linecap="round" stroke-linejoin="round"/>
<path d="M8.80371 8.63782C9.17423 10.5727 9.51867 12.5891 9.6885 14.5498C9.7482 15.239 9.73799 15.973 9.88557 16.6371C9.88626 16.6403 10.9611 15.6322 11.1042 15.499C12.4387 14.2567 13.8597 13.1075 15.1581 11.8271C16.0895 10.9087 16.8618 9.84588 17.7803 8.92739" stroke="#211F1F" stroke-linecap="round" stroke-linejoin="round"/>
</svg>
