<svg width="24" height="24" viewBox="0 0 24 24" fill="none" xmlns="http://www.w3.org/2000/svg">
<path d="M5.57379 7.47705C5.57379 8.58163 5.6526 9.72906 5.56777 10.8319C5.46683 12.1442 5.57379 13.3824 5.57379 14.6927C5.57379 15.4858 5.57379 16.2788 5.57379 17.0719C5.57379 17.7316 5.79062 18.3182 5.79062 18.9691C5.79062 19.5296 6.22843 19.9364 6.33872 20.4328C6.50644 21.1875 7.44189 21.2396 8.01917 21.3302C9.7758 21.6057 11.5917 21.5711 13.3797 21.5711C14.1559 21.5711 14.9001 21.4627 15.6565 21.4627C16.1357 21.4627 16.9092 21.3243 17.1743 20.8604C17.4775 20.3298 17.3541 19.7029 17.5839 19.186C17.8036 18.6916 17.7164 17.8367 17.7164 17.2887C17.7164 16.4464 17.4995 15.5954 17.4995 14.7409C17.4995 13.9298 17.4995 13.1187 17.4995 12.3076C17.4995 10.6974 17.4995 9.08723 17.4995 7.47705" stroke="#E52323" stroke-opacity="0.95" stroke-width="1.5" stroke-linecap="round" stroke-linejoin="round"/>
<path d="M3.08008 7.04337C8.82612 7.04337 14.5722 7.04337 20.3182 7.04337" stroke="#E52323" stroke-opacity="0.95" stroke-width="1.5" stroke-linecap="round" stroke-linejoin="round"/>
<path d="M8.60938 6.71814C8.72077 6.14721 8.82621 5.6695 8.82621 5.0919C8.82621 4.68786 8.79826 4.12868 9.19964 3.89932C9.62864 3.65418 9.93968 3.42328 10.4284 3.27292C10.99 3.10011 11.6338 3.24883 12.1871 3.24883C12.8306 3.24883 14.5816 3.3826 14.6807 4.22457C14.7295 4.64007 15.0059 5.05342 15.0059 5.47135C15.0059 5.91347 14.9808 6.35518 15.2227 6.71814" stroke="#E52323" stroke-opacity="0.95" stroke-width="1.5" stroke-linecap="round" stroke-linejoin="round"/>
<path d="M9.58496 10.7295C9.86059 11.4703 9.56353 12.3176 9.82589 13.0063C10.0504 13.5955 9.91021 14.4061 9.91021 15.0421C9.91021 15.9536 9.91021 18.6881 9.91021 17.7766" stroke="#E52323" stroke-opacity="0.95" stroke-width="1.5" stroke-linecap="round" stroke-linejoin="round"/>
<path d="M13.7048 10.4043C13.8736 11.3116 13.8132 12.2488 13.8132 13.1689C13.8132 13.7478 13.952 14.4922 13.7891 15.0421C13.5384 15.8881 13.8132 16.8595 13.8132 17.6681" stroke="#E52323" stroke-opacity="0.95" stroke-width="1.5" stroke-linecap="round" stroke-linejoin="round"/>
</svg>
