<svg width="64" height="64" viewBox="0 0 64 64" fill="none" xmlns="http://www.w3.org/2000/svg">
<path d="M9.85757 47.666C9.62827 48.8741 9.74655 50.0545 9.56639 51.2522C9.33128 52.8154 8.84992 54.2229 8.42817 55.7416C8.15869 56.712 7.78739 57.8482 7.71347 58.8497C7.64282 59.8068 6.28161 60.8072 7.84582 60.0982C9.94879 59.1451 12.2504 58.4719 14.2649 57.3488C15.7869 56.5002 17.6327 56.0339 19.3869 56.0339" stroke="#211F1F" stroke-width="4" stroke-linecap="round" stroke-linejoin="round"/>
<path d="M9.62145 46.9487C8.04634 44.7093 6.96678 43.0421 6.1803 40.3872C5.48473 38.0393 5.33325 35.5668 5.33325 33.1351C5.33325 27.6664 5.34812 22.0729 7.95382 17.1698C9.1254 14.9653 10.5004 12.5679 12.295 10.7943C14.1371 8.97359 16.7724 7.65497 19.1508 6.70336C20.4351 6.1895 21.9961 5.38607 23.3596 5.10949C29.817 3.79961 37.2497 4.28485 43.6756 5.60093C46.4114 6.16124 50.068 8.41159 51.8946 10.5419C52.9868 11.8157 53.6999 13.4125 54.727 14.7524C55.518 15.7845 56.3492 16.8241 56.9769 17.9667C58.6528 21.0174 59.6378 25.0309 60.3651 28.4199C61.3418 32.9703 61.5785 37.7238 61.0798 42.353C60.7138 45.7513 59.4406 48.0381 56.8181 50.2161C50.0722 55.8189 41.8016 59.62 32.9948 59.62C29.6262 59.62 25.4974 59.8336 22.4331 58.1324C21.4341 57.5777 20.3474 57.352 19.2567 57.0432C18.4653 56.8192 17.7886 56.2953 17.0067 56.0338" stroke="#211F1F" stroke-width="4" stroke-linecap="round" stroke-linejoin="round"/>
<path d="M25.9031 30.3065C27.1897 28.6022 28.1483 27.8783 27.0301 25.7585C26.3073 24.3884 25.8253 22.9216 25.3636 21.4391C24.9712 20.1788 22.9247 20.7525 22.4023 21.6437C21.6791 22.8775 20.8739 24.1203 20.2923 25.4336C18.9085 28.5582 21.3829 32.4028 23.4814 34.5897C25.2695 36.4533 27.0253 38.3487 28.9483 40.0641C31.1369 42.0165 34.6136 43.1522 37.2207 44.3835C38.8036 45.131 40.868 44.6001 42.5198 44.6001C44.0388 44.6001 46.4043 43.7563 46.4043 41.8809C46.4043 41.163 46.4043 40.4451 46.4043 39.7272C46.4043 38.966 44.7191 39.0056 44.0305 38.9692C42.4303 38.8847 40.6197 38.0068 39.3907 37.0201C39.133 36.8132 39.4068 38.1132 39.1629 38.4278C38.7235 38.9948 38.0202 39.15 37.4365 39.5227C36.6394 40.0317 33.3911 38.4973 32.4251 38.1511C30.5222 37.4691 28.6059 35.8343 27.1979 34.4213C25.9434 33.1623 26.1394 31.4201 25.2557 30.0899" stroke="#211F1F" stroke-width="3.62337" stroke-linecap="round" stroke-linejoin="round"/>
<path d="M23.5254 22.3591C23.5991 22.3274 24.4754 21.9864 24.2598 22.164C23.7874 22.553 22.8939 22.8295 22.7658 23.5152C22.6994 23.8705 23.7426 23.5297 23.9682 23.5297C24.0498 23.5297 24.1314 23.5297 24.213 23.5297C24.2166 23.5297 24.3645 23.5323 24.3462 23.5586C24.1566 23.8322 23.3781 24.0084 23.1078 24.115C22.4908 24.3582 21.4483 24.5475 20.9765 25.0616C20.7828 25.2726 21.4112 25.1922 21.4157 25.1917C22.4767 25.0678 23.6123 24.792 24.6307 24.4727C24.7669 24.4299 24.9094 24.4529 25.0447 24.4076C25.0745 24.3977 25.1582 24.3941 25.1383 24.4185C24.8688 24.7491 24.281 24.9343 23.9214 25.1338C23.3001 25.4787 22.7012 25.8783 22.143 26.3189C21.8099 26.5817 21.1363 26.9752 21.0737 27.4461C21.056 27.579 22.7876 27.2291 22.845 27.2149C23.5777 27.034 24.2704 26.7811 24.9043 26.3695C25.0228 26.2925 25.1367 26.2575 25.2463 26.1563C25.3204 26.0879 25.6617 25.5897 25.5271 25.7336C24.9413 26.3599 24.1062 26.7517 23.403 27.2221C22.6416 27.7315 21.5784 28.3292 21.1061 29.1587C21.0495 29.258 20.9395 29.4375 21.1493 29.3935C21.776 29.2621 22.4294 28.9626 23.007 28.7035C24.0475 28.2366 24.9262 27.659 25.7251 26.8572C26.0394 26.5418 27.0554 26.0315 26.1355 26.7308C24.8815 27.6842 23.4577 28.3895 22.2006 29.3357C21.9079 29.556 21.4666 29.9493 21.5309 30.3727C21.5979 30.8134 21.9431 30.631 22.251 30.4955C23.628 29.8895 24.7904 29.1101 25.8727 28.0712C26.0185 27.9312 26.1746 27.8639 26.3623 27.7966C26.3978 27.7839 26.3317 27.8678 26.3047 27.8942C25.7826 28.4043 25.2198 28.8714 24.6919 29.3755C24.0825 29.9573 23.4273 30.4242 23.5398 31.3048C23.5654 31.5054 23.3278 31.6626 23.2086 31.7962C23.0024 32.0271 22.5043 32.7745 22.5714 32.4718C22.7119 31.8372 22.9416 31.1944 22.8306 30.5316C22.7321 29.9436 22.384 29.3116 22.0349 28.8299C21.7769 28.4738 21.4443 28.2274 21.0917 27.97C20.727 27.7039 20.7862 27.351 20.7533 26.9259C20.7436 26.8003 20.5805 25.8869 20.7677 26.1093C21.8579 27.405 22.4407 29.1235 23.205 30.6219C23.7087 31.6095 24.1986 32.64 24.9511 33.4654C25.6631 34.2464 26.4776 34.9626 27.2336 35.7018C28.464 36.9049 30.0195 37.8664 31.651 38.4187C32.8405 38.8214 34.0091 39.3447 35.2403 39.6074C36.9374 39.9695 38.9202 40.0248 40.3021 38.8053C40.3677 38.7475 40.3562 38.5536 40.4389 38.5813C40.5419 38.6158 40.6806 38.7723 40.7918 38.827C41.3837 39.1184 42.1072 39.0315 42.7286 39.2425C43.5707 39.5283 44.4134 39.8146 45.2596 40.0879C45.7765 40.2549 45.7433 40.2104 45.3208 40.5323C45.0485 40.7397 44.7192 40.9113 44.5719 41.2332C44.4326 41.5379 44.305 41.8484 44.1687 42.1545C44.0162 42.4971 43.872 42.7648 43.4991 42.9097C42.5173 43.2911 41.3837 43.2976 40.3453 43.3324C39.3961 43.3641 38.3925 43.4526 37.4472 43.3251C36.7234 43.2276 36.1088 42.8477 35.4419 42.5773C34.8352 42.3313 34.1927 42.1589 33.6275 41.8185C33.2231 41.5751 32.9275 41.1935 32.5546 40.9081C32.0991 40.5595 31.6234 40.2387 31.1793 39.8748C30.6421 39.4345 30.2678 38.8622 29.7213 38.4296C29.486 38.2434 29.256 38.0252 28.9977 37.8696C28.8386 37.7738 28.6529 37.7505 28.508 37.6275C27.6427 36.8927 26.9657 35.9959 26.3767 35.0406C26.0818 34.5623 25.819 34.0774 25.5559 33.581C25.2475 32.999 25.1356 32.4323 24.9187 31.8251C24.7969 31.4842 24.6176 30.4959 24.087 30.5172C23.9313 30.5234 24.1111 32.0887 24.1086 32.3092C24.1055 32.5852 23.9887 32.7993 23.9286 33.0607C23.8985 33.1919 23.7588 33.2944 23.7954 33.4292C24.0049 34.2 25.0441 34.5342 25.5163 35.1309C26.3152 36.1406 26.7316 37.3155 27.8168 38.09C28.3904 38.4993 29.0361 38.7739 29.6241 39.1594C30.1808 39.5244 30.8932 40.5277 31.6114 40.4926C32.269 40.4604 32.9045 40.2247 33.5699 40.2433C33.8781 40.2519 33.3387 40.1079 33.2674 40.0771C32.6602 39.8148 32.0429 39.5734 31.4242 39.34C30.9889 39.1759 30.5029 38.997 31.1685 39.3798C32.2335 39.9922 33.2383 40.739 34.4267 41.0923C35.5141 41.4157 36.7567 41.7043 37.89 41.5801C38.2827 41.5371 38.5254 41.3306 38.8765 41.2188C39.3541 41.0666 39.8812 41.0923 40.3669 40.9587C40.8369 40.8294 41.0348 40.5241 41.321 40.1927C41.913 39.5072 41.0521 39.7906 40.6298 39.9217C39.5552 40.2555 38.4787 40.4379 37.3788 40.6624C37.2101 40.6968 36.1421 40.8094 36.1044 41.0743C36.0844 41.2145 38.0833 41.6075 38.2789 41.6596C38.967 41.8426 39.9497 41.9576 40.6262 41.7102C41.0883 41.5411 41.5403 41.313 41.9438 41.0309C42.104 40.9189 42.14 40.7655 42.2678 40.6479C42.3368 40.5845 42.5208 40.5843 42.6134 40.5179C42.8009 40.3835 42.7896 40.4031 43.0131 40.5287C43.7826 40.9612 44.3834 41.1834 44.9031 41.9269C45.2281 42.3918 44.9725 42.7616 44.4747 42.935C44.1154 43.0601 43.1141 43.3685 43.1571 42.7435C43.2018 42.0921 43.0194 41.2761 42.167 41.7318C41.6531 42.0066 40.2817 43.0879 40.8026 42.8266C40.8151 42.8203 41.2295 42.6215 41.1374 42.5773C40.7778 42.4047 39.9887 42.5441 39.6361 42.5556C38.5869 42.5899 37.536 42.6495 36.486 42.6495" stroke="#211F1F" stroke-width="3.62337" stroke-linecap="round" stroke-linejoin="round"/>
<path d="M25.1448 23.3991C24.9235 23.1808 24.6718 22.8507 24.3672 22.7488" stroke="#211F1F" stroke-width="3.62337" stroke-linecap="round" stroke-linejoin="round"/>
</svg>
