<svg width="260" height="721" viewBox="0 0 260 721" fill="none" xmlns="http://www.w3.org/2000/svg">
<path d="M94.376 153.441H89.7822V162H88.0596V152.047H94.376V153.441ZM94.2939 158.233C94.2939 157.509 94.4375 156.857 94.7246 156.278C95.0117 155.695 95.415 155.248 95.9346 154.938C96.4541 154.624 97.0511 154.467 97.7256 154.467C98.7236 154.467 99.5326 154.788 100.152 155.431C100.777 156.073 101.114 156.925 101.164 157.987L101.171 158.377C101.171 159.106 101.03 159.758 100.747 160.332C100.469 160.906 100.068 161.351 99.5439 161.665C99.0244 161.979 98.4229 162.137 97.7393 162.137C96.6956 162.137 95.8594 161.79 95.2305 161.098C94.6061 160.4 94.2939 159.473 94.2939 158.315V158.233ZM95.9551 158.377C95.9551 159.138 96.1123 159.735 96.4268 160.168C96.7412 160.596 97.1787 160.811 97.7393 160.811C98.2998 160.811 98.735 160.592 99.0449 160.154C99.3594 159.717 99.5166 159.076 99.5166 158.233C99.5166 157.486 99.3548 156.894 99.0312 156.456C98.7122 156.019 98.277 155.8 97.7256 155.8C97.1833 155.8 96.7526 156.016 96.4336 156.449C96.1146 156.878 95.9551 157.52 95.9551 158.377ZM109.053 158.377C109.053 159.521 108.793 160.435 108.273 161.118C107.754 161.797 107.057 162.137 106.182 162.137C105.37 162.137 104.721 161.87 104.233 161.337V164.844H102.572V154.604H104.104L104.172 155.355C104.66 154.763 105.323 154.467 106.161 154.467C107.063 154.467 107.77 154.804 108.28 155.479C108.795 156.148 109.053 157.08 109.053 158.274V158.377ZM107.398 158.233C107.398 157.495 107.25 156.91 106.954 156.477C106.662 156.044 106.243 155.827 105.696 155.827C105.017 155.827 104.53 156.107 104.233 156.668V159.949C104.534 160.523 105.026 160.811 105.71 160.811C106.239 160.811 106.651 160.599 106.947 160.175C107.248 159.746 107.398 159.099 107.398 158.233ZM114.884 162C114.811 161.859 114.747 161.629 114.692 161.31C114.164 161.861 113.517 162.137 112.751 162.137C112.008 162.137 111.402 161.925 110.933 161.501C110.463 161.077 110.229 160.553 110.229 159.929C110.229 159.14 110.52 158.536 111.104 158.117C111.691 157.693 112.53 157.481 113.619 157.481H114.638V156.996C114.638 156.613 114.531 156.308 114.316 156.08C114.102 155.848 113.776 155.731 113.339 155.731C112.961 155.731 112.651 155.827 112.409 156.019C112.168 156.205 112.047 156.445 112.047 156.736H110.386C110.386 156.331 110.52 155.952 110.789 155.602C111.058 155.246 111.423 154.968 111.883 154.768C112.348 154.567 112.865 154.467 113.435 154.467C114.3 154.467 114.991 154.686 115.506 155.123C116.021 155.556 116.285 156.167 116.299 156.955V160.291C116.299 160.956 116.392 161.487 116.579 161.884V162H114.884ZM113.059 160.804C113.387 160.804 113.694 160.724 113.981 160.564C114.273 160.405 114.492 160.191 114.638 159.922V158.527H113.742C113.127 158.527 112.664 158.634 112.354 158.849C112.045 159.063 111.89 159.366 111.89 159.758C111.89 160.077 111.994 160.332 112.204 160.523C112.418 160.71 112.703 160.804 113.059 160.804ZM127.975 153.441H123.388V155.854H125.425C126.154 155.854 126.79 155.98 127.332 156.23C127.874 156.481 128.287 156.837 128.569 157.297C128.852 157.757 128.993 158.29 128.993 158.896C128.993 159.826 128.676 160.574 128.043 161.139C127.414 161.704 126.555 161.991 125.466 162H121.658V152.047H127.975V153.441ZM123.388 157.242V160.619H125.418C126.001 160.619 126.455 160.462 126.778 160.147C127.106 159.828 127.271 159.407 127.271 158.883C127.271 158.382 127.111 157.985 126.792 157.693C126.473 157.402 126.031 157.251 125.466 157.242H123.388ZM133.587 162.137C132.534 162.137 131.68 161.806 131.023 161.146C130.372 160.48 130.046 159.596 130.046 158.493V158.288C130.046 157.55 130.187 156.891 130.47 156.312C130.757 155.729 131.158 155.276 131.673 154.952C132.188 154.629 132.762 154.467 133.396 154.467C134.403 154.467 135.18 154.788 135.727 155.431C136.278 156.073 136.554 156.982 136.554 158.158V158.828H131.721C131.771 159.439 131.974 159.922 132.329 160.277C132.689 160.633 133.14 160.811 133.683 160.811C134.444 160.811 135.063 160.503 135.542 159.888L136.438 160.742C136.141 161.184 135.745 161.528 135.248 161.774C134.756 162.016 134.202 162.137 133.587 162.137ZM133.389 155.8C132.933 155.8 132.564 155.959 132.281 156.278C132.003 156.597 131.826 157.042 131.748 157.611H134.913V157.488C134.877 156.932 134.729 156.513 134.469 156.23C134.209 155.943 133.849 155.8 133.389 155.8ZM144.135 154.604V162H142.474V155.943H140.382L140.245 158.521C140.159 159.76 139.919 160.651 139.527 161.193C139.14 161.731 138.545 162 137.743 162H137.23L137.224 160.619L137.565 160.585C137.93 160.535 138.194 160.314 138.358 159.922C138.527 159.525 138.634 158.805 138.68 157.762L138.816 154.604H144.135ZM148.489 159.621L149.993 154.604H151.764L148.824 163.121C148.373 164.365 147.607 164.987 146.527 164.987C146.286 164.987 146.019 164.946 145.728 164.864V163.579L146.042 163.6C146.461 163.6 146.776 163.522 146.985 163.367C147.2 163.217 147.368 162.962 147.491 162.602L147.73 161.966L145.133 154.604H146.924L148.489 159.621ZM155.38 157.037L156.788 154.604H158.634L156.371 158.247L158.709 162H156.877L155.4 159.471L153.931 162H152.085L154.423 158.247L152.167 154.604H153.999L155.38 157.037ZM164.185 162C164.112 161.859 164.048 161.629 163.993 161.31C163.465 161.861 162.817 162.137 162.052 162.137C161.309 162.137 160.703 161.925 160.233 161.501C159.764 161.077 159.529 160.553 159.529 159.929C159.529 159.14 159.821 158.536 160.404 158.117C160.992 157.693 161.831 157.481 162.92 157.481H163.938V156.996C163.938 156.613 163.831 156.308 163.617 156.08C163.403 155.848 163.077 155.731 162.64 155.731C162.261 155.731 161.951 155.827 161.71 156.019C161.468 156.205 161.348 156.445 161.348 156.736H159.687C159.687 156.331 159.821 155.952 160.09 155.602C160.359 155.246 160.723 154.968 161.184 154.768C161.648 154.567 162.166 154.467 162.735 154.467C163.601 154.467 164.292 154.686 164.807 155.123C165.322 155.556 165.586 156.167 165.6 156.955V160.291C165.6 160.956 165.693 161.487 165.88 161.884V162H164.185ZM162.359 160.804C162.688 160.804 162.995 160.724 163.282 160.564C163.574 160.405 163.793 160.191 163.938 159.922V158.527H163.043C162.428 158.527 161.965 158.634 161.655 158.849C161.345 159.063 161.19 159.366 161.19 159.758C161.19 160.077 161.295 160.332 161.505 160.523C161.719 160.71 162.004 160.804 162.359 160.804ZM167.575 164.242L166.68 163.709C166.944 163.294 167.124 162.932 167.22 162.622C167.32 162.317 167.372 162.005 167.377 161.686V160.394H168.874L168.867 161.59C168.863 162.073 168.74 162.556 168.498 163.039C168.261 163.527 167.953 163.928 167.575 164.242ZM180.352 153.441H175.765V155.854H177.802C178.531 155.854 179.167 155.98 179.709 156.23C180.251 156.481 180.664 156.837 180.946 157.297C181.229 157.757 181.37 158.29 181.37 158.896C181.37 159.826 181.053 160.574 180.42 161.139C179.791 161.704 178.932 161.991 177.843 162H174.035V152.047H180.352V153.441ZM175.765 157.242V160.619H177.795C178.378 160.619 178.832 160.462 179.155 160.147C179.483 159.828 179.647 159.407 179.647 158.883C179.647 158.382 179.488 157.985 179.169 157.693C178.85 157.402 178.408 157.251 177.843 157.242H175.765ZM185.964 162.137C184.911 162.137 184.057 161.806 183.4 161.146C182.749 160.48 182.423 159.596 182.423 158.493V158.288C182.423 157.55 182.564 156.891 182.847 156.312C183.134 155.729 183.535 155.276 184.05 154.952C184.565 154.629 185.139 154.467 185.772 154.467C186.78 154.467 187.557 154.788 188.104 155.431C188.655 156.073 188.931 156.982 188.931 158.158V158.828H184.098C184.148 159.439 184.351 159.922 184.706 160.277C185.066 160.633 185.517 160.811 186.06 160.811C186.821 160.811 187.44 160.503 187.919 159.888L188.814 160.742C188.518 161.184 188.122 161.528 187.625 161.774C187.133 162.016 186.579 162.137 185.964 162.137ZM185.766 155.8C185.31 155.8 184.941 155.959 184.658 156.278C184.38 156.597 184.202 157.042 184.125 157.611H187.29V157.488C187.254 156.932 187.105 156.513 186.846 156.23C186.586 155.943 186.226 155.8 185.766 155.8ZM196.512 154.604V162H194.851V155.943H192.759L192.622 158.521C192.535 159.76 192.296 160.651 191.904 161.193C191.517 161.731 190.922 162 190.12 162H189.607L189.601 160.619L189.942 160.585C190.307 160.535 190.571 160.314 190.735 159.922C190.904 159.525 191.011 158.805 191.057 157.762L191.193 154.604H196.512ZM200.866 159.621L202.37 154.604H204.141L201.201 163.121C200.75 164.365 199.984 164.987 198.904 164.987C198.663 164.987 198.396 164.946 198.104 164.864V163.579L198.419 163.6C198.838 163.6 199.153 163.522 199.362 163.367C199.576 163.217 199.745 162.962 199.868 162.602L200.107 161.966L197.51 154.604H199.301L200.866 159.621ZM207.757 157.037L209.165 154.604H211.011L208.748 158.247L211.086 162H209.254L207.777 159.471L206.308 162H204.462L206.8 158.247L204.544 154.604H206.376L207.757 157.037ZM216.562 162C216.489 161.859 216.425 161.629 216.37 161.31C215.841 161.861 215.194 162.137 214.429 162.137C213.686 162.137 213.08 161.925 212.61 161.501C212.141 161.077 211.906 160.553 211.906 159.929C211.906 159.14 212.198 158.536 212.781 158.117C213.369 157.693 214.208 157.481 215.297 157.481H216.315V156.996C216.315 156.613 216.208 156.308 215.994 156.08C215.78 155.848 215.454 155.731 215.017 155.731C214.638 155.731 214.328 155.827 214.087 156.019C213.845 156.205 213.725 156.445 213.725 156.736H212.063C212.063 156.331 212.198 155.952 212.467 155.602C212.736 155.246 213.1 154.968 213.561 154.768C214.025 154.567 214.543 154.467 215.112 154.467C215.978 154.467 216.669 154.686 217.184 155.123C217.699 155.556 217.963 156.167 217.977 156.955V160.291C217.977 160.956 218.07 161.487 218.257 161.884V162H216.562ZM214.736 160.804C215.064 160.804 215.372 160.724 215.659 160.564C215.951 160.405 216.17 160.191 216.315 159.922V158.527H215.42C214.805 158.527 214.342 158.634 214.032 158.849C213.722 159.063 213.567 159.366 213.567 159.758C213.567 160.077 213.672 160.332 213.882 160.523C214.096 160.71 214.381 160.804 214.736 160.804ZM219.952 164.242L219.057 163.709C219.321 163.294 219.501 162.932 219.597 162.622C219.697 162.317 219.749 162.005 219.754 161.686V160.394H221.251L221.244 161.59C221.24 162.073 221.117 162.556 220.875 163.039C220.638 163.527 220.33 163.928 219.952 164.242ZM89.7412 175.302V179H88.0117V169.047H91.8193C92.9313 169.047 93.8132 169.336 94.4648 169.915C95.1211 170.494 95.4492 171.259 95.4492 172.212C95.4492 173.187 95.1279 173.946 94.4854 174.488C93.8473 175.031 92.9518 175.302 91.7988 175.302H89.7412ZM89.7412 173.914H91.8193C92.4346 173.914 92.904 173.771 93.2275 173.483C93.5511 173.192 93.7129 172.772 93.7129 172.226C93.7129 171.688 93.5488 171.259 93.2207 170.94C92.8926 170.617 92.4414 170.451 91.8672 170.441H89.7412V173.914ZM99.9678 179.137C98.915 179.137 98.0605 178.806 97.4043 178.146C96.7526 177.48 96.4268 176.596 96.4268 175.493V175.288C96.4268 174.55 96.568 173.891 96.8506 173.312C97.1377 172.729 97.5387 172.276 98.0537 171.952C98.5687 171.629 99.1429 171.467 99.7764 171.467C100.784 171.467 101.561 171.788 102.107 172.431C102.659 173.073 102.935 173.982 102.935 175.158V175.828H98.1016C98.1517 176.439 98.3545 176.922 98.71 177.277C99.07 177.633 99.5212 177.811 100.063 177.811C100.825 177.811 101.444 177.503 101.923 176.888L102.818 177.742C102.522 178.184 102.126 178.528 101.629 178.774C101.137 179.016 100.583 179.137 99.9678 179.137ZM99.7695 172.8C99.3138 172.8 98.9447 172.959 98.6621 173.278C98.3841 173.597 98.2064 174.042 98.1289 174.611H101.294V174.488C101.257 173.932 101.109 173.513 100.85 173.23C100.59 172.943 100.23 172.8 99.7695 172.8ZM107.269 177.811C107.683 177.811 108.027 177.69 108.301 177.448C108.574 177.207 108.72 176.908 108.738 176.553H110.304C110.285 177.013 110.142 177.444 109.873 177.845C109.604 178.241 109.24 178.556 108.779 178.788C108.319 179.021 107.822 179.137 107.289 179.137C106.255 179.137 105.434 178.802 104.828 178.132C104.222 177.462 103.919 176.537 103.919 175.356V175.186C103.919 174.06 104.22 173.16 104.821 172.485C105.423 171.806 106.243 171.467 107.282 171.467C108.162 171.467 108.877 171.724 109.429 172.239C109.985 172.75 110.276 173.422 110.304 174.256H108.738C108.72 173.832 108.574 173.483 108.301 173.21C108.032 172.937 107.688 172.8 107.269 172.8C106.731 172.8 106.316 172.996 106.024 173.388C105.733 173.775 105.585 174.365 105.58 175.158V175.425C105.58 176.227 105.724 176.826 106.011 177.223C106.302 177.615 106.722 177.811 107.269 177.811ZM117.83 179H116.169V172.943H113.284V179H111.623V171.604H117.83V179ZM122.185 176.621L123.688 171.604H125.459L122.52 180.121C122.068 181.365 121.303 181.987 120.223 181.987C119.981 181.987 119.715 181.946 119.423 181.864V180.579L119.737 180.6C120.157 180.6 120.471 180.522 120.681 180.367C120.895 180.217 121.063 179.962 121.187 179.602L121.426 178.966L118.828 171.604H120.619L122.185 176.621ZM129.902 172.014C130.832 172.014 131.577 172.326 132.138 172.95C132.698 173.57 132.979 174.413 132.979 175.479V175.562C132.979 176.628 132.673 177.492 132.062 178.152C131.456 178.813 130.632 179.144 129.588 179.144C128.572 179.144 127.751 178.806 127.127 178.132C126.503 177.457 126.19 176.537 126.19 175.37V174.892C126.19 173.297 126.473 172.034 127.038 171.104C127.603 170.175 128.446 169.594 129.567 169.361C130.196 169.234 130.602 169.099 130.784 168.958C130.971 168.812 131.064 168.616 131.064 168.37H132.404C132.404 168.83 132.329 169.204 132.179 169.491C132.028 169.778 131.798 170.013 131.488 170.195C131.178 170.373 130.645 170.542 129.889 170.701C129.196 170.847 128.667 171.107 128.303 171.48C127.943 171.854 127.701 172.371 127.578 173.032C128.239 172.353 129.014 172.014 129.902 172.014ZM129.574 173.347C129.036 173.347 128.615 173.529 128.31 173.894C128.004 174.254 127.852 174.81 127.852 175.562C127.852 176.272 128.002 176.826 128.303 177.223C128.604 177.619 129.032 177.817 129.588 177.817C130.139 177.817 130.565 177.619 130.866 177.223C131.172 176.822 131.324 176.22 131.324 175.418C131.324 174.78 131.172 174.276 130.866 173.907C130.565 173.534 130.135 173.347 129.574 173.347ZM140.566 171.604V179H138.905V172.943H136.813L136.677 175.521C136.59 176.76 136.351 177.651 135.959 178.193C135.572 178.731 134.977 179 134.175 179H133.662L133.655 177.619L133.997 177.585C134.362 177.535 134.626 177.314 134.79 176.922C134.959 176.525 135.066 175.805 135.111 174.762L135.248 171.604H140.566ZM146.951 171.604H148.605V179H146.951V174.064L144.053 179H142.398V171.604H144.053V176.539L146.951 171.604ZM153.001 176.074H152.16V179H150.499V171.604H152.16V174.557H152.892L154.936 171.604H156.986L154.313 175.145L157.212 179H155.052L153.001 176.074ZM162.544 179C162.471 178.859 162.407 178.629 162.353 178.31C161.824 178.861 161.177 179.137 160.411 179.137C159.668 179.137 159.062 178.925 158.593 178.501C158.123 178.077 157.889 177.553 157.889 176.929C157.889 176.14 158.18 175.536 158.764 175.117C159.352 174.693 160.19 174.481 161.279 174.481H162.298V173.996C162.298 173.613 162.191 173.308 161.977 173.08C161.762 172.848 161.437 172.731 160.999 172.731C160.621 172.731 160.311 172.827 160.069 173.019C159.828 173.205 159.707 173.445 159.707 173.736H158.046C158.046 173.331 158.18 172.952 158.449 172.602C158.718 172.246 159.083 171.968 159.543 171.768C160.008 171.567 160.525 171.467 161.095 171.467C161.961 171.467 162.651 171.686 163.166 172.123C163.681 172.556 163.945 173.167 163.959 173.955V177.291C163.959 177.956 164.052 178.487 164.239 178.884V179H162.544ZM160.719 177.804C161.047 177.804 161.354 177.724 161.642 177.564C161.933 177.405 162.152 177.191 162.298 176.922V175.527H161.402C160.787 175.527 160.325 175.634 160.015 175.849C159.705 176.063 159.55 176.366 159.55 176.758C159.55 177.077 159.655 177.332 159.864 177.523C160.078 177.71 160.363 177.804 160.719 177.804ZM174.917 176.683H171.062L170.255 179H168.457L172.217 169.047H173.769L177.535 179H175.73L174.917 176.683ZM171.547 175.288H174.432L172.989 171.159L171.547 175.288ZM184.918 171.604V179H183.257V172.943H181.165L181.028 175.521C180.942 176.76 180.702 177.651 180.311 178.193C179.923 178.731 179.328 179 178.526 179H178.014L178.007 177.619L178.349 177.585C178.713 177.535 178.978 177.314 179.142 176.922C179.31 176.525 179.417 175.805 179.463 174.762L179.6 171.604H184.918ZM192.506 172.923H190.106V179H188.445V172.923H186.073V171.604H192.506V172.923ZM197.927 179C197.854 178.859 197.79 178.629 197.735 178.31C197.207 178.861 196.56 179.137 195.794 179.137C195.051 179.137 194.445 178.925 193.976 178.501C193.506 178.077 193.271 177.553 193.271 176.929C193.271 176.14 193.563 175.536 194.146 175.117C194.734 174.693 195.573 174.481 196.662 174.481H197.681V173.996C197.681 173.613 197.574 173.308 197.359 173.08C197.145 172.848 196.819 172.731 196.382 172.731C196.004 172.731 195.694 172.827 195.452 173.019C195.211 173.205 195.09 173.445 195.09 173.736H193.429C193.429 173.331 193.563 172.952 193.832 172.602C194.101 172.246 194.465 171.968 194.926 171.768C195.391 171.567 195.908 171.467 196.478 171.467C197.343 171.467 198.034 171.686 198.549 172.123C199.064 172.556 199.328 173.167 199.342 173.955V177.291C199.342 177.956 199.435 178.487 199.622 178.884V179H197.927ZM196.102 177.804C196.43 177.804 196.737 177.724 197.024 177.564C197.316 177.405 197.535 177.191 197.681 176.922V175.527H196.785C196.17 175.527 195.707 175.634 195.397 175.849C195.088 176.063 194.933 176.366 194.933 176.758C194.933 177.077 195.037 177.332 195.247 177.523C195.461 177.71 195.746 177.804 196.102 177.804ZM205.699 171.604H207.354V179H205.699V174.064L202.801 179H201.146V171.604H202.801V176.539L205.699 171.604ZM206.479 168.767C206.479 169.341 206.278 169.806 205.877 170.161C205.476 170.517 204.94 170.694 204.271 170.694C203.601 170.694 203.065 170.517 202.664 170.161C202.263 169.806 202.062 169.341 202.062 168.767H203.307C203.307 169.067 203.391 169.302 203.56 169.471C203.733 169.635 203.97 169.717 204.271 169.717C204.571 169.717 204.806 169.635 204.975 169.471C205.143 169.302 205.228 169.067 205.228 168.767H206.479Z" fill="white"/>
<path d="M17.958 454.734H16.7822V459H15.0596V449.047H16.7822V453.23H17.7324L20.6582 449.047H22.7773L19.3594 453.812L23.0781 459H21L17.958 454.734ZM28.2939 459C28.221 458.859 28.1572 458.629 28.1025 458.31C27.5739 458.861 26.9268 459.137 26.1611 459.137C25.4183 459.137 24.8122 458.925 24.3428 458.501C23.8734 458.077 23.6387 457.553 23.6387 456.929C23.6387 456.14 23.9303 455.536 24.5137 455.117C25.1016 454.693 25.9401 454.481 27.0293 454.481H28.0479V453.996C28.0479 453.613 27.9408 453.308 27.7266 453.08C27.5124 452.848 27.1865 452.731 26.749 452.731C26.3708 452.731 26.0609 452.827 25.8193 453.019C25.5778 453.205 25.457 453.445 25.457 453.736H23.7959C23.7959 453.331 23.9303 452.952 24.1992 452.602C24.4681 452.246 24.8327 451.968 25.293 451.768C25.7578 451.567 26.2751 451.467 26.8447 451.467C27.7106 451.467 28.401 451.686 28.916 452.123C29.431 452.556 29.6953 453.167 29.709 453.955V457.291C29.709 457.956 29.8024 458.487 29.9893 458.884V459H28.2939ZM26.4688 457.804C26.7969 457.804 27.1045 457.724 27.3916 457.564C27.6833 457.405 27.902 457.191 28.0479 456.922V455.527H27.1523C26.5371 455.527 26.0745 455.634 25.7646 455.849C25.4548 456.063 25.2998 456.366 25.2998 456.758C25.2998 457.077 25.4046 457.332 25.6143 457.523C25.8285 457.71 26.1133 457.804 26.4688 457.804ZM37.1602 452.923H34.7607V459H33.0996V452.923H30.7275V451.604H37.1602V452.923ZM40.9404 456.621L42.4443 451.604H44.2148L41.2754 460.121C40.8242 461.365 40.0586 461.987 38.9785 461.987C38.737 461.987 38.4704 461.946 38.1787 461.864V460.579L38.4932 460.6C38.9124 460.6 39.2269 460.522 39.4365 460.367C39.6507 460.217 39.8193 459.962 39.9424 459.602L40.1816 458.966L37.584 451.604H39.375L40.9404 456.621ZM51.4404 459H49.7793V456.013H46.9014V459H45.2402V451.604H46.9014V454.687H49.7793V451.604H51.4404V459ZM56.2529 457.811C56.6676 457.811 57.0117 457.69 57.2852 457.448C57.5586 457.207 57.7044 456.908 57.7227 456.553H59.2881C59.2699 457.013 59.1263 457.444 58.8574 457.845C58.5885 458.241 58.224 458.556 57.7637 458.788C57.3034 459.021 56.8066 459.137 56.2734 459.137C55.2389 459.137 54.4186 458.802 53.8125 458.132C53.2064 457.462 52.9033 456.537 52.9033 455.356V455.186C52.9033 454.06 53.2041 453.16 53.8057 452.485C54.4072 451.806 55.2275 451.467 56.2666 451.467C57.1462 451.467 57.8617 451.724 58.4131 452.239C58.9691 452.75 59.2607 453.422 59.2881 454.256H57.7227C57.7044 453.832 57.5586 453.483 57.2852 453.21C57.0163 452.937 56.6722 452.8 56.2529 452.8C55.7152 452.8 55.3005 452.996 55.0088 453.388C54.7171 453.775 54.569 454.365 54.5645 455.158V455.425C54.5645 456.227 54.708 456.826 54.9951 457.223C55.2868 457.615 55.7061 457.811 56.2529 457.811ZM63.1709 456.074H62.3301V459H60.6689V451.604H62.3301V454.557H63.0615L65.1055 451.604H67.1562L64.4834 455.145L67.3818 459H65.2217L63.1709 456.074ZM72.9121 451.604H74.5664V459H72.9121V454.064L70.0137 459H68.3594V451.604H70.0137V456.539L72.9121 451.604ZM80.9512 451.604H82.6055V459H80.9512V454.064L78.0527 459H76.3984V451.604H78.0527V456.539L80.9512 451.604ZM81.7305 448.767C81.7305 449.341 81.5299 449.806 81.1289 450.161C80.7279 450.517 80.1924 450.694 79.5225 450.694C78.8525 450.694 78.3171 450.517 77.916 450.161C77.515 449.806 77.3145 449.341 77.3145 448.767H78.5586C78.5586 449.067 78.6429 449.302 78.8115 449.471C78.9847 449.635 79.2217 449.717 79.5225 449.717C79.8232 449.717 80.0579 449.635 80.2266 449.471C80.3952 449.302 80.4795 449.067 80.4795 448.767H81.7305ZM19.7764 469.943H16.5635V476H14.9092V468.604H19.7764V469.943ZM20.2686 472.233C20.2686 471.509 20.4121 470.857 20.6992 470.278C20.9863 469.695 21.3896 469.248 21.9092 468.938C22.4287 468.624 23.0257 468.467 23.7002 468.467C24.6982 468.467 25.5072 468.788 26.127 469.431C26.7513 470.073 27.0885 470.925 27.1387 471.987L27.1455 472.377C27.1455 473.106 27.0042 473.758 26.7217 474.332C26.4437 474.906 26.0426 475.351 25.5186 475.665C24.999 475.979 24.3975 476.137 23.7139 476.137C22.6702 476.137 21.834 475.79 21.2051 475.098C20.5807 474.4 20.2686 473.473 20.2686 472.315V472.233ZM21.9297 472.377C21.9297 473.138 22.0869 473.735 22.4014 474.168C22.7158 474.596 23.1533 474.811 23.7139 474.811C24.2744 474.811 24.7096 474.592 25.0195 474.154C25.334 473.717 25.4912 473.076 25.4912 472.233C25.4912 471.486 25.3294 470.894 25.0059 470.456C24.6868 470.019 24.2516 469.8 23.7002 469.8C23.1579 469.8 22.7272 470.016 22.4082 470.449C22.0892 470.878 21.9297 471.52 21.9297 472.377ZM31.5889 474.811C32.0036 474.811 32.3477 474.69 32.6211 474.448C32.8945 474.207 33.0404 473.908 33.0586 473.553H34.624C34.6058 474.013 34.4622 474.444 34.1934 474.845C33.9245 475.241 33.5599 475.556 33.0996 475.788C32.6393 476.021 32.1426 476.137 31.6094 476.137C30.5749 476.137 29.7546 475.802 29.1484 475.132C28.5423 474.462 28.2393 473.537 28.2393 472.356V472.186C28.2393 471.06 28.54 470.16 29.1416 469.485C29.7432 468.806 30.5635 468.467 31.6025 468.467C32.4821 468.467 33.1976 468.724 33.749 469.239C34.305 469.75 34.5967 470.422 34.624 471.256H33.0586C33.0404 470.832 32.8945 470.483 32.6211 470.21C32.3522 469.937 32.0081 469.8 31.5889 469.8C31.0511 469.8 30.6364 469.996 30.3447 470.388C30.0531 470.775 29.9049 471.365 29.9004 472.158V472.425C29.9004 473.227 30.0439 473.826 30.3311 474.223C30.6227 474.615 31.042 474.811 31.5889 474.811ZM38.4658 473.621L39.9697 468.604H41.7402L38.8008 477.121C38.3496 478.365 37.584 478.987 36.5039 478.987C36.2624 478.987 35.9958 478.946 35.7041 478.864V477.579L36.0186 477.6C36.4378 477.6 36.7523 477.522 36.9619 477.367C37.1761 477.217 37.3447 476.962 37.4678 476.602L37.707 475.966L35.1094 468.604H36.9004L38.4658 473.621ZM42.3486 474.674C42.8089 474.159 43.1165 473.671 43.2715 473.211C43.431 472.746 43.5267 472.154 43.5586 471.434L43.6543 468.604H48.7881V474.674H49.8135V478.201H48.1592V476H43.415V478.201H41.7334L41.7402 474.674H42.3486ZM44.2969 474.674H47.1338V470.032H45.2676L45.2197 471.447C45.1559 472.805 44.8483 473.881 44.2969 474.674ZM55.4189 476C55.346 475.859 55.2822 475.629 55.2275 475.31C54.6989 475.861 54.0518 476.137 53.2861 476.137C52.5433 476.137 51.9372 475.925 51.4678 475.501C50.9984 475.077 50.7637 474.553 50.7637 473.929C50.7637 473.14 51.0553 472.536 51.6387 472.117C52.2266 471.693 53.0651 471.481 54.1543 471.481H55.1729V470.996C55.1729 470.613 55.0658 470.308 54.8516 470.08C54.6374 469.848 54.3115 469.731 53.874 469.731C53.4958 469.731 53.1859 469.827 52.9443 470.019C52.7028 470.205 52.582 470.445 52.582 470.736H50.9209C50.9209 470.331 51.0553 469.952 51.3242 469.602C51.5931 469.246 51.9577 468.968 52.418 468.768C52.8828 468.567 53.4001 468.467 53.9697 468.467C54.8356 468.467 55.526 468.686 56.041 469.123C56.556 469.556 56.8203 470.167 56.834 470.955V474.291C56.834 474.956 56.9274 475.487 57.1143 475.884V476H55.4189ZM53.5938 474.804C53.9219 474.804 54.2295 474.724 54.5166 474.564C54.8083 474.405 55.027 474.191 55.1729 473.922V472.527H54.2773C53.6621 472.527 53.1995 472.634 52.8896 472.849C52.5798 473.063 52.4248 473.366 52.4248 473.758C52.4248 474.077 52.5296 474.332 52.7393 474.523C52.9535 474.71 53.2383 474.804 53.5938 474.804ZM65.0508 472.377C65.0508 473.521 64.791 474.435 64.2715 475.118C63.752 475.797 63.0547 476.137 62.1797 476.137C61.3685 476.137 60.7191 475.87 60.2314 475.337V478.844H58.5703V468.604H60.1016L60.1699 469.355C60.6576 468.763 61.3206 468.467 62.1592 468.467C63.0615 468.467 63.7679 468.804 64.2783 469.479C64.7933 470.148 65.0508 471.08 65.0508 472.274V472.377ZM63.3965 472.233C63.3965 471.495 63.2484 470.91 62.9521 470.477C62.6605 470.044 62.2412 469.827 61.6943 469.827C61.0153 469.827 60.5277 470.107 60.2314 470.668V473.949C60.5322 474.523 61.0244 474.811 61.708 474.811C62.2367 474.811 62.6491 474.599 62.9453 474.175C63.2461 473.746 63.3965 473.099 63.3965 472.233ZM69.501 474.811C69.9157 474.811 70.2598 474.69 70.5332 474.448C70.8066 474.207 70.9525 473.908 70.9707 473.553H72.5361C72.5179 474.013 72.3743 474.444 72.1055 474.845C71.8366 475.241 71.472 475.556 71.0117 475.788C70.5514 476.021 70.0547 476.137 69.5215 476.137C68.487 476.137 67.6667 475.802 67.0605 475.132C66.4544 474.462 66.1514 473.537 66.1514 472.356V472.186C66.1514 471.06 66.4521 470.16 67.0537 469.485C67.6553 468.806 68.4756 468.467 69.5146 468.467C70.3942 468.467 71.1097 468.724 71.6611 469.239C72.2171 469.75 72.5088 470.422 72.5361 471.256H70.9707C70.9525 470.832 70.8066 470.483 70.5332 470.21C70.2643 469.937 69.9202 469.8 69.501 469.8C68.9632 469.8 68.5485 469.996 68.2568 470.388C67.9652 470.775 67.8171 471.365 67.8125 472.158V472.425C67.8125 473.227 67.9561 473.826 68.2432 474.223C68.5348 474.615 68.9541 474.811 69.501 474.811ZM79.6113 469.923H77.2119V476H75.5508V469.923H73.1787V468.604H79.6113V469.923ZM80.8486 476V468.604H83.8496C84.8613 468.604 85.6315 468.781 86.1602 469.137C86.6888 469.488 86.9531 469.993 86.9531 470.654C86.9531 470.996 86.846 471.304 86.6318 471.577C86.4222 471.846 86.11 472.053 85.6953 472.199C86.1784 472.299 86.5612 472.502 86.8438 472.808C87.1263 473.113 87.2676 473.473 87.2676 473.888C87.2676 474.576 87.0124 475.1 86.502 475.46C85.9961 475.82 85.2669 476 84.3145 476H80.8486ZM82.5098 472.849V474.688H84.3281C85.1803 474.688 85.6064 474.382 85.6064 473.771C85.6064 473.156 85.1735 472.849 84.3076 472.849H82.5098ZM82.5098 471.659H83.877C84.8203 471.659 85.292 471.381 85.292 470.825C85.292 470.242 84.8454 469.941 83.9521 469.923H82.5098V471.659ZM91.9639 476.137C90.9111 476.137 90.0566 475.806 89.4004 475.146C88.7487 474.48 88.4229 473.596 88.4229 472.493V472.288C88.4229 471.55 88.5641 470.891 88.8467 470.312C89.1338 469.729 89.5348 469.276 90.0498 468.952C90.5648 468.629 91.139 468.467 91.7725 468.467C92.7796 468.467 93.5566 468.788 94.1035 469.431C94.6549 470.073 94.9307 470.982 94.9307 472.158V472.828H90.0977C90.1478 473.439 90.3506 473.922 90.7061 474.277C91.0661 474.633 91.5173 474.811 92.0596 474.811C92.8206 474.811 93.4404 474.503 93.9189 473.888L94.8145 474.742C94.5182 475.184 94.1217 475.528 93.625 475.774C93.1328 476.016 92.5791 476.137 91.9639 476.137ZM91.7656 469.8C91.3099 469.8 90.9408 469.959 90.6582 470.278C90.3802 470.597 90.2025 471.042 90.125 471.611H93.29V471.488C93.2536 470.932 93.1055 470.513 92.8457 470.23C92.5859 469.943 92.2259 469.8 91.7656 469.8ZM102.491 476H100.83V473.013H97.9521V476H96.291V468.604H97.9521V471.687H100.83V468.604H102.491V476ZM110.53 476H108.869V473.013H105.991V476H104.33V468.604H105.991V471.687H108.869V468.604H110.53V476ZM114.092 470.955H115.719C116.325 470.955 116.854 471.06 117.305 471.27C117.756 471.479 118.098 471.773 118.33 472.151C118.567 472.53 118.686 472.969 118.686 473.471C118.686 474.232 118.417 474.842 117.879 475.303C117.341 475.763 116.626 475.995 115.732 476H112.431V468.604H114.092V470.955ZM121.577 476H119.916V468.604H121.577V476ZM114.092 472.288V474.674H115.712C116.118 474.674 116.437 474.574 116.669 474.373C116.906 474.168 117.024 473.879 117.024 473.505C117.024 473.131 116.908 472.837 116.676 472.623C116.448 472.404 116.138 472.293 115.746 472.288H114.092ZM128.188 468.604H129.842V476H128.188V471.064L125.289 476H123.635V468.604H125.289V473.539L128.188 468.604ZM128.967 465.767C128.967 466.341 128.766 466.806 128.365 467.161C127.964 467.517 127.429 467.694 126.759 467.694C126.089 467.694 125.553 467.517 125.152 467.161C124.751 466.806 124.551 466.341 124.551 465.767H125.795C125.795 466.067 125.879 466.302 126.048 466.471C126.221 466.635 126.458 466.717 126.759 466.717C127.06 466.717 127.294 466.635 127.463 466.471C127.632 466.302 127.716 466.067 127.716 465.767H128.967ZM21.123 493H19.4619V486.943H16.5771V493H14.916V485.604H21.123V493ZM29.3672 489.377C29.3672 490.521 29.1074 491.435 28.5879 492.118C28.0684 492.797 27.3711 493.137 26.4961 493.137C25.6849 493.137 25.0355 492.87 24.5479 492.337V495.844H22.8867V485.604H24.418L24.4863 486.355C24.974 485.763 25.637 485.467 26.4756 485.467C27.3779 485.467 28.0843 485.804 28.5947 486.479C29.1097 487.148 29.3672 488.08 29.3672 489.274V489.377ZM27.7129 489.233C27.7129 488.495 27.5648 487.91 27.2686 487.477C26.9769 487.044 26.5576 486.827 26.0107 486.827C25.3317 486.827 24.8441 487.107 24.5479 487.668V490.949C24.8486 491.523 25.3408 491.811 26.0244 491.811C26.5531 491.811 26.9655 491.599 27.2617 491.175C27.5625 490.746 27.7129 490.099 27.7129 489.233ZM35.3965 485.604H37.0508V493H35.3965V488.064L32.498 493H30.8438V485.604H32.498V490.539L35.3965 485.604ZM45.2949 489.377C45.2949 490.521 45.0352 491.435 44.5156 492.118C43.9961 492.797 43.2988 493.137 42.4238 493.137C41.6126 493.137 40.9632 492.87 40.4756 492.337V495.844H38.8145V485.604H40.3457L40.4141 486.355C40.9017 485.763 41.5648 485.467 42.4033 485.467C43.3057 485.467 44.012 485.804 44.5225 486.479C45.0374 487.148 45.2949 488.08 45.2949 489.274V489.377ZM43.6406 489.233C43.6406 488.495 43.4925 487.91 43.1963 487.477C42.9046 487.044 42.4854 486.827 41.9385 486.827C41.2594 486.827 40.7718 487.107 40.4756 487.668V490.949C40.7764 491.523 41.2686 491.811 41.9521 491.811C42.4808 491.811 42.8932 491.599 43.1895 491.175C43.4902 490.746 43.6406 490.099 43.6406 489.233ZM46.3955 489.233C46.3955 488.509 46.5391 487.857 46.8262 487.278C47.1133 486.695 47.5166 486.248 48.0361 485.938C48.5557 485.624 49.1527 485.467 49.8271 485.467C50.8252 485.467 51.6341 485.788 52.2539 486.431C52.8783 487.073 53.2155 487.925 53.2656 488.987L53.2725 489.377C53.2725 490.106 53.1312 490.758 52.8486 491.332C52.5706 491.906 52.1696 492.351 51.6455 492.665C51.126 492.979 50.5244 493.137 49.8408 493.137C48.7972 493.137 47.9609 492.79 47.332 492.098C46.7077 491.4 46.3955 490.473 46.3955 489.315V489.233ZM48.0566 489.377C48.0566 490.138 48.2139 490.735 48.5283 491.168C48.8428 491.596 49.2803 491.811 49.8408 491.811C50.4014 491.811 50.8366 491.592 51.1465 491.154C51.4609 490.717 51.6182 490.076 51.6182 489.233C51.6182 488.486 51.4564 487.894 51.1328 487.456C50.8138 487.019 50.3786 486.8 49.8271 486.8C49.2848 486.8 48.8542 487.016 48.5352 487.449C48.2161 487.878 48.0566 488.52 48.0566 489.377ZM54.2158 491.674C54.6761 491.159 54.9837 490.671 55.1387 490.211C55.2982 489.746 55.3939 489.154 55.4258 488.434L55.5215 485.604H60.6553V491.674H61.6807V495.201H60.0264V493H55.2822V495.201H53.6006L53.6074 491.674H54.2158ZM56.1641 491.674H59.001V487.032H57.1348L57.0869 488.447C57.0231 489.805 56.7155 490.881 56.1641 491.674ZM69.0088 493H67.3477V490.013H64.4697V493H62.8086V485.604H64.4697V488.687H67.3477V485.604H69.0088V493ZM72.5703 487.955H74.1973C74.8034 487.955 75.332 488.06 75.7832 488.27C76.2344 488.479 76.5762 488.773 76.8086 489.151C77.0456 489.53 77.1641 489.969 77.1641 490.471C77.1641 491.232 76.8952 491.842 76.3574 492.303C75.8197 492.763 75.1042 492.995 74.2109 493H70.9092V485.604H72.5703V487.955ZM80.0557 493H78.3945V485.604H80.0557V493ZM72.5703 489.288V491.674H74.1904C74.596 491.674 74.915 491.574 75.1475 491.373C75.3844 491.168 75.5029 490.879 75.5029 490.505C75.5029 490.131 75.3867 489.837 75.1543 489.623C74.9264 489.404 74.6165 489.293 74.2246 489.288H72.5703ZM86.666 485.604H88.3203V493H86.666V488.064L83.7676 493H82.1133V485.604H83.7676V490.539L86.666 485.604ZM87.4453 482.767C87.4453 483.341 87.2448 483.806 86.8438 484.161C86.4427 484.517 85.9072 484.694 85.2373 484.694C84.5674 484.694 84.0319 484.517 83.6309 484.161C83.2298 483.806 83.0293 483.341 83.0293 482.767H84.2734C84.2734 483.067 84.3577 483.302 84.5264 483.471C84.6995 483.635 84.9365 483.717 85.2373 483.717C85.5381 483.717 85.7728 483.635 85.9414 483.471C86.11 483.302 86.1943 483.067 86.1943 482.767H87.4453ZM20.4531 504.627C20.4531 504.955 20.3529 505.258 20.1523 505.536C19.9564 505.81 19.6784 506.028 19.3184 506.192C20.166 506.489 20.5898 507.061 20.5898 507.908C20.5898 508.587 20.3141 509.13 19.7627 509.535C19.2113 509.936 18.473 510.137 17.5479 510.137C16.9827 510.137 16.4678 510.043 16.0029 509.856C15.5381 509.665 15.1758 509.396 14.916 509.05C14.6562 508.699 14.5264 508.284 14.5264 507.806H16.1807C16.1807 508.106 16.3151 508.359 16.584 508.564C16.8529 508.765 17.1924 508.865 17.6025 508.865C18.0081 508.865 18.3294 508.772 18.5664 508.585C18.8079 508.394 18.9287 508.145 18.9287 507.84C18.9287 507.48 18.8239 507.22 18.6143 507.061C18.4046 506.901 18.0811 506.821 17.6436 506.821H16.4541V505.625H17.6846C18.4274 505.616 18.7988 505.311 18.7988 504.709C18.7988 504.408 18.6917 504.174 18.4775 504.005C18.2633 503.836 17.9694 503.752 17.5957 503.752C17.2311 503.752 16.9235 503.843 16.6729 504.025C16.4222 504.203 16.2969 504.429 16.2969 504.702H14.6426C14.6426 504.05 14.916 503.517 15.4629 503.103C16.0098 502.683 16.7048 502.474 17.5479 502.474C18.4639 502.474 19.1771 502.66 19.6875 503.034C20.1979 503.408 20.4531 503.939 20.4531 504.627ZM26.4209 510C26.348 509.859 26.2842 509.629 26.2295 509.31C25.7008 509.861 25.0537 510.137 24.2881 510.137C23.5452 510.137 22.9391 509.925 22.4697 509.501C22.0003 509.077 21.7656 508.553 21.7656 507.929C21.7656 507.14 22.0573 506.536 22.6406 506.117C23.2285 505.693 24.0671 505.481 25.1562 505.481H26.1748V504.996C26.1748 504.613 26.0677 504.308 25.8535 504.08C25.6393 503.848 25.3135 503.731 24.876 503.731C24.4977 503.731 24.1878 503.827 23.9463 504.019C23.7048 504.205 23.584 504.445 23.584 504.736H21.9229C21.9229 504.331 22.0573 503.952 22.3262 503.602C22.5951 503.246 22.9596 502.968 23.4199 502.768C23.8848 502.567 24.402 502.467 24.9717 502.467C25.8376 502.467 26.528 502.686 27.043 503.123C27.5579 503.556 27.8223 504.167 27.8359 504.955V508.291C27.8359 508.956 27.9294 509.487 28.1162 509.884V510H26.4209ZM24.5957 508.804C24.9238 508.804 25.2314 508.724 25.5186 508.564C25.8102 508.405 26.029 508.191 26.1748 507.922V506.527H25.2793C24.6641 506.527 24.2015 506.634 23.8916 506.849C23.5817 507.063 23.4268 507.366 23.4268 507.758C23.4268 508.077 23.5316 508.332 23.7412 508.523C23.9554 508.71 24.2402 508.804 24.5957 508.804ZM35.8477 510H34.1865V503.943H31.3018V510H29.6406V502.604H35.8477V510ZM37.3037 506.233C37.3037 505.509 37.4473 504.857 37.7344 504.278C38.0215 503.695 38.4248 503.248 38.9443 502.938C39.4639 502.624 40.0609 502.467 40.7354 502.467C41.7334 502.467 42.5423 502.788 43.1621 503.431C43.7865 504.073 44.1237 504.925 44.1738 505.987L44.1807 506.377C44.1807 507.106 44.0394 507.758 43.7568 508.332C43.4788 508.906 43.0778 509.351 42.5537 509.665C42.0342 509.979 41.4326 510.137 40.749 510.137C39.7054 510.137 38.8691 509.79 38.2402 509.098C37.6159 508.4 37.3037 507.473 37.3037 506.315V506.233ZM38.9648 506.377C38.9648 507.138 39.1221 507.735 39.4365 508.168C39.751 508.596 40.1885 508.811 40.749 508.811C41.3096 508.811 41.7448 508.592 42.0547 508.154C42.3691 507.717 42.5264 507.076 42.5264 506.233C42.5264 505.486 42.3646 504.894 42.041 504.456C41.722 504.019 41.2868 503.8 40.7354 503.8C40.193 503.8 39.7624 504.016 39.4434 504.449C39.1243 504.878 38.9648 505.52 38.9648 506.377ZM45.7119 510V502.604H48.7129C49.7246 502.604 50.4948 502.781 51.0234 503.137C51.5521 503.488 51.8164 503.993 51.8164 504.654C51.8164 504.996 51.7093 505.304 51.4951 505.577C51.2855 505.846 50.9733 506.053 50.5586 506.199C51.0417 506.299 51.4245 506.502 51.707 506.808C51.9896 507.113 52.1309 507.473 52.1309 507.888C52.1309 508.576 51.8757 509.1 51.3652 509.46C50.8594 509.82 50.1302 510 49.1777 510H45.7119ZM47.373 506.849V508.688H49.1914C50.0436 508.688 50.4697 508.382 50.4697 507.771C50.4697 507.156 50.0368 506.849 49.1709 506.849H47.373ZM47.373 505.659H48.7402C49.6836 505.659 50.1553 505.381 50.1553 504.825C50.1553 504.242 49.7087 503.941 48.8154 503.923H47.373V505.659ZM56.8271 510.137C55.7744 510.137 54.9199 509.806 54.2637 509.146C53.612 508.48 53.2861 507.596 53.2861 506.493V506.288C53.2861 505.55 53.4274 504.891 53.71 504.312C53.9971 503.729 54.3981 503.276 54.9131 502.952C55.4281 502.629 56.0023 502.467 56.6357 502.467C57.6429 502.467 58.4199 502.788 58.9668 503.431C59.5182 504.073 59.7939 504.982 59.7939 506.158V506.828H54.9609C55.0111 507.439 55.2139 507.922 55.5693 508.277C55.9294 508.633 56.3805 508.811 56.9229 508.811C57.6839 508.811 58.3037 508.503 58.7822 507.888L59.6777 508.742C59.3815 509.184 58.985 509.528 58.4883 509.774C57.9961 510.016 57.4424 510.137 56.8271 510.137ZM56.6289 503.8C56.1732 503.8 55.804 503.959 55.5215 504.278C55.2435 504.597 55.0658 505.042 54.9883 505.611H58.1533V505.488C58.1169 504.932 57.9688 504.513 57.709 504.23C57.4492 503.943 57.0892 503.8 56.6289 503.8ZM61.1201 508.674C61.5804 508.159 61.888 507.671 62.043 507.211C62.2025 506.746 62.2982 506.154 62.3301 505.434L62.4258 502.604H67.5596V508.674H68.585V512.201H66.9307V510H62.1865V512.201H60.5049L60.5117 508.674H61.1201ZM63.0684 508.674H65.9053V504.032H64.0391L63.9912 505.447C63.9274 506.805 63.6198 507.881 63.0684 508.674ZM75.9131 510H74.252V507.013H71.374V510H69.7129V502.604H71.374V505.687H74.252V502.604H75.9131V510ZM82.3047 502.604H83.959V510H82.3047V505.064L79.4062 510H77.752V502.604H79.4062V507.539L82.3047 502.604ZM88.3545 507.074H87.5137V510H85.8525V502.604H87.5137V505.557H88.2451L90.2891 502.604H92.3398L89.667 506.145L92.5654 510H90.4053L88.3545 507.074Z" fill="white"/>
<path d="M60.6202 126.245C58.5534 125.074 56.1614 123.667 53.9251 123.189C51.9967 122.777 48.8376 121.516 47.1778 120.433C45.7274 119.486 43.8369 118.914 42.5487 117.744C41.4202 116.72 39.7099 115.964 38.7255 114.903C36.6105 112.624 34.5351 110.174 32.4167 107.851C30.8486 106.132 29.0773 103.596 28.0097 101.545C27.0502 99.7017 24.9791 96.9204 25.2523 94.7492C25.5579 92.3199 26.6101 89.8759 27.6476 87.753C28.6019 85.8 30.6426 84.8081 32.0023 83.2443C34.1197 80.8093 37.5127 79.287 40.4359 78.0402C43.3538 76.7957 45.993 75.7687 49.3144 76.478C53.6161 77.3967 55.3655 82.8924 57.4009 86.3039C61.6421 93.4125 61.121 103.823 61.1013 111.539C61.093 114.804 61.0226 118.25 60.6963 121.472C60.5815 122.605 60.5692 123.694 60.9148 124.83C61.0783 125.367 61.1891 126.436 60.6854 125.726" stroke="#FEFAF0" stroke-width="5" stroke-linecap="round" stroke-linejoin="round"/>
<path d="M43.428 91.6692C41.0581 92.2836 39.846 93.0221 38.9615 95.2751C38.3595 96.8083 37.1932 98.7491 38.2936 100.298C38.6547 100.807 38.6485 101.408 39.0283 101.943C39.4081 102.477 39.9779 102.669 40.3389 103.178C41.1606 104.335 43.9717 104.622 45.1614 103.868C46.5156 103.009 50.0408 101.65 50.5228 99.9633C50.9984 98.2998 50.2108 95.6908 49.473 94.1144C48.7382 92.5444 47.2838 91.0586 45.5374 91.0133C44.2292 90.9795 40.9214 93.4497 41.9883 92.6919" stroke="#FEFAF0" stroke-width="5" stroke-linecap="round" stroke-linejoin="round"/>
<path d="M257.5 3C256.881 6.09713 255.915 25.1192 255.248 28.1829C254.695 30.727 254.119 33.6278 254.07 36.2468C254.031 38.2954 254.089 42.0981 253.228 43.9927C252.953 44.5973 252.723 47.8716 252.723 45.8637" stroke="#FEFAF0" stroke-width="5" stroke-linecap="round" stroke-linejoin="round"/>
<path d="M252.724 46.874C247.822 47.7223 243.267 48.8947 238.317 48.8947C234.133 48.8947 229.621 48.4274 225.519 49.1566C223.394 49.5344 221.162 48.9189 219.046 49.3999C216.747 49.9223 214.307 49.8395 211.974 50.167C209.33 50.538 206.233 50.5786 203.554 50.5786C202.268 50.5786 201.103 50.9153 199.85 50.9153" stroke="#FEFAF0" stroke-width="5" stroke-linecap="round" stroke-linejoin="round"/>
<path d="M200.522 51.5889C194.306 56.2069 187.047 56.9304 179.979 59.5218C173.699 61.8244 167.128 64.6779 161.288 67.9226C159.19 69.0883 156.883 70.0406 154.721 71.1219C151.781 72.5919 148.5 73.8423 145.703 75.5C141.219 78.1569 136.667 80.6115 131.708 82.5723C126.448 84.6519 121.289 87.0468 116.16 89.4763C113.6 90.6889 107.572 93.3216 107.572 96.5486C107.572 98.7754 107.951 101.298 107.497 103.453C106.948 106.059 106.562 108.718 106.562 111.385C106.562 113.303 107.011 115.837 106.487 117.672C106.326 118.235 106.453 119.689 106.038 120.104C105.374 120.768 104.34 120.974 103.568 121.47C100.543 123.415 97.3663 124.882 93.9886 126.204C88.0947 128.51 81.1576 129.49 75.653 132.752C71.6324 135.135 67.6738 137.864 63.4542 139.974C62.6006 140.401 60.7383 141.495 60.76 142.406C60.8249 145.133 61.8509 147.849 62.4251 150.433C63.3685 154.678 62.5818 159.488 63.8658 163.661C65.4415 168.782 68.02 173.227 68.169 178.741C68.3109 183.988 71.836 187.895 74.7549 191.875C76.0331 193.618 76.2517 194.931 76.2517 197.077C76.2517 200.809 77.262 204.574 77.262 208.19" stroke="#FEFAF0" stroke-width="5" stroke-linecap="round" stroke-linejoin="round"/>
<path d="M77.263 208.527C76.6112 217.326 76.9509 226.636 74.232 235.095C72.4863 240.526 72.8849 245.996 72.8849 251.634" stroke="#FEFAF0" stroke-width="5" stroke-linecap="round" stroke-linejoin="round"/>
<path d="M73.2212 251.635C71.5243 254.506 69.3477 257.254 67.8328 260.204C66.7816 262.251 65.9603 264.551 64.8018 266.528C63.7944 268.246 63.5875 270.847 63.1928 272.777C62.6537 275.412 62.2692 278.036 61.696 280.672C60.6846 285.324 57.3512 288.815 56.1205 293.245C55.5278 295.379 54.6569 297.449 53.9501 299.569C53.3352 301.414 53.2893 303.406 52.9959 305.313C52.6496 307.564 52.1322 310.16 51.1811 312.236C50.1007 314.593 48.6661 316.887 47.7946 319.327C47.1835 321.038 46.2606 322.626 45.7739 324.378C45.0478 326.992 44.4468 329.606 43.4165 332.124C42.4423 334.506 41.2225 336.77 40.03 339.047C39.059 340.901 38.4501 343.169 37.3545 344.922C36.717 345.942 36.8493 347.623 36.8493 348.795C36.8493 349.704 36.9379 352.623 36.1758 353.004" stroke="#FEFAF0" stroke-width="5" stroke-linecap="round" stroke-linejoin="round"/>
<path d="M35.8389 353.341C41.5807 358.015 48.0428 362.037 52.8648 367.748C56.9167 372.546 62.6959 375.586 66.8223 380.302C70.6905 384.723 76.6283 387.313 81.1541 390.985C85.9382 394.867 90.0612 399.56 94.6252 403.689C96.8182 405.673 98.876 407.582 100.987 409.732C102.404 411.177 104.094 412.369 105.365 413.942C106.522 415.375 107.863 416.949 109.256 418.152C111.497 420.088 113.608 422.032 115.992 423.802C118.441 425.621 121.332 427.047 123.476 429.191C127.586 433.301 131.497 437.555 136.161 441.053C138.301 442.658 140.312 443.937 142.186 445.88C143.56 447.306 144.326 448.767 145.965 449.996" stroke="#FEFAF0" stroke-width="5" stroke-linecap="round" stroke-linejoin="round"/>
<path d="M146.302 450.67C146.302 453.512 146.639 456.248 146.639 459.089C146.639 461.818 145.467 464.721 145.03 467.434C144.589 470.162 144.281 472.448 144.281 475.236C144.281 477.312 144.281 479.389 144.281 481.466C144.281 486.807 143.944 492.078 143.944 497.407C143.944 500.348 144.281 503.253 144.281 506.238" stroke="#FEFAF0" stroke-width="5" stroke-linecap="round" stroke-linejoin="round"/>
<path d="M143.945 506.911C139.597 510.491 135.431 514.635 130.623 517.52C127.214 519.565 124.408 522.406 121.212 524.761C117.468 527.52 113.326 529.051 109.425 531.515C105.912 533.734 102.151 536.325 98.1428 537.558C94.0212 538.826 91.9532 542.134 88.4511 544.219C87.1844 544.973 85.8125 545.317 84.5969 546.127C82.8003 547.325 81.0863 548.833 79.0588 549.682C77.5195 550.326 76.5345 551.618 75.0923 552.301C73.6209 552.998 71.9682 553.23 70.5271 553.985C69.0665 554.75 68.1107 556.185 66.6729 556.904C65.3965 557.542 63.9173 557.923 62.7812 558.775" stroke="#FEFAF0" stroke-width="5" stroke-linecap="round" stroke-linejoin="round"/>
<path d="M62.7811 559.112C61.842 560.716 60.935 562.327 60.0869 563.976C59.2761 565.553 57.7745 568.027 56.3824 569.14C53.7026 571.284 51.7132 573.996 50.3204 577.129C47.5504 583.362 42.8142 588.877 38.87 594.399C37.1363 596.826 35.4779 599.267 33.7435 601.695C31.7213 604.527 29.5018 607.522 27.9434 610.639C27.288 611.949 26.7125 613.118 25.9041 614.362C24.8377 616.003 22.8082 617.151 21.8815 618.74C20.959 620.321 20.1451 622.157 19.3369 623.773" stroke="#FEFAF0" stroke-width="5" stroke-linecap="round" stroke-linejoin="round"/>
<path d="M19 624.11C19.3417 626.587 19.5655 629.073 20.0103 631.519C20.4612 633.999 21.8623 636.022 22.3678 638.423C22.6255 639.647 23.4052 640.7 23.7149 641.922C24.1823 643.765 24.1571 645.667 24.7252 647.497C25.533 650.1 25.981 653.439 26.0723 656.179C26.2416 661.257 27.6606 665.246 30.1136 669.743C31.2302 671.79 31.8565 673.827 32.5459 676.048C33.066 677.724 32.4971 679.488 32.8827 681.175C33.6246 684.421 35.8389 686.831 35.8389 690.268C35.8389 692.494 36.2084 695.159 37.1111 697.19C37.513 698.095 37.186 699.752 37.186 700.727C37.186 702.145 39.7042 717.169 40 718.5" stroke="#FEFAF0" stroke-width="5" stroke-linecap="round" stroke-linejoin="round"/>
</svg>
