<svg xmlns="http://www.w3.org/2000/svg" viewBox="0 0 728.28 324.37"><defs><style>.cls-1{fill:#1d1d1b;}</style></defs><title>Ресурс 1</title><g id="Слой_2" data-name="Слой 2"><g id="Слой_1-2" data-name="Слой 1"><path class="cls-1" d="M567.47,302.73h-7.39a4.42,4.42,0,0,0-3.83,2.21l-3.69,6.4a4.42,4.42,0,0,0,0,4.42l3.69,6.4a4.42,4.42,0,0,0,3.83,2.21h7.39a4.42,4.42,0,0,0,3.83-2.21l3.69-6.4a4.42,4.42,0,0,0,0-4.42l-3.69-6.4A4.42,4.42,0,0,0,567.47,302.73Z"/><path class="cls-1" d="M521.84,302.73h-7.39a4.42,4.42,0,0,0-3.83,2.21l-3.69,6.4a4.42,4.42,0,0,0,0,4.42l3.69,6.4a4.42,4.42,0,0,0,3.83,2.21h7.39a4.42,4.42,0,0,0,3.83-2.21l3.69-6.4a4.42,4.42,0,0,0,0-4.42l-3.69-6.4A4.42,4.42,0,0,0,521.84,302.73Z"/><path class="cls-1" d="M575,241.78H528.24c-12.82,0-19.15,15.94-9.54,24.43l.21.18q10.35,9,27.65,9,16.91,0,27.39-6.8a6.88,6.88,0,0,1,8.45.53q.52.48,1.08,1l.08.08a7,7,0,0,1-.72,10.54Q568.53,292,546.07,292q-25.83,0-42.15-15.84T487.59,235.2q0-24.36,15.35-40.08t39.71-15.71q22.9,0,35.82,14.62,10.35,11.71,12.4,29.84C592,233.73,584.93,241.78,575,241.78ZM541.92,196q-14.38,0-24,8.53-1.1,1-2.09,2a12.37,12.37,0,0,0,9,20.87h29.62c11.7,0,18.22-14,10.32-22.61l-.16-.17Q556.54,196,541.92,196Z"/><path class="cls-1" d="M697.54,290.26h-48a29,29,0,0,0-28.94,27.14h0a7.45,7.45,0,0,1-7.43,7h-.19a7.45,7.45,0,0,1-7.44-7.19l-1.19-34.56a7.45,7.45,0,0,1,7.44-7.7h2.81a7.47,7.47,0,0,0,6.23-3.34q11.51-17.37,11.51-42.22V188.81a7.45,7.45,0,0,1,7.45-7.45h63.56a7.45,7.45,0,0,1,7.45,7.45v76a10.08,10.08,0,0,0,10.08,10.08h0a7.45,7.45,0,0,1,7.44,7.7l-1.19,34.56a7.45,7.45,0,0,1-7.44,7.19h0a7.45,7.45,0,0,1-7.43-6.92l-1-14.5A13.67,13.67,0,0,0,697.54,290.26Zm-47.45-60.91a87,87,0,0,1-3.56,25.07,15.88,15.88,0,0,0,15.19,20.49h6.43A23.85,23.85,0,0,0,692,251.06v-44a10.35,10.35,0,0,0-10.35-10.35H667.48a17.39,17.39,0,0,0-17.39,17.39Z"/><path class="cls-1" d="M428.28,179.35H426.8a8.61,8.61,0,0,0-8.14,5.75l-15.08,42.81a9.63,9.63,0,0,1-18.16,0l-15.08-42.81a8.61,8.61,0,0,0-8.14-5.75H360.7a8.61,8.61,0,0,0-7.88,5.21l-39.09,90.85a8.61,8.61,0,0,0,7.91,12h1.54a8.61,8.61,0,0,0,7.95-5.29l14.13-33.87c5.47-13.1,24.22-12.54,28.89.88l11.3,32.5a8.61,8.61,0,0,0,8.13,5.78h1.84a8.61,8.61,0,0,0,8.14-5.8l18.18-52.67a7.4,7.4,0,0,1,13.82-.43l22.34,53.61a8.61,8.61,0,0,0,7.95,5.3h1.33a8.61,8.61,0,0,0,7.91-12l-38.9-90.85A8.61,8.61,0,0,0,428.28,179.35Z"/><path class="cls-1" d="M84,149.33H42.79a26.42,26.42,0,0,0-26.37,24.73l-.16,2.41a7.45,7.45,0,0,1-7.43,7H8.64a7.45,7.45,0,0,1-7.44-7.19L0,141.68A7.45,7.45,0,0,1,7.45,134h2.81a7.47,7.47,0,0,0,6.23-3.34Q28,113.27,28,88.42V47.87a7.45,7.45,0,0,1,7.45-7.45H99a7.45,7.45,0,0,1,7.45,7.45v76A10.08,10.08,0,0,0,116.53,134h0a7.45,7.45,0,0,1,7.44,7.7l-1.19,34.56a7.45,7.45,0,0,1-7.44,7.19h0a7.45,7.45,0,0,1-7.43-6.92l-.38-5.32A23.55,23.55,0,0,0,84,149.33ZM45.79,88.42a89.65,89.65,0,0,1-1.62,17.2A23.87,23.87,0,0,0,67.66,134h0a20,20,0,0,0,20-20V66.11A10.34,10.34,0,0,0,77.36,55.77H56.12A10.34,10.34,0,0,0,45.79,66.11Z"/><path class="cls-1" d="M192.84,151h0A24.87,24.87,0,0,0,168,175.84v19.87a8.44,8.44,0,0,1-8.44,8.44h-2.13a8.44,8.44,0,0,1-8.44-8.44V61.37c0-2,0-6.86,0-11.39a9.53,9.53,0,0,1,9.53-9.56h0c6.86-.12,10.44,7.71,15.84,4.39A44.21,44.21,0,0,1,198,38.47q22.9,0,37.88,16t15,40.08q0,24.85-16.32,40.69T192.84,151Zm38-56.28q0-17.54-10.23-28.51t-27-11h-.31A25.69,25.69,0,0,0,168,81.11v29.26a24.21,24.21,0,0,0,23.85,24.34h.27q17.78,0,28.26-11.09T230.85,94.75Z"/><path class="cls-1" d="M368.77,51.12,301.64,199.66a8.24,8.24,0,0,1-7.42,4.86c-1,0-2,0-3.17,0a8.25,8.25,0,0,1-7.17-12.07L295.05,171a50.8,50.8,0,0,0,1.41-44L263,51.2a8.27,8.27,0,0,1,7.76-11.62l2.38.09a8.26,8.26,0,0,1,7.21,5l21.58,50.23a15,15,0,0,0,27.52.09l22.15-50.65a8.24,8.24,0,0,1,7.88-4.94l2.15.09A8.26,8.26,0,0,1,368.77,51.12Z"/><path class="cls-1" d="M392.68,141.65V53.82a13.4,13.4,0,0,1,13.4-13.4h51.77a7.67,7.67,0,0,1,7.67,7.67h0a7.67,7.67,0,0,1-7.67,7.67H441.33a29.65,29.65,0,0,0-29.65,29.65v56.24a7.67,7.67,0,0,1-7.67,7.67h-3.65A7.67,7.67,0,0,1,392.68,141.65Z"/><path class="cls-1" d="M476.62,95q0-24.36,16.2-40.44t40.81-16.08q24.61,0,40.81,16.08T590.64,95q0,24.12-16.2,40.08t-40.81,16q-24.61,0-40.81-16T476.62,95Zm24.11-2.1q0,16.61,9.69,27t25.15,10.38q15.46,0,25.15-10.38t9.69-27q0-16.84-9.69-27.23T535.57,55.28q-15.46,0-25.15,10.38T500.73,92.9Z"/><path class="cls-1" d="M701.32,149.33h.51a8.9,8.9,0,0,0,8.9-8.9V49.33a8.9,8.9,0,0,0-8.9-8.9h-1.2a8.9,8.9,0,0,0-8.9,8.9V94A8.88,8.88,0,0,1,676,99.58L630.33,43.69a8.9,8.9,0,0,0-6.9-3.27h-.27a8.9,8.9,0,0,0-8.9,8.9v91.1a8.9,8.9,0,0,0,8.9,8.9h1a8.9,8.9,0,0,0,8.9-8.9V119.57c0-16.32,20.48-23.62,30.8-11l30.6,37.47A8.9,8.9,0,0,0,701.32,149.33Z"/><path class="cls-1" d="M691.88,5.16A31.89,31.89,0,0,0,685.35.38,4.75,4.75,0,0,0,683.49,0h0a4.86,4.86,0,0,0-4.23,2.48c-1.15,1.79-4.47,6.54-6.78,8.2a16.29,16.29,0,0,1-9.86,3h-.76a17.27,17.27,0,0,1-6-1.33,16.47,16.47,0,0,1-4.75-2.78,21.25,21.25,0,0,1-3.32-3.85c-1.34-2-1.85-2.79-2-3.14A4.93,4.93,0,0,0,641.45,0a4.78,4.78,0,0,0-2,.41,19,19,0,0,0-3.26,1.92,13.92,13.92,0,0,0-3.14,2.87,4.86,4.86,0,0,0-.58,4.69l.45,1.12c.06.15.12.28.19.42a38.85,38.85,0,0,0,3.35,5.23A48.66,48.66,0,0,0,642,22.87a26.69,26.69,0,0,0,8.9,5.42,32.07,32.07,0,0,0,11.76,2.16,30.12,30.12,0,0,0,11.73-2.29A30.57,30.57,0,0,0,682.91,23a36.29,36.29,0,0,0,5.67-6.51,37.89,37.89,0,0,0,3.19-5.14l.58-1.23A4.77,4.77,0,0,0,691.88,5.16Z"/></g></g></svg>