<svg width="587" height="453" viewBox="0 0 587 453" fill="none" xmlns="http://www.w3.org/2000/svg">
<path d="M267.6 1.2756C318.932 -3.40253 374.119 4.53806 416.022 29.2214C457.378 53.5829 466.415 99.223 493.662 134.44C524.042 173.708 596.688 203.205 585.921 248.825C574.567 296.935 484.004 299.167 445.864 336.965C414.051 368.492 429.79 427.503 385.889 447.06C342.261 466.497 290.625 432.372 241.209 428.138C195.053 424.183 143.986 442.882 104.5 422.949C64.9855 403.001 55.8342 360.189 37.5093 325.305C20.2957 292.537 -3.01344 260.19 0.321614 224.634C3.62847 189.377 31.6681 160.092 55.76 130.724C79.5137 101.769 105.83 75.2519 139.991 54.3779C178.883 30.6119 219.341 5.6738 267.6 1.2756Z" fill="#FFC300"/>
</svg>
