<svg width="1280" height="462" viewBox="0 0 1280 462" fill="none" xmlns="http://www.w3.org/2000/svg">
<path d="M157.78 349.969C9.98039 326.069 -20.0701 108.614 -2.51233 -1.05639L1277.37 -27C1294.01 85.5534 1311.57 311.682 1248.68 315.77C1185.78 319.858 1168.49 278.165 1167.7 256.807C1012.98 327.877 866.513 203.348 812.267 162.86C840.176 266.635 702.727 242.132 677.832 224.181C696.962 269.648 758.264 400.755 634.678 430.944C511.093 461.133 433.464 331.363 407.782 287.861C378.17 304.371 305.58 373.868 157.78 349.969Z" fill="#FFC300"/>
<path d="M758.878 310.267C746.614 294.229 772.374 288.385 786.787 287.468C816.032 287.468 805.262 307.122 796.221 316.949C789.932 323.786 771.142 326.305 758.878 310.267Z" fill="#FFC300"/>
<path d="M698.21 256.62C692.449 249.009 704.551 246.236 711.322 245.801C725.061 245.801 720.001 255.128 715.754 259.791C712.799 263.035 703.972 264.231 698.21 256.62Z" fill="#FFC300"/>
<path d="M751.711 257.107C739.956 261.602 747.843 273.035 753.255 278.19C765.029 287.666 769.047 273.797 769.584 265.677C769.958 260.029 763.465 252.611 751.711 257.107Z" fill="#FFC300"/>
<path d="M726.378 276.846C726.216 283.414 731.73 283.77 734.508 283.126C739.9 281.155 735.342 274.845 732.389 271.937C730.334 269.913 726.54 270.278 726.378 276.846Z" fill="#FFC300"/>
<path d="M634.608 454.84C627.183 462.847 620.2 456.79 617.637 452.761C613.499 444.079 626.249 441.926 633.141 441.935C637.936 441.941 642.033 446.833 634.608 454.84Z" fill="#FFC300"/>
<path d="M237.973 364.653C270.24 364.217 265.107 385.871 258.508 396.751C247.73 409.558 231.835 402.042 225.235 396.683C216.036 386.188 205.707 365.088 237.973 364.653Z" fill="#FFC300"/>
<path d="M198.875 429.464C196.141 422.308 203.304 422.206 207.227 423.049C212.086 424.711 211.023 428.681 209.884 430.458C207.354 433.108 201.608 436.619 198.875 429.464Z" fill="#FFC300"/>
</svg>
