<svg width="226" height="225" viewBox="0 0 226 225" fill="none" xmlns="http://www.w3.org/2000/svg">
<path d="M42.413 93.6629L30.2702 89.6241L31.4629 86.0379C31.8957 84.7369 32.4936 83.8397 33.2566 83.3464C34.0142 82.8511 34.9155 82.7774 35.9608 83.125C36.5891 83.334 37.0794 83.6885 37.4318 84.1886C37.7804 84.6812 37.9559 85.2583 37.9582 85.9197C38.3487 85.2654 38.8849 84.8139 39.5666 84.5651C40.2501 84.3109 40.9449 84.3011 41.651 84.536C42.7241 84.8929 43.4481 85.5196 43.8229 86.4162C44.1941 87.3053 44.1744 88.3671 43.7639 89.6014L42.413 93.6629ZM36.9163 90.6953L41.8868 92.3486L42.9104 89.2712C43.2026 88.3927 43.2114 87.6237 42.9367 86.9643C42.6583 86.2974 42.1216 85.8318 41.3265 85.5673C40.576 85.3177 39.9015 85.3682 39.3033 85.7187C38.7013 86.0619 38.2561 86.6672 37.9676 87.5345L36.9163 90.6953ZM36.0573 90.4096L36.9893 87.6074C37.2574 86.7457 37.2773 86.0175 37.049 85.4228C36.817 84.8208 36.3313 84.3968 35.5918 84.1508C34.8134 83.8919 34.1594 83.9461 33.6297 84.3133C33.0963 84.6731 32.666 85.3451 32.3386 86.3292L31.487 88.8895L36.0573 90.4096Z" fill="black"/>
<path d="M41.042 79.6518L42.3225 77.2269C42.6508 76.6052 43.0521 76.1213 43.5263 75.7754C43.9981 75.4215 44.4964 75.2308 45.0212 75.2031C45.5488 75.1703 46.0768 75.2934 46.6053 75.5725C47.4187 76.0021 47.9238 76.6266 48.1206 77.4461C48.3148 78.2577 48.1616 79.1376 47.6609 80.0858L45.9085 83.4044L37.4992 78.9637L37.9876 78.0389L41.042 79.6518ZM41.8347 80.0704L45.6119 82.065L46.8842 79.6557C47.2371 78.9873 47.3451 78.3751 47.208 77.819C47.0737 77.2577 46.7138 76.8225 46.1283 76.5133C45.5687 76.2178 45.0195 76.1663 44.4805 76.3588C43.9391 76.5433 43.4936 76.9541 43.1439 77.5911L41.8347 80.0704ZM50.8006 74.1402L50.3081 75.0728L41.8988 70.6322L42.3913 69.6995L50.8006 74.1402Z" fill="black"/>
<path d="M48.7543 62.2682L45.9394 66.1656L52.9147 71.2036L52.2972 72.0586L44.588 66.4906L48.0204 61.7382L48.7543 62.2682Z" fill="black"/>
<path d="M52.5889 63.3019C51.9189 62.6801 51.4352 61.9912 51.1375 61.2352C50.8439 60.475 50.7682 59.7211 50.9103 58.9737C51.0522 58.218 51.4022 57.5395 51.9603 56.9383C52.8213 56.0107 53.8453 55.5621 55.0322 55.5926C56.2148 55.6191 57.3429 56.1306 58.4165 57.1272L58.5776 57.2767C59.2518 57.9025 59.7378 58.5975 60.0358 59.3618C60.3334 60.1177 60.409 60.8674 60.2625 61.6109C60.116 62.3543 59.7618 63.0288 59.1997 63.6343C58.3427 64.5576 57.3208 65.0082 56.1342 64.986C54.9473 64.9555 53.8171 64.442 52.7435 63.4454L52.5889 63.3019ZM53.519 62.7263C54.3521 63.4996 55.2363 63.9207 56.1718 63.9895C57.1069 64.0501 57.8993 63.7304 58.5491 63.0304C59.1949 62.3347 59.4508 61.525 59.3169 60.6013C59.1828 59.6692 58.6776 58.7966 57.8016 57.9834L57.6534 57.8459C57.1209 57.3516 56.5418 56.9979 55.9161 56.7849C55.2904 56.5718 54.6919 56.5319 54.1206 56.6651C53.5449 56.7943 53.0438 57.0887 52.6173 57.5482C51.9795 58.2353 51.7298 59.0469 51.8683 59.9829C52.0025 60.9149 52.5055 61.7855 53.3772 62.5947L53.519 62.7263Z" fill="black"/>
<path d="M62.8197 58.3336L62.7982 57.5692C62.7383 56.3261 62.1431 54.9218 61.0126 53.3564L58.8563 50.4425L63.2122 46.8973L68.6548 53.5845L69.4183 52.9631L71.7429 55.8193L70.9317 56.4795L69.1674 54.3118L63.6254 58.8223L65.3897 60.9901L64.6058 61.6281L62.288 58.7663L62.8197 58.3336ZM63.7604 57.568L67.8368 54.2503L63.0156 48.3265L60.2548 50.5735L61.7252 52.5611C63.0748 54.3864 63.7532 56.0553 63.7604 57.568Z" fill="black"/>
<path d="M77.7144 48.8205L76.8124 49.3671L74.5529 45.639L70.1709 48.2948L72.4303 52.0229L71.5284 52.5695L66.5995 44.4368L67.5014 43.8902L69.7108 47.5356L74.0928 44.8798L71.8835 41.2344L72.7855 40.6877L77.7144 48.8205Z" fill="black"/>
<path d="M83.6607 46.1729C82.9204 46.4981 82.1697 46.6103 81.4087 46.5095C80.6529 46.4063 79.9662 46.1032 79.3484 45.6002C78.7283 45.0918 78.2403 44.4326 77.8845 43.6226L77.7325 43.2766C77.3648 42.4397 77.1946 41.6153 77.2219 40.8033C77.2546 39.989 77.4769 39.2641 77.889 38.6287C78.2987 37.9879 78.8415 37.5191 79.5174 37.2221C80.5742 36.7579 81.5702 36.7523 82.5052 37.2055C83.4433 37.651 84.1869 38.4987 84.736 39.7486L84.9729 40.2878L78.7607 43.0168L78.842 43.2019C79.2757 44.189 79.9191 44.8887 80.7722 45.3011C81.6284 45.7058 82.4856 45.7196 83.3439 45.3425C83.8589 45.1162 84.271 44.8232 84.5801 44.4634C84.8946 44.1013 85.1221 43.643 85.2625 43.0885L86.0675 43.282C85.8095 44.6177 85.0072 45.5814 83.6607 46.1729ZM79.878 38.0429C79.1538 38.3611 78.6589 38.8953 78.3933 39.6455C78.133 40.3934 78.1461 41.2389 78.4323 42.1819L83.6547 39.8877L83.6088 39.7831C83.2143 38.958 82.6763 38.3816 81.9947 38.0538C81.3131 37.726 80.6075 37.7224 79.878 38.0429Z" fill="black"/>
<path d="M91.994 33.0386L93.007 32.745L95.6543 41.8789L94.6413 42.1725L92.4662 34.6678L89.7113 43.6013L88.7068 43.8924L86.0595 34.7586L87.0641 34.4674L89.2416 41.9805L91.994 33.0386ZM90.9892 29.761C91.1767 30.4082 91.1061 30.996 90.7773 31.5244C90.4542 32.0512 89.9212 32.4223 89.1783 32.6376C88.4467 32.8496 87.7987 32.8239 87.2343 32.5605C86.6739 32.2898 86.2991 31.828 86.1099 31.1752L86.9709 30.9256C87.1063 31.3927 87.3478 31.7101 87.6953 31.8778C88.0485 32.0439 88.4727 32.0552 88.9679 31.9116C89.4631 31.7681 89.8111 31.5269 90.0119 31.1881C90.2182 30.8477 90.257 30.4552 90.1281 30.0106L90.9892 29.761Z" fill="black"/>
<path d="M106.409 39.5003C107.139 39.4382 107.732 39.182 108.187 38.7316C108.648 38.2749 108.871 37.7178 108.857 37.0605L109.864 36.9748C109.884 37.5553 109.748 38.099 109.456 38.6061C109.163 39.1073 108.751 39.5158 108.219 39.8315C107.693 40.1468 107.115 40.3312 106.484 40.3848C105.241 40.4906 104.217 40.1425 103.414 39.3405C102.617 38.538 102.156 37.407 102.032 35.9474L102.005 35.6321C101.925 34.698 102.019 33.858 102.285 33.1121C102.55 32.3661 102.97 31.7718 103.544 31.329C104.124 30.8857 104.822 30.6292 105.64 30.5597C106.679 30.4713 107.561 30.708 108.285 31.2698C109.015 31.831 109.446 32.6147 109.578 33.6207L108.571 33.7064C108.462 32.9689 108.142 32.3933 107.613 31.9796C107.09 31.5655 106.457 31.3899 105.716 31.453C104.77 31.5334 104.063 31.9375 103.596 32.6653C103.135 33.3926 102.956 34.3722 103.061 35.6041L103.087 35.9106C103.19 37.1191 103.53 38.0399 104.107 38.6729C104.69 39.3055 105.457 39.5813 106.409 39.5003Z" fill="black"/>
<path d="M121.466 31.5751C122.667 31.7019 123.598 32.1981 124.261 33.0635C124.924 33.9232 125.188 34.9998 125.051 36.2933L125.027 36.5206C124.936 37.3771 124.683 38.131 124.266 38.7823C123.856 39.4283 123.311 39.9098 122.629 40.2266C121.954 40.5382 121.202 40.6503 120.375 40.5629C119.128 40.4311 118.161 39.9106 117.473 39.0012C116.792 38.0867 116.525 36.936 116.671 35.5492L116.76 34.7101C116.967 32.7523 117.505 31.2272 118.375 30.1348C119.245 29.0424 120.379 28.4552 121.778 28.3733C122.661 28.3252 123.29 28.2002 123.665 27.9982C124.046 27.7969 124.258 27.4894 124.302 27.0757L125.202 27.1708C125.15 27.6603 125.005 28.0545 124.767 28.3534C124.53 28.6523 124.196 28.8793 123.768 29.0343C123.339 29.1835 122.699 29.2807 121.845 29.3261C120.868 29.376 120.05 29.7049 119.39 30.3128C118.737 30.9155 118.264 31.767 117.971 32.8673C118.396 32.4172 118.904 32.0702 119.495 31.8264C120.093 31.5831 120.75 31.4993 121.466 31.5751ZM117.734 35.529L117.711 35.7475C117.598 36.8138 117.795 37.7125 118.301 38.4436C118.808 39.1688 119.53 39.581 120.468 39.6801C121.412 39.7799 122.205 39.5249 122.847 38.9151C123.49 38.2995 123.869 37.444 123.984 36.3486L124.008 36.1213C124.113 35.1366 123.906 34.3017 123.389 33.6166C122.878 32.9322 122.154 32.5404 121.216 32.4412C120.278 32.3421 119.489 32.5799 118.851 33.1547C118.214 33.7237 117.841 34.5151 117.734 35.529Z" fill="black"/>
<path d="M129.379 42.1313C128.592 41.9451 127.926 41.5826 127.379 41.0437C126.838 40.5062 126.472 39.8507 126.282 39.0771C126.093 38.2978 126.1 37.4777 126.304 36.6167L126.391 36.2489C126.601 35.3594 126.962 34.5988 127.473 33.967C127.989 33.3366 128.603 32.8918 129.315 32.6327C130.028 32.3679 130.744 32.3205 131.462 32.4905C132.585 32.7563 133.384 33.3516 133.857 34.2766C134.338 35.1971 134.421 36.3217 134.107 37.6502L133.971 38.2233L127.368 36.6608L127.322 36.8575C127.073 37.9067 127.166 38.8528 127.598 39.6958C128.038 40.5344 128.714 41.0617 129.626 41.2776C130.174 41.4071 130.679 41.4213 131.143 41.3203C131.612 41.2206 132.069 40.9916 132.515 40.6336L133.042 41.2729C132.031 42.1838 130.81 42.47 129.379 42.1313ZM131.256 33.3629C130.486 33.1807 129.769 33.3091 129.105 33.7481C128.447 34.1885 127.948 34.8713 127.609 35.7965L133.16 37.11L133.186 36.9989C133.368 36.1026 133.286 35.3184 132.939 34.6463C132.592 33.9742 132.031 33.5464 131.256 33.3629Z" fill="black"/>
<path d="M138.569 44.0282C139.255 44.2859 139.9 44.3094 140.505 44.0987C141.118 43.8845 141.559 43.4775 141.828 42.8777L142.774 43.2334C142.542 43.766 142.186 44.1985 141.704 44.5307C141.225 44.8574 140.677 45.049 140.061 45.1054C139.45 45.1639 138.849 45.0818 138.257 44.8591C137.089 44.4199 136.314 43.6656 135.934 42.5962C135.559 41.5288 135.629 40.3095 136.145 38.9383L136.256 38.6422C136.586 37.7646 137.031 37.0463 137.592 36.4871C138.153 35.928 138.787 35.5719 139.496 35.4189C140.21 35.2679 140.951 35.3367 141.719 35.6254C142.695 35.9924 143.389 36.5852 143.801 37.4036C144.219 38.2242 144.271 39.1171 143.959 40.0825L143.012 39.7268C143.23 39.0137 143.189 38.3567 142.89 37.7557C142.595 37.1568 142.1 36.7264 141.403 36.4645C140.515 36.1305 139.703 36.1916 138.968 36.6477C138.239 37.1059 137.657 37.9136 137.221 39.0709L137.113 39.3588C136.686 40.4942 136.598 41.4717 136.846 42.2914C137.101 43.1132 137.675 43.6921 138.569 44.0282Z" fill="black"/>
<path d="M149.962 50.2462L149.034 49.7467L153.109 42.1687L148.596 39.7416L144.521 47.3196L143.592 46.82L148.096 38.4447L154.467 41.871L149.962 50.2462Z" fill="black"/>
<path d="M163.855 48.3645L158.23 56.0318L157.379 55.4079L162.469 48.4705L159.33 46.1672L157.09 48.9383C156.253 49.9597 155.551 50.6943 154.982 51.142C154.417 51.5851 153.884 51.8263 153.383 51.8655C152.882 51.9048 152.376 51.7372 151.866 51.3629L151.54 51.1237L152.091 50.3726L152.364 50.5508C152.857 50.8983 153.38 50.9186 153.932 50.6116C154.485 50.3046 155.231 49.5802 156.17 48.4382L159.051 44.8394L163.855 48.3645Z" fill="black"/>
<path d="M164.701 62.0113C164.832 61.7229 165.091 61.3575 165.476 60.9152C164.877 61.0051 164.279 60.9459 163.683 60.7374C163.094 60.5288 162.57 60.203 162.11 59.7599C161.452 59.1258 161.095 58.4281 161.039 57.6666C160.988 56.9093 161.232 56.2499 161.773 55.6886C162.415 55.0219 163.2 54.7606 164.127 54.9048C165.058 55.0531 166.019 55.6049 167.011 56.5601L168.384 57.8832L169.134 57.1046C169.606 56.6151 169.824 56.0847 169.788 55.5135C169.761 54.9422 169.458 54.3781 168.88 53.8212C168.353 53.3131 167.786 53.0274 167.179 52.9642C166.573 52.901 166.087 53.0592 165.721 53.4391L164.968 52.7011C165.492 52.1567 166.199 51.93 167.087 52.0211C167.98 52.108 168.795 52.5071 169.534 53.2184C170.298 53.9541 170.714 54.7254 170.783 55.5322C170.86 56.3388 170.576 57.09 169.93 57.7859L166.808 61.0269C166.17 61.6895 165.762 62.2524 165.585 62.7157L165.511 62.7917L164.701 62.0113ZM162.845 59.1743C163.352 59.6621 163.921 59.9746 164.554 60.112C165.19 60.2534 165.797 60.2068 166.372 59.9722L167.823 58.4656L166.469 57.1608C165.705 56.4416 164.98 56.0118 164.294 55.8714C163.612 55.7267 163.045 55.8886 162.594 56.357C162.224 56.741 162.058 57.1958 162.097 57.7214C162.14 58.251 162.39 58.7353 162.845 59.1743Z" fill="black"/>
<path d="M177.881 64.2201L175.695 61.5343L169.015 66.9713L168.349 66.1533L175.029 60.7163L172.927 58.1328L173.622 57.5669L178.576 63.6542L177.881 64.2201Z" fill="black"/>
<path d="M175.858 76.9684L175.302 76.0725L179.005 73.7725L176.302 69.4196L172.598 71.7196L172.042 70.8236L180.121 65.8064L180.677 66.7023L177.056 68.9513L179.759 73.3042L183.38 71.0552L183.937 71.9511L175.858 76.9684Z" fill="black"/>
<path d="M181.454 76.8928C182.289 76.5221 183.113 76.3489 183.925 76.3732C184.739 76.4029 185.462 76.6303 186.093 77.0555C186.732 77.4837 187.217 78.0727 187.55 78.8225C188.063 79.9794 188.072 81.0973 187.576 82.1762C187.086 83.2527 186.171 84.0879 184.832 84.682L184.632 84.7711C183.791 85.1442 182.96 85.3171 182.141 85.2897C181.329 85.2654 180.61 85.0395 179.984 84.6119C179.359 84.1843 178.878 83.593 178.543 82.8378C178.032 81.6863 178.021 80.5696 178.509 79.4877C179.004 78.4088 179.922 77.5724 181.261 76.9783L181.454 76.8928ZM181.616 77.9745C180.577 78.4354 179.842 79.0822 179.41 79.9149C178.986 80.7505 178.967 81.6048 179.355 82.4778C179.74 83.3454 180.383 83.8997 181.285 84.1407C182.194 84.3846 183.195 84.2642 184.288 83.7794L184.473 83.6975C185.137 83.4028 185.69 83.0099 186.132 82.5188C186.575 82.0277 186.847 81.4933 186.95 80.9157C187.058 80.3357 186.985 79.7592 186.731 79.1861C186.35 78.3291 185.703 77.7799 184.788 77.5384C183.879 77.2944 182.88 77.4137 181.793 77.896L181.616 77.9745Z" fill="black"/>
<path d="M192.046 92.0874L192.336 93.1015L183.192 95.7151L182.903 94.701L190.415 92.5536L181.492 89.7659L181.204 88.7603L190.348 86.1467L190.635 87.1523L183.114 89.3021L192.046 92.0874ZM195.327 91.0947C194.679 91.2799 194.092 91.2071 193.565 90.8764C193.039 90.5513 192.67 90.0169 192.457 89.2732C192.248 88.5409 192.276 87.893 192.542 87.3295C192.814 86.7701 193.278 86.397 193.931 86.2102L194.178 87.0722C193.71 87.2058 193.392 87.4461 193.223 87.793C193.055 88.1456 193.042 88.5697 193.184 89.0655C193.326 89.5613 193.566 89.9101 193.904 90.1121C194.244 90.3197 194.636 90.3599 195.081 90.2327L195.327 91.0947Z" fill="black"/>
<path d="M189.293 103.374L186.111 106.092L186.029 105.173L189.118 102.296L189.284 102.281L192.832 104.569L192.913 105.488L189.293 103.374ZM189.533 106.08L186.351 108.798L186.27 107.878L189.358 105.001L189.525 104.986L193.072 107.274L193.154 108.193L189.533 106.08Z" fill="black"/>
<path d="M191.075 114.407L191.153 112.65L185.155 112.386L185.203 111.306L197.988 111.87L197.94 112.95L192.075 112.691L191.999 114.395L197.647 119.597L197.587 120.958L191.532 115.43L184.785 120.78L184.845 119.437L191.075 114.407Z" fill="black"/>
<path d="M183.39 128.149C183.703 128.101 184.151 128.116 184.732 128.196C184.328 127.744 184.05 127.212 183.897 126.599C183.748 125.992 183.733 125.375 183.852 124.748C184.021 123.85 184.408 123.168 185.014 122.704C185.619 122.246 186.305 122.088 187.071 122.233C187.981 122.404 188.629 122.917 189.017 123.771C189.404 124.63 189.47 125.737 189.215 127.09L188.862 128.964L189.925 129.164C190.592 129.29 191.156 129.181 191.614 128.838C192.076 128.502 192.382 127.94 192.531 127.151C192.666 126.431 192.594 125.8 192.314 125.259C192.035 124.717 191.636 124.398 191.117 124.3L191.321 123.265C192.064 123.405 192.641 123.871 193.052 124.664C193.469 125.458 193.583 126.359 193.393 127.367C193.197 128.409 192.78 129.18 192.144 129.68C191.512 130.188 190.728 130.362 189.792 130.204L185.369 129.371C184.465 129.201 183.771 129.169 183.286 129.274L183.182 129.255L183.39 128.149ZM184.744 125.041C184.614 125.732 184.665 126.38 184.897 126.984C185.128 127.594 185.5 128.075 186.012 128.428L188.068 128.815L188.415 126.966C188.598 125.933 188.56 125.092 188.301 124.441C188.047 123.791 187.601 123.406 186.962 123.285C186.438 123.187 185.967 123.298 185.549 123.618C185.13 123.945 184.861 124.419 184.744 125.041Z" fill="black"/>
<path d="M184.709 140.149C183.299 139.692 182.28 139.017 181.652 138.123C181.029 137.232 180.888 136.262 181.227 135.214C181.628 133.977 182.37 133.17 183.453 132.794L178.838 131.298L179.16 130.303L191.685 134.362L191.384 135.29L190.088 134.926C190.841 135.891 191.017 136.992 190.616 138.229C190.266 139.31 189.582 140.025 188.564 140.373C187.544 140.726 186.306 140.667 184.852 140.195L184.709 140.149ZM185.21 139.203C186.364 139.577 187.352 139.635 188.175 139.378C188.997 139.121 189.545 138.569 189.82 137.722C190.019 137.108 190.042 136.534 189.889 135.998C189.736 135.462 189.416 134.985 188.929 134.569L184.59 133.163C183.994 133.234 183.487 133.449 183.069 133.806C182.652 134.164 182.344 134.646 182.148 135.254C181.875 136.095 181.997 136.859 182.514 137.544C183.035 138.236 183.934 138.789 185.21 139.203Z" fill="black"/>
<path d="M184.654 149.878L186.105 146.733L178.285 143.124L178.727 142.166L186.547 145.776L187.943 142.752L188.757 143.127L185.468 150.253L184.654 149.878Z" fill="black"/>
<path d="M180.605 149.707C181.379 150.194 181.982 150.781 182.414 151.469C182.844 152.162 183.058 152.888 183.057 153.649C183.058 154.418 182.84 155.15 182.403 155.844C181.729 156.915 180.806 157.546 179.634 157.736C178.467 157.93 177.264 157.636 176.024 156.856L175.838 156.739C175.059 156.249 174.453 155.656 174.018 154.961C173.586 154.273 173.372 153.55 173.378 152.793C173.384 152.035 173.607 151.306 174.047 150.607C174.718 149.541 175.639 148.909 176.809 148.71C177.981 148.52 179.187 148.815 180.426 149.595L180.605 149.707ZM179.798 150.446C178.836 149.84 177.889 149.591 176.957 149.696C176.027 149.81 175.307 150.272 174.799 151.08C174.293 151.883 174.192 152.726 174.495 153.609C174.799 154.5 175.458 155.264 176.469 155.901L176.64 156.008C177.255 156.395 177.89 156.635 178.544 156.729C179.199 156.822 179.794 156.75 180.331 156.513C180.873 156.279 181.31 155.897 181.644 155.367C182.144 154.573 182.238 153.729 181.929 152.835C181.624 151.944 180.968 151.182 179.961 150.549L179.798 150.446Z" fill="black"/>
<path d="M174.034 166.825L173.355 167.632L166.082 161.505L166.761 160.698L172.737 165.732L170.068 156.773L170.742 155.973L178.015 162.1L177.341 162.899L171.359 157.86L174.034 166.825ZM176.69 168.993C176.175 168.559 175.907 168.031 175.887 167.409C175.863 166.791 176.101 166.187 176.599 165.595C177.09 165.013 177.643 164.674 178.259 164.58C178.875 164.494 179.443 164.67 179.963 165.108L179.385 165.793C179.013 165.48 178.636 165.35 178.254 165.404C177.868 165.462 177.509 165.688 177.177 166.082C176.845 166.476 176.689 166.87 176.71 167.264C176.728 167.661 176.914 168.009 177.268 168.307L176.69 168.993Z" fill="black"/>
<path d="M153.591 173.492L152.504 174.312L150.091 171.102L150.954 170.45L152.823 172.926L160.525 167.111L158.655 164.635L159.518 163.984L161.938 167.19L161.258 167.703C161.148 168.638 161.327 169.744 161.792 171.022C162.257 172.309 162.924 173.596 163.795 174.885L166.398 178.712L160.751 182.975L153.591 173.492ZM160.255 168.461L154.454 172.84L161.058 181.587L165.014 178.6L162.946 175.569C162.089 174.308 161.423 173.052 160.949 171.802C160.471 170.555 160.239 169.441 160.255 168.461Z" fill="black"/>
<path d="M145.959 182.142C145.251 180.84 144.977 179.648 145.137 178.568C145.3 177.493 145.865 176.692 146.833 176.166C147.976 175.545 149.07 175.471 150.114 175.945L147.798 171.681L148.717 171.182L155.002 182.751L154.144 183.217L153.456 182.061C153.338 183.279 152.707 184.198 151.564 184.819C150.565 185.362 149.577 185.408 148.599 184.959C147.617 184.513 146.76 183.618 146.03 182.274L145.959 182.142ZM146.974 181.801C147.553 182.867 148.229 183.59 149.002 183.97C149.775 184.35 150.553 184.328 151.336 183.902C151.902 183.595 152.315 183.194 152.573 182.7C152.832 182.206 152.928 181.641 152.862 181.003L150.684 176.995C150.203 176.636 149.688 176.443 149.139 176.414C148.59 176.386 148.035 176.524 147.473 176.829C146.696 177.251 146.259 177.889 146.162 178.741C146.063 179.602 146.333 180.622 146.974 181.801Z" fill="black"/>
<path d="M139.986 181.225L140.352 189.684L139.298 190.102L138.972 178.262L138.987 177.726C139.046 176.461 139.582 175.628 140.596 175.226C140.83 175.133 141.095 175.072 141.393 175.042L141.721 175.848L141.195 176C140.716 176.19 140.377 176.463 140.178 176.819C139.971 177.172 139.879 177.679 139.9 178.338L139.94 179.703L146.749 187.148L145.679 187.572L139.986 181.225Z" fill="black"/>
<path d="M128.482 187.739L129.714 187.45L128.71 183.172L129.737 182.931L130.741 187.209L131.964 186.922L134.383 181.841L135.684 181.536L132.965 187.184L137.428 190.895L136.187 191.186L132.196 187.834L130.955 188.125L131.909 192.189L130.882 192.43L129.929 188.366L128.679 188.659L126.595 193.436L125.337 193.731L127.702 188.419L122.746 184.571L124.055 184.264L128.482 187.739Z" fill="black"/>
<path d="M119.232 193.6C118.029 193.697 117.022 193.382 116.21 192.655C115.399 191.933 114.941 190.924 114.836 189.627L114.817 189.4C114.747 188.541 114.857 187.753 115.145 187.036C115.428 186.325 115.876 185.751 116.487 185.313C117.092 184.882 117.81 184.633 118.639 184.565C119.889 184.464 120.936 184.796 121.78 185.562C122.619 186.335 123.095 187.416 123.208 188.806L123.276 189.647C123.435 191.609 123.189 193.208 122.537 194.442C121.885 195.677 120.879 196.464 119.519 196.804C118.66 197.015 118.066 197.254 117.735 197.522C117.398 197.79 117.246 198.132 117.28 198.546L116.378 198.62C116.338 198.129 116.407 197.715 116.585 197.377C116.764 197.039 117.049 196.755 117.442 196.523C117.835 196.297 118.446 196.083 119.277 195.88C120.228 195.65 120.971 195.175 121.506 194.455C122.036 193.742 122.343 192.818 122.427 191.682C122.093 192.203 121.659 192.638 121.123 192.987C120.581 193.337 119.951 193.541 119.232 193.6ZM122.167 189.023L122.149 188.804C122.062 187.735 121.703 186.888 121.07 186.264C120.438 185.645 119.651 185.374 118.711 185.45C117.765 185.527 117.033 185.924 116.515 186.643C115.998 187.366 115.784 188.277 115.873 189.375L115.892 189.603C115.972 190.59 116.329 191.372 116.964 191.95C117.593 192.528 118.378 192.778 119.318 192.702C120.258 192.626 120.989 192.246 121.509 191.563C122.03 190.886 122.25 190.039 122.167 189.023Z" fill="black"/>
<path d="M111.322 191.169L108.588 190.965C107.886 190.912 107.283 190.738 106.776 190.442C106.263 190.151 105.889 189.77 105.654 189.3C105.413 188.83 105.315 188.296 105.359 187.7C105.428 186.783 105.798 186.07 106.471 185.562C107.137 185.06 108.005 184.849 109.074 184.929L112.817 185.208L112.108 194.692L111.065 194.614L111.322 191.169ZM111.389 190.275L111.707 186.016L108.99 185.813C108.237 185.756 107.632 185.902 107.177 186.25C106.717 186.597 106.462 187.101 106.412 187.761C106.365 188.393 106.537 188.917 106.929 189.334C107.315 189.756 107.869 190 108.593 190.066L111.389 190.275ZM102.369 184.427L103.421 184.506L102.712 193.989L101.66 193.911L102.369 184.427Z" fill="black"/>
<path d="M97.9872 191.998L96.1816 188.144L96.2176 187.981L99.4665 185.286L100.376 185.487L97.2734 188.295L98.897 192.199L97.9872 191.998ZM95.2492 191.395L93.4436 187.541L93.4796 187.378L96.7285 184.683L97.6383 184.883L94.5354 187.691L96.159 191.595L95.2492 191.395Z" fill="black"/>
<path d="M76.1916 152.198C76.1916 152.198 74.7274 154.101 72.0781 156.394C68.0498 159.881 65.3767 161.56 61.6024 164.827C58.5176 167.498 60.6923 170.376 60.6923 170.376C60.6923 170.376 61.8005 169.163 63.3248 167.844C65.1394 166.273 70.4303 162.264 73.7329 159.405C78.5596 155.227 76.1916 152.198 76.1916 152.198ZM101.047 132.883C98.1572 129.544 93.2968 126.472 86.2588 130.956L86.0913 130.762C88.4984 127.578 89.4338 121.52 85.4964 116.972C79.7998 110.391 73.211 113.047 68.8076 116.859C66.0979 119.204 64.3551 121.983 63.5513 123.694C62.7409 125.496 61.7009 128.597 63.9209 131.162C65.3032 132.759 67.0668 132.84 68.0346 132.003C69.2927 130.914 68.2686 128.753 68.2738 125.532C68.25 122.082 69.2214 120.564 70.8182 119.181C72.7538 117.506 76.6486 117.605 80.0834 121.573C84.6072 126.799 84.6468 130.658 82.179 132.794L80.437 134.302C78.695 135.81 77.6399 137.232 78.7289 138.49C79.9018 139.845 80.5792 139.258 80.9663 138.923C81.8857 138.127 82.457 137.125 84.3925 135.449C87.683 132.601 91.2102 132.764 95.3571 137.555C99.3782 142.2 100.726 148.059 96.9998 151.285C95.2094 152.835 93.4357 153.523 89.9604 152.638C88.3196 152.111 85.4604 150.862 84.2991 151.867C83.1377 152.873 82.9593 154.72 84.5091 156.51C87.0643 159.462 89.5053 158.957 91.4047 158.413C93.4912 157.792 95.3813 156.749 97.6071 154.822C105.736 147.785 105.739 138.302 101.047 132.883ZM65.231 129.351C65.4824 129.641 66.0139 130.451 65.6268 130.786C65.2397 131.121 64.6402 130.624 64.2633 130.188C63.97 129.85 63.822 129.385 64.1607 129.092C64.4027 128.883 64.9378 129.012 65.231 129.351ZM85.5037 154.041C85.7969 154.38 86.0222 155.031 85.6835 155.325C85.3448 155.618 84.8291 155.218 84.5359 154.879C84.1589 154.443 84.0658 153.847 84.4529 153.512C84.7432 153.26 85.2105 153.702 85.5037 154.041ZM120.383 103.109C110.414 91.5929 100.304 89.5944 93.6261 95.3748C87.1904 100.946 88.4122 112.331 97.5436 122.88C107.471 134.348 118.167 137.024 124.748 131.328C130.894 126.008 130.017 114.239 120.383 103.109ZM114.818 107.926C123.196 117.604 127.189 125.151 122.738 129.005C118.576 132.607 111.486 127.741 103.108 118.063C95.5267 109.305 91.3301 101.425 95.6367 97.6975C100.088 93.8439 107.069 98.9746 114.818 107.926ZM129.655 80.7782C125.633 76.1328 120.395 75.1657 115.798 79.145C112.12 82.3284 110.953 87.8251 115.435 93.0027C119.372 97.5512 124.743 98.5733 129.292 94.6359C132.631 91.7457 134.053 85.859 129.655 80.7782ZM131.621 64.1775L142.753 116.25L145.462 115.174L134.33 63.1022L131.621 64.1775ZM161.436 86.7875C157.373 82.0938 152.079 81.2588 147.482 85.2381C143.805 88.4215 142.686 93.8764 147.168 99.0539C151.063 103.554 156.428 104.666 160.976 100.729C164.364 97.7969 165.792 91.8199 161.436 86.7875ZM126.16 84.5646C129.47 88.3873 129.484 91.3376 127.742 92.8455C125.613 94.6885 122.692 93.6615 118.713 89.0646C115.278 85.0967 115.551 82.5755 117.147 81.1932C119.809 78.8894 122.642 80.5 126.16 84.5646ZM157.893 90.6159C161.161 94.3902 161.175 97.3404 159.385 98.8902C157.352 100.649 154.425 99.7127 150.446 95.1158C146.969 91.0995 147.284 88.6267 148.832 87.2863C151.542 84.9406 154.375 86.5512 157.893 90.6159Z" fill="#211F1F"/>
<path d="M29.4059 115.932C29.1655 120.006 29.2454 123.887 31.7129 127.314C32.4975 128.404 33.6582 129.478 34.924 129.984C36.7939 130.73 39.0859 129.559 40.0206 127.881C41.1106 125.925 41.267 123.448 41.1826 121.267C41.0529 117.911 40.372 114.306 38.878 111.264C38.1661 109.814 36.9692 107.439 35.2027 107.056C34.2071 106.84 33.2592 107.345 32.4493 107.872C30.7482 108.979 30.1258 111.503 29.4729 113.332C29.2317 114.007 29.2092 114.711 29.0999 115.414C29.0773 115.559 29.1719 116.154 29.1674 116.155C28.5922 116.326 27.836 116.327 27.2436 116.345C26.0684 116.379 24.8467 116.725 23.7121 117.019C20.5485 117.837 18.6381 120.27 16.9872 122.963C16.4759 123.797 15.8399 124.649 15.627 125.625C15.4721 126.335 19.0433 125.669 19.402 125.573C22.9272 124.63 25.1005 122.285 27.6148 119.881C28.0421 119.473 30.3128 117.508 30.0824 116.73C30.02 116.52 27.935 118.771 27.764 118.957C26.3938 120.451 24.937 121.471 23.2978 122.616C21.1664 124.105 20.0276 127.653 21.4805 130.017C22.8495 132.244 25.9111 129.577 26.6721 128.063C27.8823 125.656 27.2503 122.659 28.9161 120.418C29.45 119.7 30.0335 119.016 30.5635 118.297C31.0199 117.677 30.9049 117.587 31.0758 118.483" stroke="#211F1F" stroke-linecap="round" stroke-linejoin="round"/>
<path d="M36.8996 129.399C37.4794 130.449 38.2096 131.559 39.0467 132.417C39.5073 132.89 39.734 133.268 40.024 133.888C40.1434 134.143 40.3749 134.957 40.2949 134.687C40.1104 134.065 39.926 133.443 39.7416 132.821" stroke="#211F1F" stroke-linecap="round" stroke-linejoin="round"/>
<path d="M31.4961 126.584C32.7794 124.75 34.3345 123.42 36.5206 122.81C37.5614 122.52 38.2881 123.077 39.2199 123.068C39.709 123.063 40.1692 122.611 40.6712 122.883C40.7052 122.902 38.8054 123.008 38.464 123.03C37.3745 123.099 36.1826 123.233 35.1257 123.528C34.3957 123.732 33.5042 123.88 32.9007 124.357C32.4306 124.728 32.2312 125.267 31.8394 125.687C31.2867 126.279 32.9125 124.465 33.5307 123.942C34.382 123.221 35.3663 122.597 36.4762 122.375C37.0173 122.267 37.7519 122.414 38.298 122.47C38.8507 122.526 39.5033 122.383 40.0337 122.531C41.4678 122.928 40.5898 121.668 40.1866 120.962" stroke="#211F1F" stroke-linecap="round" stroke-linejoin="round"/>
<path d="M30.0334 120.619C30.9549 118.636 33.4095 118.547 35.281 118.455C36.4813 118.396 37.6482 118.525 38.8422 118.652C39.9831 118.773 39.6512 118.599 38.7858 118.347C36.6066 117.714 33.8588 118.1 31.9675 119.437C31.5494 119.733 31.1444 120.158 30.806 120.543C30.5835 120.796 30.6572 120.693 30.9002 120.489C31.7536 119.776 32.605 119.054 33.477 118.364C34.7442 117.36 37.2755 116.174 38.9988 116.44C39.4574 116.51 40.5069 116.665 40.7204 116.995C40.8695 117.226 39.5735 117.254 39.397 117.269C39.0815 117.296 38.7931 117.433 38.4726 117.433C38.4473 117.433 37.9743 117.443 38.0177 117.526C38.208 117.886 40.0525 118.065 40.4601 118.173C40.9022 118.29 41.0998 118.396 40.751 117.841C40.209 116.979 39.4939 116.203 38.8484 115.418" stroke="#211F1F" stroke-linecap="round" stroke-linejoin="round"/>
<path d="M32.6883 113.134C33.0475 113.513 33.4315 114.056 33.931 114.271C34.2676 114.416 33.7642 113.765 33.6912 113.691C33.5036 113.499 32.5787 113.219 33.0228 113.491C33.4057 113.726 33.673 113.381 33.212 113.131C32.9144 112.969 33.0933 113.28 33.3883 112.926" stroke="#211F1F" stroke-linecap="round" stroke-linejoin="round"/>
</svg>
