<svg width="49" height="47" viewBox="0 0 49 47" fill="none" xmlns="http://www.w3.org/2000/svg">
<path d="M49 23C49 34.8741 46 44 25 47C13.1259 47 0 36.3741 0 24.5C0 12.6259 11.6259 1.00004 23.5 1.00004C40.5 -2.00002 49 11.1259 49 23Z" fill="white"/>
<path d="M12.5922 25.9424C14.8741 24.1595 18.9422 20.9309 22.162 21.3112C23.5395 21.4739 24.9298 22.1153 26.2815 22.425C30.0666 23.2923 34.4411 27.374 30.0075 30.57C26.7347 32.9292 21.7561 34.412 17.7852 32.937C15.7948 32.1977 11.6702 28.8096 13.4497 26.6486" stroke="#211F1F" stroke-linecap="round" stroke-linejoin="round"/>
<path d="M31.1535 26.755C32.7462 26.8424 34.332 27.0105 35.9204 27.0827" stroke="#211F1F" stroke-linecap="round" stroke-linejoin="round"/>
<path d="M17.8377 23.0671C17.0046 19.7756 11.78 13.1987 13.6435 9.85971C15.695 6.18367 17.6228 9.7675 19.4766 11.4653C21.3308 13.1632 21.7301 15.4201 21.6599 17.94C21.6278 19.0913 21.2723 20.7757 20.4606 21.6294C19.4906 22.6495 20.4266 18.7045 21.0644 17.4496C21.8334 15.9365 29.199 5.91748 29.6029 10.0903C29.9922 14.1108 26.069 19.1875 23.6637 22.1084" stroke="#211F1F" stroke-linecap="round" stroke-linejoin="round"/>
<path d="M16.7715 25.9904C17.4124 26.029 17.5547 26.0402 17.7776 26.6277C17.8648 26.8575 18.0274 27.1113 17.6774 27.1899C17.141 27.3103 16.7706 27.05 16.9417 26.4932C17.0284 26.2111 17.6676 26.5567 17.5803 26.7573C17.4779 26.9926 17.2206 26.9043 17.0688 26.7792C16.8629 26.6096 17.1767 26.379 17.2926 26.2383" stroke="#211F1F" stroke-linecap="round" stroke-linejoin="round"/>
<path d="M25.98 22.5141C26.0744 23.4893 26.0238 24.46 26.3035 25.3992C26.6941 26.7108 27.5151 27.7348 28.136 28.9226C28.4037 29.4347 28.9319 29.9433 29.1355 30.4608C29.4094 31.157 28.0301 29.4432 27.5661 28.8563C26.5271 27.542 25.9628 26.7268 25.9289 25.0102C25.9178 24.4486 26.1109 23.573 26.2798 23.0429C26.5551 22.1786 26.585 21.8103 26.4616 23.1524C26.2948 24.9657 26.141 27.0151 27.1237 28.6229C27.4982 29.2355 27.9066 29.7208 28.4559 30.1731C29.181 30.7702 28.5157 30.585 28.0739 30.2211C26.8033 29.1749 26.1395 27.3206 25.7481 25.7678C25.4452 24.5656 26.0427 23.4606 26.463 22.3679" stroke="#211F1F" stroke-linecap="round" stroke-linejoin="round"/>
<path d="M22.2503 21.98C22.3702 23.3923 22.0736 24.842 22.6074 26.182C22.9713 27.0956 23.3752 27.9946 23.7383 28.9062C24.0314 29.6419 24.3227 30.3947 24.9486 30.9101C25.3539 31.2438 25.9703 31.5904 26.2613 32.0313C26.4794 32.3617 26.2095 32.2765 25.9941 32.1235C25.3652 31.6768 24.7009 31.25 24.1055 30.7597C23.3842 30.1657 22.3059 29.3298 21.9059 28.4649C21.4125 27.3981 21.4452 26.1768 21.6082 25.047C21.7379 24.1473 21.8504 23.2637 22.0286 22.3715C22.0516 22.2562 22.165 21.3344 22.2019 21.5373C22.5885 23.6663 21.9061 25.8605 22.5809 27.9632C23.066 29.4745 25.0169 29.8945 25.8193 31.1738C25.9582 31.3952 26.1512 31.5377 26.351 31.7023C26.7688 32.0463 25.604 31.2175 25.5135 31.1537C24.5554 30.4779 23.4953 29.6827 22.7836 28.7445C22.345 28.1663 21.6633 27.3507 21.5168 26.6135C21.281 25.4272 21.5217 24.1201 21.7702 22.9544C21.8859 22.4112 21.7026 21.324 22.0469 20.906" stroke="#211F1F" stroke-linecap="round" stroke-linejoin="round"/>
</svg>
